<svg width="107" height="33" viewBox="0 0 107 33" fill="none" xmlns="http://www.w3.org/2000/svg">
<mask id="mask0_70_241" style="mask-type:luminance" maskUnits="userSpaceOnUse" x="0" y="0" width="107" height="33">
<path d="M106.245 0H0V32.524H106.245V0Z" fill="white"/>
</mask>
<g mask="url(#mask0_70_241)">
<path fill-rule="evenodd" clip-rule="evenodd" d="M65.784 24.9612C59.623 29.4907 50.6795 31.9043 42.9947 31.9043C32.1963 31.9043 22.4909 27.9368 15.1705 21.2913C14.6074 20.7623 15.1044 20.068 15.7999 20.4646C23.7165 25.0604 33.5212 27.8376 43.6572 27.8376C50.4807 27.8376 57.9999 26.4159 64.8897 23.5065C65.9496 23.0767 66.8108 24.2007 65.784 24.9612Z" fill="#10162F" fill-opacity="0.63"/>
<path fill-rule="evenodd" clip-rule="evenodd" d="M68.3671 22.0199C67.5722 21.028 63.1668 21.5571 61.1793 21.7885C60.583 21.8546 60.4837 21.3256 61.0137 20.9619C64.5579 18.4822 70.3215 19.2096 70.984 20.0362C71.6465 20.8628 70.8184 26.6487 67.506 29.4258C67.0091 29.8557 66.5123 29.6242 66.7442 29.0621C67.4728 27.1777 69.1622 23.0448 68.3671 22.0199Z" fill="#10162F" fill-opacity="0.63"/>
<path fill-rule="evenodd" clip-rule="evenodd" d="M61.3125 3.47145V1.09097C61.3125 0.727282 61.5775 0.49585 61.9087 0.49585H72.7072C73.0381 0.49585 73.3367 0.760348 73.3367 1.09097V3.14083C73.3367 3.47145 73.0381 3.93433 72.5084 4.6617L66.9104 12.6298C68.9972 12.5966 71.1834 12.8942 73.0714 13.9522C73.5022 14.1836 73.6012 14.5473 73.6344 14.878V17.4568C73.6344 17.8205 73.2369 18.2172 72.8394 18.0189C69.5272 16.2666 65.1217 16.1013 61.445 18.0519C61.0806 18.2503 60.6831 17.8535 60.6831 17.4898V15.0432C60.6831 14.6466 60.6831 13.9852 61.0806 13.3901L67.5397 4.1327H61.9087C61.5775 4.09964 61.3125 3.83514 61.3125 3.47145Z" fill="#10162F" fill-opacity="0.63"/>
<path fill-rule="evenodd" clip-rule="evenodd" d="M21.961 18.4809H18.6817C18.3836 18.4479 18.1185 18.2164 18.0855 17.9188V1.09015C18.0855 0.759533 18.3836 0.495035 18.7149 0.495035H21.7622C22.0934 0.495035 22.3253 0.759533 22.3585 1.0571V3.23921H22.4247C23.2197 1.12322 24.7103 0.131348 26.7308 0.131348C28.7845 0.131348 30.0764 1.12322 31.0038 3.23921C31.7988 1.12322 33.6206 0.131348 35.5418 0.131348C36.933 0.131348 38.4236 0.693411 39.351 1.98284C40.3778 3.40452 40.1791 5.45437 40.1791 7.23975V17.8527C40.1791 18.1834 39.8811 18.4479 39.5499 18.4479H36.2706C35.9393 18.4148 35.6743 18.1504 35.6743 17.8527V8.92592C35.6743 8.23158 35.7406 6.44625 35.575 5.785C35.3431 4.66089 34.5813 4.33026 33.6537 4.33026C32.8588 4.33026 32.0306 4.85926 31.6994 5.71888C31.3682 6.5785 31.4013 7.96713 31.4013 8.92592V17.8527C31.4013 18.1834 31.1032 18.4479 30.772 18.4479H27.4927C27.1614 18.4148 26.8964 18.1504 26.8964 17.8527V8.92592C26.8964 7.04137 27.1946 4.2972 24.8759 4.2972C22.5241 4.2972 22.6234 6.97524 22.6234 8.92592V17.8527C22.5904 18.2164 22.2922 18.4809 21.961 18.4809Z" fill="#10162F" fill-opacity="0.63"/>
<path fill-rule="evenodd" clip-rule="evenodd" d="M82.6099 0.164551C87.479 0.164551 90.1294 4.3304 90.1294 9.65343C90.1294 14.7781 87.2145 18.8447 82.6099 18.8447C77.8403 18.8447 75.2233 14.6789 75.2233 9.45505C75.2233 4.23122 77.8729 0.164551 82.6099 0.164551ZM82.6431 3.60303C80.2247 3.60303 80.0592 6.90926 80.0592 8.95916C80.0592 11.0089 80.026 15.4062 82.6099 15.4062C85.1605 15.4062 85.2602 11.8686 85.2602 9.71952C85.2602 8.29791 85.1937 6.6117 84.763 5.25615C84.4319 4.06591 83.7034 3.60303 82.6431 3.60303Z" fill="#10162F" fill-opacity="0.63"/>
<path fill-rule="evenodd" clip-rule="evenodd" d="M96.4578 18.4809H93.1782C92.8471 18.4479 92.5819 18.1834 92.5819 17.8858V1.0571C92.6151 0.759533 92.8797 0.495035 93.2114 0.495035H96.2589C96.5572 0.495035 96.7882 0.693411 96.8545 0.9579V3.53676H96.9218C97.8488 1.22241 99.1403 0.131348 101.393 0.131348C102.85 0.131348 104.308 0.660345 105.236 2.11509C106.096 3.47064 106.096 5.71888 106.096 7.33891V17.9188C106.063 18.2164 105.798 18.4479 105.468 18.4479H102.188C101.889 18.4148 101.625 18.2164 101.592 17.9188V8.82668C101.592 6.97525 101.791 4.2972 99.538 4.2972C98.7426 4.2972 98.0145 4.8262 97.6499 5.65275C97.1859 6.67768 97.1197 7.70259 97.1197 8.82668V17.8858C97.0865 18.2164 96.7882 18.4809 96.4578 18.4809Z" fill="#10162F" fill-opacity="0.63"/>
<path fill-rule="evenodd" clip-rule="evenodd" d="M52.701 10.4476C52.701 11.7371 52.7341 12.7951 52.0716 13.9192C51.5416 14.845 50.7135 15.407 49.7861 15.407C48.5274 15.407 47.7986 14.4482 47.7986 13.0265C47.7986 10.2494 50.3161 9.72033 52.6678 9.72033V10.4476H52.701ZM56.0134 18.4488C55.7815 18.6472 55.4834 18.6472 55.2515 18.5149C54.1584 17.6221 53.9596 17.1924 53.3635 16.3327C51.5747 18.1512 50.2829 18.7133 47.9642 18.7133C45.215 18.7133 43.0618 16.9941 43.0618 13.6217C43.0618 10.9767 44.5193 9.15825 46.573 8.26559C48.3617 7.47208 50.846 7.33981 52.7341 7.14146V6.71165C52.7341 5.91814 52.8003 5.02547 52.3366 4.33116C51.9391 3.73604 51.1773 3.47155 50.4816 3.47155C49.223 3.47155 48.1298 4.09973 47.8317 5.45528C47.7655 5.75284 47.5667 6.0504 47.2686 6.0504L44.0887 5.71978C43.8237 5.65366 43.5256 5.45528 43.5919 5.02547C44.3206 1.15718 47.7986 0 50.9122 0C52.5023 0 54.589 0.429811 55.8478 1.62005C57.4377 3.10785 57.3051 5.09159 57.3051 7.27367V12.3653C57.3051 13.8861 57.9346 14.5805 58.5307 15.407C58.7295 15.7046 58.7958 16.0683 58.5307 16.2666C57.8683 16.8287 56.6758 17.8867 56.0134 18.4488Z" fill="#10162F" fill-opacity="0.63"/>
<path fill-rule="evenodd" clip-rule="evenodd" d="M9.67225 10.4476C9.67225 11.7371 9.7053 12.7951 9.04285 13.9192C8.51285 14.845 7.68478 15.407 6.75729 15.407C5.49858 15.407 4.76985 14.4482 4.76985 13.0265C4.76985 10.2494 7.28727 9.72033 9.63902 9.72033V10.4476H9.67225ZM12.9846 18.4488C12.7527 18.6472 12.4546 18.6472 12.2227 18.5149C11.1296 17.6221 10.9309 17.1924 10.3347 16.3327C8.54601 18.1512 7.25417 18.7133 4.93548 18.7133C2.15306 18.7133 0 17.0271 0 13.6217C0 10.9767 1.45745 9.15825 3.51114 8.26559C5.29983 7.47208 7.78417 7.33981 9.67225 7.14146V6.71165C9.67225 5.91814 9.73844 5.02547 9.27474 4.33116C8.87726 3.73604 8.1154 3.47155 7.41975 3.47155C6.16106 3.47155 5.06797 4.09973 4.76985 5.45528C4.70361 5.75284 4.50486 6.0504 4.20675 6.0504L1.02684 5.71978C0.76185 5.65366 0.463737 5.45528 0.529982 5.02547C1.29183 1.15718 4.76985 0 7.88354 0C9.4735 0 11.5934 0.429811 12.8521 1.62005C14.4421 3.10785 14.3096 5.09159 14.3096 7.27367V12.3653C14.3096 13.8861 14.9389 14.5805 15.5352 15.407C15.7339 15.7046 15.8001 16.0683 15.5352 16.2666C14.8396 16.8287 13.6471 17.8867 12.9846 18.4488Z" fill="#10162F" fill-opacity="0.63"/>
</g>
</svg>
