<svg width="45" height="45" viewBox="0 0 45 45" fill="none" xmlns="http://www.w3.org/2000/svg">
<rect width="45" height="45" rx="2" fill="#D7ECCE"/>
<g clip-path="url(#clip0_649_2)">
<path d="M33.3129 11C33.692 11 34 11.308 34 11.6879V32.3129C34 32.692 33.692 33 33.3121 33H26.4379C26.2554 33 26.0805 32.9275 25.9515 32.7985C25.8225 32.6695 25.75 32.4946 25.75 32.3121V11.6886C25.75 11.3087 26.058 11.0007 26.4379 11.0007L33.3129 11ZM24.375 17.875V33H19.5621C19.3798 32.9998 19.2051 32.9272 19.0762 32.7983C18.9474 32.6693 18.875 32.4944 18.875 32.3121V18.5621C18.875 18.183 19.183 17.875 19.5629 17.875H24.375ZM17.5 24.75V33H12.6871C12.5048 32.9998 12.3301 32.9272 12.2012 32.7983C12.0724 32.6693 12 32.4944 12 32.3121V25.4379C12 25.058 12.308 24.75 12.6879 24.75H17.5Z" fill="#16A085"/>
</g>
<defs>
<clipPath id="clip0_649_2">
<rect width="22" height="22" fill="white" transform="translate(12 11)"/>
</clipPath>
</defs>
</svg>
