<svg width="32" height="39" viewBox="0 0 32 39" fill="none" xmlns="http://www.w3.org/2000/svg">
<mask id="mask0_70_402" style="mask-type:luminance" maskUnits="userSpaceOnUse" x="0" y="0" width="32" height="39">
<path d="M31.557 0H0V38.6413H31.557V0Z" fill="white"/>
</mask>
<g mask="url(#mask0_70_402)">
<path fill-rule="evenodd" clip-rule="evenodd" d="M17.1841 3.32635C19.6946 0.018828 23.184 0 23.184 0C23.184 0 23.705 3.11297 21.2071 6.10668C18.546 9.30753 15.5209 8.78033 15.5209 8.78033C15.5209 8.78033 14.9498 6.26358 17.1841 3.32635Z" fill="#10162F" fill-opacity="0.63"/>
<path fill-rule="evenodd" clip-rule="evenodd" d="M15.8409 10.9651C17.1339 10.9651 19.5313 9.18896 22.6506 9.18896C28.0229 9.18896 30.1317 13.0111 30.1317 13.0111C30.1317 13.0111 26.002 15.1262 26.002 20.2474C26.002 26.0278 31.1485 28.0236 31.1485 28.0236C31.1485 28.0236 27.5522 38.1534 22.6882 38.1534C20.4539 38.1534 18.7217 36.647 16.3681 36.647C13.9707 36.647 11.592 38.2098 10.0418 38.2098C5.60458 38.2035 0 28.601 0 20.8752C0 13.2747 4.74475 9.28937 9.1945 9.28937C12.0878 9.29562 14.3347 10.9651 15.8409 10.9651Z" fill="#10162F" fill-opacity="0.63"/>
</g>
</svg>
