<svg width="449" height="1240" viewBox="0 0 449 1240" fill="none" xmlns="http://www.w3.org/2000/svg">
<g opacity="0.65">
<g opacity="0.41">
<path d="M125.233 352.314H107.251V453.436H125.233V352.314Z" fill="#1A8DAA" fill-opacity="0.06"/>
<path d="M110.702 387.75H81.8818V448.25H110.702V387.75Z" fill="#1A8DAA" fill-opacity="0.06"/>
<path d="M113.782 277.121H111.319V365.278H113.782V277.121Z" fill="#1A8DAA" fill-opacity="0.06"/>
<path d="M118.277 283.171H115.567V375.649H118.277V283.171Z" fill="#1A8DAA" fill-opacity="0.06"/>
<path d="M135.582 437.878H22.2732V473.314H135.582V437.878Z" fill="#1A8DAA" fill-opacity="0.06"/>
<path d="M144.201 467.264H12.9104V499.243H144.201V467.264Z" fill="#1A8DAA" fill-opacity="0.06"/>
<path d="M138.291 488.871H18.8237V1048.07H138.291V488.871Z" fill="#1A8DAA" fill-opacity="0.06"/>
<g opacity="0.53">
<path d="M119.457 588.382H113.512V643.254H119.457V588.382Z" fill="#1A8DAA" fill-opacity="0.06"/>
<path d="M107.026 588.382H101.08V643.254H107.026V588.382Z" fill="#1A8DAA" fill-opacity="0.06"/>
<path d="M94.0538 588.382H88.1083V643.254H94.0538V588.382Z" fill="#1A8DAA" fill-opacity="0.06"/>
<path d="M80.5416 588.382H74.5961V643.254H80.5416V588.382Z" fill="#1A8DAA" fill-opacity="0.06"/>
<path d="M67.393 588.382H61.4474V643.254H67.393V588.382Z" fill="#1A8DAA" fill-opacity="0.06"/>
<path d="M55.6785 588.382H49.733V643.254H55.6785V588.382Z" fill="#1A8DAA" fill-opacity="0.06"/>
<path d="M43.2474 588.382H37.3019V643.254H43.2474V588.382Z" fill="#1A8DAA" fill-opacity="0.06"/>
<path d="M119.817 655.511H113.872V710.383H119.817V655.511Z" fill="#1A8DAA" fill-opacity="0.06"/>
<path d="M107.386 655.511H101.44V710.383H107.386V655.511Z" fill="#1A8DAA" fill-opacity="0.06"/>
<path d="M94.0538 655.511H88.1083V710.383H94.0538V655.511Z" fill="#1A8DAA" fill-opacity="0.06"/>
<path d="M80.9017 655.511H74.9562V710.383H80.9017V655.511Z" fill="#1A8DAA" fill-opacity="0.06"/>
<path d="M67.7498 655.511H61.8043V710.383H67.7498V655.511Z" fill="#1A8DAA" fill-opacity="0.06"/>
<path d="M56.0387 655.511H50.0932V710.383H56.0387V655.511Z" fill="#1A8DAA" fill-opacity="0.06"/>
<path d="M43.6074 655.511H37.6618V710.383H43.6074V655.511Z" fill="#1A8DAA" fill-opacity="0.06"/>
<path d="M43.2471 655.511H37.3015V710.383H43.2471V655.511Z" fill="#1A8DAA" fill-opacity="0.06"/>
<path d="M119.817 722.64H113.872V777.512H119.817V722.64Z" fill="#1A8DAA" fill-opacity="0.06"/>
<path d="M107.386 722.64H101.44V777.512H107.386V722.64Z" fill="#1A8DAA" fill-opacity="0.06"/>
<path d="M94.0538 722.64H88.1083V777.512H94.0538V722.64Z" fill="#1A8DAA" fill-opacity="0.06"/>
<path d="M80.9017 722.64H74.9562V777.512H80.9017V722.64Z" fill="#1A8DAA" fill-opacity="0.06"/>
<path d="M67.7498 722.64H61.8043V777.512H67.7498V722.64Z" fill="#1A8DAA" fill-opacity="0.06"/>
<path d="M56.0387 722.64H50.0932V777.512H56.0387V722.64Z" fill="#1A8DAA" fill-opacity="0.06"/>
<path d="M43.6074 722.64H37.6618V777.512H43.6074V722.64Z" fill="#1A8DAA" fill-opacity="0.06"/>
<path d="M43.2471 722.64H37.3015V777.512H43.2471V722.64Z" fill="#1A8DAA" fill-opacity="0.06"/>
<path d="M119.817 789.769H113.872V844.641H119.817V789.769Z" fill="#1A8DAA" fill-opacity="0.06"/>
<path d="M107.386 789.769H101.44V844.641H107.386V789.769Z" fill="#1A8DAA" fill-opacity="0.06"/>
<path d="M94.0538 789.769H88.1083V844.641H94.0538V789.769Z" fill="#1A8DAA" fill-opacity="0.06"/>
<path d="M80.9017 789.769H74.9562V844.641H80.9017V789.769Z" fill="#1A8DAA" fill-opacity="0.06"/>
<path d="M67.7498 789.769H61.8043V844.641H67.7498V789.769Z" fill="#1A8DAA" fill-opacity="0.06"/>
<path d="M56.0387 789.769H50.0932V844.641H56.0387V789.769Z" fill="#1A8DAA" fill-opacity="0.06"/>
<path d="M43.6074 789.769H37.6618V844.641H43.6074V789.769Z" fill="#1A8DAA" fill-opacity="0.06"/>
<path d="M119.817 866.703H113.872V921.575H119.817V866.703Z" fill="#1A8DAA" fill-opacity="0.06"/>
<path d="M107.386 866.703H101.44V921.575H107.386V866.703Z" fill="#1A8DAA" fill-opacity="0.06"/>
<path d="M94.0538 866.703H88.1083V921.575H94.0538V866.703Z" fill="#1A8DAA" fill-opacity="0.06"/>
<path d="M80.9017 866.703H74.9562V921.575H80.9017V866.703Z" fill="#1A8DAA" fill-opacity="0.06"/>
<path d="M67.7498 866.703H61.8043V921.575H67.7498V866.703Z" fill="#1A8DAA" fill-opacity="0.06"/>
<path d="M56.0387 866.703H50.0932V921.575H56.0387V866.703Z" fill="#1A8DAA" fill-opacity="0.06"/>
<path d="M43.6074 866.703H37.6618V921.575H43.6074V866.703Z" fill="#1A8DAA" fill-opacity="0.06"/>
</g>
</g>
<g opacity="0.41">
<path d="M394.755 423.491H262.524V1073.85H394.755V423.491Z" fill="#1A8DAA" fill-opacity="0.06"/>
<path d="M376.565 347.098H278.616V444.601H376.565V347.098Z" fill="#1A8DAA" fill-opacity="0.06"/>
<path d="M365.023 268.693H292.261V374.237H365.023V268.693Z" fill="#1A8DAA" fill-opacity="0.06"/>
<path d="M344.179 213.911H314.299V277.74H344.179V213.911Z" fill="#1A8DAA" fill-opacity="0.06"/>
<path d="M336.584 167.672H321.892V213.91H336.584V167.672Z" fill="#1A8DAA" fill-opacity="0.06"/>
<path d="M328.128 -0.00012207L326.537 180.737L331.939 172.306L328.128 -0.00012207Z" fill="#1A8DAA" fill-opacity="0.06"/>
</g>
<g opacity="0.61">
<path d="M289.017 432.518H282.136V515.149H289.017V432.518Z" fill="#1A8DAA" fill-opacity="0.06"/>
<path d="M303.406 432.518H296.525V515.149H303.406V432.518Z" fill="#1A8DAA" fill-opacity="0.06"/>
<path d="M318.421 432.518H311.539V515.149H318.421V432.518Z" fill="#1A8DAA" fill-opacity="0.06"/>
<path d="M334.056 432.518H327.176V515.149H334.056V432.518Z" fill="#1A8DAA" fill-opacity="0.06"/>
<path d="M349.281 432.518H342.401V515.149H349.281V432.518Z" fill="#1A8DAA" fill-opacity="0.06"/>
<path d="M362.835 432.518H355.954V515.149H362.835V432.518Z" fill="#1A8DAA" fill-opacity="0.06"/>
<path d="M377.223 432.518H370.343V515.149H377.223V432.518Z" fill="#1A8DAA" fill-opacity="0.06"/>
<path d="M288.602 533.607H281.721V616.238H288.602V533.607Z" fill="#1A8DAA" fill-opacity="0.06"/>
<path d="M302.988 533.607H296.107V616.238H302.988V533.607Z" fill="#1A8DAA" fill-opacity="0.06"/>
<path d="M318.421 533.607H311.539V616.238H318.421V533.607Z" fill="#1A8DAA" fill-opacity="0.06"/>
<path d="M333.643 533.607H326.761V616.238H333.643V533.607Z" fill="#1A8DAA" fill-opacity="0.06"/>
<path d="M348.864 533.607H341.983V616.238H348.864V533.607Z" fill="#1A8DAA" fill-opacity="0.06"/>
<path d="M362.417 533.607H355.536V616.238H362.417V533.607Z" fill="#1A8DAA" fill-opacity="0.06"/>
<path d="M376.805 533.607H369.925V616.238H376.805V533.607Z" fill="#1A8DAA" fill-opacity="0.06"/>
<path d="M377.223 533.607H370.343V616.238H377.223V533.607Z" fill="#1A8DAA" fill-opacity="0.06"/>
<path d="M288.602 634.695H281.721V717.327H288.602V634.695Z" fill="#1A8DAA" fill-opacity="0.06"/>
<path d="M302.988 634.695H296.107V717.327H302.988V634.695Z" fill="#1A8DAA" fill-opacity="0.06"/>
<path d="M318.421 634.695H311.539V717.327H318.421V634.695Z" fill="#1A8DAA" fill-opacity="0.06"/>
<path d="M333.643 634.695H326.761V717.327H333.643V634.695Z" fill="#1A8DAA" fill-opacity="0.06"/>
<path d="M348.864 634.695H341.983V717.327H348.864V634.695Z" fill="#1A8DAA" fill-opacity="0.06"/>
<path d="M362.417 634.695H355.536V717.327H362.417V634.695Z" fill="#1A8DAA" fill-opacity="0.06"/>
<path d="M376.805 634.695H369.925V717.327H376.805V634.695Z" fill="#1A8DAA" fill-opacity="0.06"/>
<path d="M377.223 634.695H370.343V717.327H377.223V634.695Z" fill="#1A8DAA" fill-opacity="0.06"/>
<path d="M288.602 735.784H281.721V818.415H288.602V735.784Z" fill="#1A8DAA" fill-opacity="0.06"/>
<path d="M302.988 735.784H296.107V818.415H302.988V735.784Z" fill="#1A8DAA" fill-opacity="0.06"/>
<path d="M318.421 735.784H311.539V818.415H318.421V735.784Z" fill="#1A8DAA" fill-opacity="0.06"/>
<path d="M333.643 735.784H326.761V818.415H333.643V735.784Z" fill="#1A8DAA" fill-opacity="0.06"/>
<path d="M348.864 735.784H341.983V818.415H348.864V735.784Z" fill="#1A8DAA" fill-opacity="0.06"/>
<path d="M362.417 735.784H355.536V818.415H362.417V735.784Z" fill="#1A8DAA" fill-opacity="0.06"/>
<path d="M376.805 735.784H369.925V818.415H376.805V735.784Z" fill="#1A8DAA" fill-opacity="0.06"/>
<path d="M288.602 851.638H281.721V934.269H288.602V851.638Z" fill="#1A8DAA" fill-opacity="0.06"/>
<path d="M302.988 851.638H296.107V934.269H302.988V851.638Z" fill="#1A8DAA" fill-opacity="0.06"/>
<path d="M318.421 851.638H311.539V934.269H318.421V851.638Z" fill="#1A8DAA" fill-opacity="0.06"/>
<path d="M333.643 851.638H326.761V934.269H333.643V851.638Z" fill="#1A8DAA" fill-opacity="0.06"/>
<path d="M348.864 851.638H341.983V934.269H348.864V851.638Z" fill="#1A8DAA" fill-opacity="0.06"/>
<path d="M362.417 851.638H355.536V934.269H362.417V851.638Z" fill="#1A8DAA" fill-opacity="0.06"/>
<path d="M376.805 851.638H369.925V934.269H376.805V851.638Z" fill="#1A8DAA" fill-opacity="0.06"/>
</g>
<path d="M89.4085 738.442H63.6111V769.174H89.4085V738.442Z" fill="#1A8DAA" fill-opacity="0.06"/>
<path d="M102.309 759.47H58.3368V1116.13H102.309V759.47Z" fill="#1A8DAA" fill-opacity="0.06"/>
<path d="M69.7679 673.742H65.6637V738.442H69.7679V673.742Z" fill="#1A8DAA" fill-opacity="0.06"/>
<path d="M80.6157 689.108H76.5115V743.295H80.6157V689.108Z" fill="#1A8DAA" fill-opacity="0.06"/>
<path d="M281.717 900.193H181.459V1209.95H281.717V900.193Z" fill="#1A8DAA" fill-opacity="0.06"/>
<path d="M315.721 937.8H275.266V1209.94H315.721V937.8Z" fill="#1A8DAA" fill-opacity="0.06"/>
<path d="M432.252 716.202H315.724V731.973H432.252V716.202Z" fill="#1A8DAA" fill-opacity="0.06"/>
<path d="M448.52 724.087H292.564V743.295H448.52V724.087Z" fill="#1A8DAA" fill-opacity="0.06"/>
<path d="M440.165 743.295H299.453V1121.79H440.165V743.295Z" fill="#1A8DAA" fill-opacity="0.06"/>
<g opacity="0.53">
<path d="M325.614 756.943H320.776V786.361H325.614V756.943Z" fill="#1A8DAA" fill-opacity="0.06"/>
<path d="M315.721 756.943H310.883V786.361H315.721V756.943Z" fill="#1A8DAA" fill-opacity="0.06"/>
<path d="M336.387 756.943H331.549V786.361H336.387V756.943Z" fill="#1A8DAA" fill-opacity="0.06"/>
<path d="M347.381 756.943H342.543V786.361H347.381V756.943Z" fill="#1A8DAA" fill-opacity="0.06"/>
<path d="M359.255 756.943H354.417V786.361H359.255V756.943Z" fill="#1A8DAA" fill-opacity="0.06"/>
<path d="M370.541 756.943H365.704V786.361H370.541V756.943Z" fill="#1A8DAA" fill-opacity="0.06"/>
<path d="M380.655 756.943H375.817V786.361H380.655V756.943Z" fill="#1A8DAA" fill-opacity="0.06"/>
<path d="M390.327 756.943H385.49V786.361H390.327V756.943Z" fill="#1A8DAA" fill-opacity="0.06"/>
<path d="M402.201 756.943H397.364V786.361H402.201V756.943Z" fill="#1A8DAA" fill-opacity="0.06"/>
<path d="M412.902 756.943H408.065V786.361H412.902V756.943Z" fill="#1A8DAA" fill-opacity="0.06"/>
<path d="M422.428 756.943H417.591V786.361H422.428V756.943Z" fill="#1A8DAA" fill-opacity="0.06"/>
<path d="M432.542 756.943H427.705V786.361H432.542V756.943Z" fill="#1A8DAA" fill-opacity="0.06"/>
<path d="M325.321 792.932H320.484V822.35H325.321V792.932Z" fill="#1A8DAA" fill-opacity="0.06"/>
<path d="M315.428 792.932H310.591V822.35H315.428V792.932Z" fill="#1A8DAA" fill-opacity="0.06"/>
<path d="M336.094 792.932H331.257V822.35H336.094V792.932Z" fill="#1A8DAA" fill-opacity="0.06"/>
<path d="M347.092 792.932H342.254V822.35H347.092V792.932Z" fill="#1A8DAA" fill-opacity="0.06"/>
<path d="M358.959 792.932H354.122V822.35H358.959V792.932Z" fill="#1A8DAA" fill-opacity="0.06"/>
<path d="M370.249 792.932H365.411V822.35H370.249V792.932Z" fill="#1A8DAA" fill-opacity="0.06"/>
<path d="M380.359 792.932H375.522V822.35H380.359V792.932Z" fill="#1A8DAA" fill-opacity="0.06"/>
<path d="M390.034 792.932H385.197V822.35H390.034V792.932Z" fill="#1A8DAA" fill-opacity="0.06"/>
<path d="M401.908 792.932H397.071V822.35H401.908V792.932Z" fill="#1A8DAA" fill-opacity="0.06"/>
<path d="M412.607 792.932H407.77V822.35H412.607V792.932Z" fill="#1A8DAA" fill-opacity="0.06"/>
<path d="M422.136 792.932H417.299V822.35H422.136V792.932Z" fill="#1A8DAA" fill-opacity="0.06"/>
<path d="M432.25 792.932H427.413V822.35H432.25V792.932Z" fill="#1A8DAA" fill-opacity="0.06"/>
<path d="M432.542 792.932H427.705V822.35H432.542V792.932Z" fill="#1A8DAA" fill-opacity="0.06"/>
<path d="M325.321 828.922H320.484V858.34H325.321V828.922Z" fill="#1A8DAA" fill-opacity="0.06"/>
<path d="M315.428 828.922H310.591V858.34H315.428V828.922Z" fill="#1A8DAA" fill-opacity="0.06"/>
<path d="M336.094 828.922H331.257V858.34H336.094V828.922Z" fill="#1A8DAA" fill-opacity="0.06"/>
<path d="M347.092 828.922H342.254V858.34H347.092V828.922Z" fill="#1A8DAA" fill-opacity="0.06"/>
<path d="M358.959 828.922H354.122V858.34H358.959V828.922Z" fill="#1A8DAA" fill-opacity="0.06"/>
<path d="M370.249 828.922H365.411V858.34H370.249V828.922Z" fill="#1A8DAA" fill-opacity="0.06"/>
<path d="M380.359 828.922H375.522V858.34H380.359V828.922Z" fill="#1A8DAA" fill-opacity="0.06"/>
<path d="M390.034 828.922H385.197V858.34H390.034V828.922Z" fill="#1A8DAA" fill-opacity="0.06"/>
<path d="M401.908 828.922H397.071V858.34H401.908V828.922Z" fill="#1A8DAA" fill-opacity="0.06"/>
<path d="M412.607 828.922H407.77V858.34H412.607V828.922Z" fill="#1A8DAA" fill-opacity="0.06"/>
<path d="M422.136 828.922H417.299V858.34H422.136V828.922Z" fill="#1A8DAA" fill-opacity="0.06"/>
<path d="M432.25 828.922H427.413V858.34H432.25V828.922Z" fill="#1A8DAA" fill-opacity="0.06"/>
<path d="M432.542 828.922H427.705V858.34H432.542V828.922Z" fill="#1A8DAA" fill-opacity="0.06"/>
<path d="M325.321 864.911H320.484V894.329H325.321V864.911Z" fill="#1A8DAA" fill-opacity="0.06"/>
<path d="M315.428 864.911H310.591V894.329H315.428V864.911Z" fill="#1A8DAA" fill-opacity="0.06"/>
<path d="M336.094 864.911H331.257V894.329H336.094V864.911Z" fill="#1A8DAA" fill-opacity="0.06"/>
<path d="M347.092 864.911H342.254V894.329H347.092V864.911Z" fill="#1A8DAA" fill-opacity="0.06"/>
<path d="M358.959 864.911H354.122V894.329H358.959V864.911Z" fill="#1A8DAA" fill-opacity="0.06"/>
<path d="M370.249 864.911H365.411V894.329H370.249V864.911Z" fill="#1A8DAA" fill-opacity="0.06"/>
<path d="M380.359 864.911H375.522V894.329H380.359V864.911Z" fill="#1A8DAA" fill-opacity="0.06"/>
<path d="M390.034 864.911H385.197V894.329H390.034V864.911Z" fill="#1A8DAA" fill-opacity="0.06"/>
<path d="M401.908 864.911H397.071V894.329H401.908V864.911Z" fill="#1A8DAA" fill-opacity="0.06"/>
<path d="M412.607 864.911H407.77V894.329H412.607V864.911Z" fill="#1A8DAA" fill-opacity="0.06"/>
<path d="M422.136 864.911H417.299V894.329H422.136V864.911Z" fill="#1A8DAA" fill-opacity="0.06"/>
<path d="M432.25 864.911H427.413V894.329H432.25V864.911Z" fill="#1A8DAA" fill-opacity="0.06"/>
<path d="M432.542 870.168H427.705V899.586H432.542V870.168Z" fill="#1A8DAA" fill-opacity="0.06"/>
<path d="M347.092 906.158H342.254V935.576H347.092V906.158Z" fill="#1A8DAA" fill-opacity="0.06"/>
<path d="M358.959 906.158H354.122V935.576H358.959V906.158Z" fill="#1A8DAA" fill-opacity="0.06"/>
<path d="M370.249 906.158H365.411V935.576H370.249V906.158Z" fill="#1A8DAA" fill-opacity="0.06"/>
<path d="M380.359 906.158H375.522V935.576H380.359V906.158Z" fill="#1A8DAA" fill-opacity="0.06"/>
<path d="M390.034 906.158H385.197V935.576H390.034V906.158Z" fill="#1A8DAA" fill-opacity="0.06"/>
<path d="M401.908 906.158H397.071V935.576H401.908V906.158Z" fill="#1A8DAA" fill-opacity="0.06"/>
</g>
<path d="M235.721 682.354H143.818V1070.96H235.721V682.354Z" fill="#1A8DAA" fill-opacity="0.06"/>
<path d="M227.255 598.404H150.689V695.894H227.255V598.404Z" fill="#1A8DAA" fill-opacity="0.06"/>
<g opacity="0.53">
<path d="M164.632 612.663H160.492V670.335H164.632V612.663Z" fill="#1A8DAA" fill-opacity="0.06"/>
<path d="M173.288 612.663H169.148V670.335H173.288V612.663Z" fill="#1A8DAA" fill-opacity="0.06"/>
<path d="M182.321 612.663H178.181V670.335H182.321V612.663Z" fill="#1A8DAA" fill-opacity="0.06"/>
<path d="M191.728 612.663H187.588V670.335H191.728V612.663Z" fill="#1A8DAA" fill-opacity="0.06"/>
<path d="M200.887 612.663H196.747V670.335H200.887V612.663Z" fill="#1A8DAA" fill-opacity="0.06"/>
<path d="M209.043 612.663H204.903V670.335H209.043V612.663Z" fill="#1A8DAA" fill-opacity="0.06"/>
<path d="M217.699 612.663H213.559V670.335H217.699V612.663Z" fill="#1A8DAA" fill-opacity="0.06"/>
<path d="M164.381 683.216H160.241V740.887H164.381V683.216Z" fill="#1A8DAA" fill-opacity="0.06"/>
<path d="M173.037 683.216H168.896V740.887H173.037V683.216Z" fill="#1A8DAA" fill-opacity="0.06"/>
<path d="M182.321 683.216H178.181V740.887H182.321V683.216Z" fill="#1A8DAA" fill-opacity="0.06"/>
<path d="M191.476 683.216H187.336V740.887H191.476V683.216Z" fill="#1A8DAA" fill-opacity="0.06"/>
<path d="M200.639 683.216H196.498V740.887H200.639V683.216Z" fill="#1A8DAA" fill-opacity="0.06"/>
<path d="M208.788 683.216H204.648V740.887H208.788V683.216Z" fill="#1A8DAA" fill-opacity="0.06"/>
<path d="M217.447 683.216H213.307V740.887H217.447V683.216Z" fill="#1A8DAA" fill-opacity="0.06"/>
<path d="M217.699 683.216H213.559V740.887H217.699V683.216Z" fill="#1A8DAA" fill-opacity="0.06"/>
<path d="M164.381 753.769H160.241V811.44H164.381V753.769Z" fill="#1A8DAA" fill-opacity="0.06"/>
<path d="M173.037 753.769H168.896V811.44H173.037V753.769Z" fill="#1A8DAA" fill-opacity="0.06"/>
<path d="M182.321 753.769H178.181V811.44H182.321V753.769Z" fill="#1A8DAA" fill-opacity="0.06"/>
<path d="M191.476 753.769H187.336V811.44H191.476V753.769Z" fill="#1A8DAA" fill-opacity="0.06"/>
<path d="M200.639 753.769H196.498V811.44H200.639V753.769Z" fill="#1A8DAA" fill-opacity="0.06"/>
<path d="M208.788 753.769H204.648V811.44H208.788V753.769Z" fill="#1A8DAA" fill-opacity="0.06"/>
<path d="M217.447 753.769H213.307V811.44H217.447V753.769Z" fill="#1A8DAA" fill-opacity="0.06"/>
<path d="M217.699 753.769H213.559V811.44H217.699V753.769Z" fill="#1A8DAA" fill-opacity="0.06"/>
<path d="M164.381 824.322H160.241V881.993H164.381V824.322Z" fill="#1A8DAA" fill-opacity="0.06"/>
<path d="M173.037 824.322H168.896V881.993H173.037V824.322Z" fill="#1A8DAA" fill-opacity="0.06"/>
<path d="M182.321 824.322H178.181V881.993H182.321V824.322Z" fill="#1A8DAA" fill-opacity="0.06"/>
<path d="M191.476 824.322H187.336V881.993H191.476V824.322Z" fill="#1A8DAA" fill-opacity="0.06"/>
<path d="M200.639 824.322H196.498V881.993H200.639V824.322Z" fill="#1A8DAA" fill-opacity="0.06"/>
<path d="M208.788 824.322H204.648V881.993H208.788V824.322Z" fill="#1A8DAA" fill-opacity="0.06"/>
<path d="M217.447 824.322H213.307V881.993H217.447V824.322Z" fill="#1A8DAA" fill-opacity="0.06"/>
<path d="M164.381 905.181H160.241V962.852H164.381V905.181Z" fill="#1A8DAA" fill-opacity="0.06"/>
<path d="M173.037 905.181H168.896V962.852H173.037V905.181Z" fill="#1A8DAA" fill-opacity="0.06"/>
<path d="M182.321 905.181H178.181V962.852H182.321V905.181Z" fill="#1A8DAA" fill-opacity="0.06"/>
<path d="M191.476 905.181H187.336V962.852H191.476V905.181Z" fill="#1A8DAA" fill-opacity="0.06"/>
<path d="M200.639 905.181H196.498V962.852H200.639V905.181Z" fill="#1A8DAA" fill-opacity="0.06"/>
<path d="M208.788 905.181H204.648V962.852H208.788V905.181Z" fill="#1A8DAA" fill-opacity="0.06"/>
<path d="M217.447 905.181H213.307V962.852H217.447V905.181Z" fill="#1A8DAA" fill-opacity="0.06"/>
</g>
<path d="M208.969 569.291H172.159V604.327H208.969V569.291Z" fill="#1A8DAA" fill-opacity="0.06"/>
<path d="M194.982 541.365H183.938V576.401H194.982V541.365Z" fill="#1A8DAA" fill-opacity="0.06"/>
<path d="M190.566 501.759H188.971V550.504H190.566V501.759Z" fill="#1A8DAA" fill-opacity="0.06"/>
</g>
<path d="M62.4411 1008.67H0V1239.87H62.4411V1008.67Z" fill="#1A8DAA" fill-opacity="0.06"/>
<path d="M91.4615 1110.27H62.4396V1239.87H91.4615V1110.27Z" fill="#1A8DAA" fill-opacity="0.06"/>
<path d="M185.564 840.952H90.1436V1239.87H185.564V840.952Z" fill="#1A8DAA" fill-opacity="0.06"/>
<path d="M128.837 820.328H85.3043V828.82H128.837V820.328Z" fill="#1A8DAA" fill-opacity="0.06"/>
<path d="M71.6757 1008.36H0V1016.86H71.6757V1008.36Z" fill="#1A8DAA" fill-opacity="0.06"/>
<path d="M123.563 828.821H90.1436V848.837H123.563V828.821Z" fill="#1A8DAA" fill-opacity="0.06"/>
<path d="M230.414 1205.5H174.129V1239.87H230.414V1205.5Z" fill="#1A8DAA" fill-opacity="0.06"/>
<path d="M290.221 1092.07H230.418V1239.87H290.221V1092.07Z" fill="#1A8DAA" fill-opacity="0.06"/>
<path d="M379.924 1239.87H290.22V1006.06L379.924 1003.87V1239.87Z" fill="#1A8DAA" fill-opacity="0.06"/>
<path d="M364.092 978.047H334.631V1024.75H364.092V978.047Z" fill="#1A8DAA" fill-opacity="0.06"/>
<path d="M369.369 972.891H328.034V983.203H369.369V972.891Z" fill="#1A8DAA" fill-opacity="0.06"/>
<path d="M317.483 946.821H313.965V1015.06H317.483V946.821Z" fill="#1A8DAA" fill-opacity="0.06"/>
<path d="M441.193 1110.27H379.045V1239.87H441.193V1110.27Z" fill="#1A8DAA" fill-opacity="0.06"/>
<g opacity="0.46">
<path d="M333.608 1029H329V1043.57H333.608V1029Z" fill="#1A8DAA" fill-opacity="0.06"/>
<path d="M349.068 1029.93H344.46V1044.49H349.068V1029.93Z" fill="#1A8DAA" fill-opacity="0.06"/>
<path d="M363.851 1029H359.243V1043.57H363.851V1029Z" fill="#1A8DAA" fill-opacity="0.06"/>
<path d="M378.254 1029H373.645V1043.57H378.254V1029Z" fill="#1A8DAA" fill-opacity="0.06"/>
<path d="M333.608 1053.37H329V1067.94H333.608V1053.37Z" fill="#1A8DAA" fill-opacity="0.06"/>
<path d="M349.068 1054.3H344.46V1068.86H349.068V1054.3Z" fill="#1A8DAA" fill-opacity="0.06"/>
<path d="M363.851 1053.37H359.243V1067.94H363.851V1053.37Z" fill="#1A8DAA" fill-opacity="0.06"/>
<path d="M378.254 1053.37H373.645V1067.94H378.254V1053.37Z" fill="#1A8DAA" fill-opacity="0.06"/>
<path d="M333.608 1076.41H329V1090.98H333.608V1076.41Z" fill="#1A8DAA" fill-opacity="0.06"/>
<path d="M349.068 1077.34H344.46V1091.91H349.068V1077.34Z" fill="#1A8DAA" fill-opacity="0.06"/>
<path d="M363.851 1076.41H359.243V1090.98H363.851V1076.41Z" fill="#1A8DAA" fill-opacity="0.06"/>
<path d="M378.254 1076.41H373.645V1090.98H378.254V1076.41Z" fill="#1A8DAA" fill-opacity="0.06"/>
</g>
<g opacity="0.52">
<path d="M111.54 885.231H105.483V915.656H111.54V885.231Z" fill="#1A8DAA" fill-opacity="0.06"/>
<path d="M131.859 887.167H125.802V917.592H131.859V887.167Z" fill="#1A8DAA" fill-opacity="0.06"/>
<path d="M151.295 885.231H145.237V915.656H151.295V885.231Z" fill="#1A8DAA" fill-opacity="0.06"/>
<path d="M170.224 885.231H164.167V915.656H170.224V885.231Z" fill="#1A8DAA" fill-opacity="0.06"/>
<path d="M111.54 936.124H105.482V966.549H111.54V936.124Z" fill="#1A8DAA" fill-opacity="0.06"/>
<path d="M131.859 938.059H125.802V968.485H131.859V938.059Z" fill="#1A8DAA" fill-opacity="0.06"/>
<path d="M151.295 936.124H145.237V966.549H151.295V936.124Z" fill="#1A8DAA" fill-opacity="0.06"/>
<path d="M170.224 936.124H164.167V966.549H170.224V936.124Z" fill="#1A8DAA" fill-opacity="0.06"/>
<path d="M111.54 984.251H105.482V1014.68H111.54V984.251Z" fill="#1A8DAA" fill-opacity="0.06"/>
<path d="M131.859 986.188H125.802V1016.61H131.859V986.188Z" fill="#1A8DAA" fill-opacity="0.06"/>
<path d="M151.295 984.251H145.237V1014.68H151.295V984.251Z" fill="#1A8DAA" fill-opacity="0.06"/>
<path d="M170.224 984.251H164.167V1014.68H170.224V984.251Z" fill="#1A8DAA" fill-opacity="0.06"/>
<path d="M111.54 1034.87H105.482V1065.29H111.54V1034.87Z" fill="#1A8DAA" fill-opacity="0.06"/>
<path d="M131.859 1036.8H125.802V1067.23H131.859V1036.8Z" fill="#1A8DAA" fill-opacity="0.06"/>
<path d="M151.295 1034.87H145.237V1065.29H151.295V1034.87Z" fill="#1A8DAA" fill-opacity="0.06"/>
<path d="M170.224 1034.87H164.167V1065.29H170.224V1034.87Z" fill="#1A8DAA" fill-opacity="0.06"/>
<path d="M111.54 1082.99H105.482V1113.42H111.54V1082.99Z" fill="#1A8DAA" fill-opacity="0.06"/>
<path d="M131.859 1084.93H125.802V1115.36H131.859V1084.93Z" fill="#1A8DAA" fill-opacity="0.06"/>
<path d="M151.295 1082.99H145.237V1113.42H151.295V1082.99Z" fill="#1A8DAA" fill-opacity="0.06"/>
<path d="M170.224 1082.99H164.167V1113.42H170.224V1082.99Z" fill="#1A8DAA" fill-opacity="0.06"/>
<path d="M111.54 1129.46H105.482V1159.89H111.54V1129.46Z" fill="#1A8DAA" fill-opacity="0.06"/>
<path d="M131.859 1131.4H125.802V1161.82H131.859V1131.4Z" fill="#1A8DAA" fill-opacity="0.06"/>
<path d="M151.295 1129.46H145.237V1159.89H151.295V1129.46Z" fill="#1A8DAA" fill-opacity="0.06"/>
<path d="M170.224 1129.46H164.167V1159.89H170.224V1129.46Z" fill="#1A8DAA" fill-opacity="0.06"/>
</g>
</svg>
