<svg width="45" height="45" viewBox="0 0 45 45" fill="none" xmlns="http://www.w3.org/2000/svg">
<rect width="45" height="45" rx="2" fill="#CBD8FA"/>
<path fill-rule="evenodd" clip-rule="evenodd" d="M23.3904 11.0001C23.5277 11.0234 23.6655 11.0446 23.8032 11.0658C24.1003 11.1114 24.3973 11.1571 24.6896 11.2239C28.0425 11.9904 30.5988 14.8562 30.9881 18.2723C31.4781 22.5729 28.6397 26.4768 24.4008 27.332C19.8611 28.2479 15.3916 25.1343 14.6703 20.5532C14.0076 16.344 16.6055 12.3558 20.7276 11.2722C21.0198 11.1954 21.3204 11.1507 21.6211 11.1061C21.7646 11.0848 21.908 11.0635 22.0506 11.0387C22.0906 11.0317 22.1303 11.0221 22.1699 11.0125L22.1699 11.0125C22.1875 11.0083 22.205 11.004 22.2226 11L23.3904 11.0001ZM27.0377 18.1218C27.0367 17.683 26.7668 17.4091 26.2831 17.3399L26.076 17.3102L26.0758 17.3102C25.5825 17.2395 25.0893 17.1688 24.5955 17.1021C24.453 17.0828 24.3571 17.0346 24.2896 16.8904C24.1463 16.5845 23.9961 16.2818 23.8459 15.9791L23.8459 15.979L23.8459 15.979C23.7371 15.7596 23.6282 15.5403 23.522 15.3196C23.3769 15.018 23.1592 14.8244 22.814 14.8214C22.4579 14.8182 22.2366 15.0168 22.088 15.3265C21.9799 15.5518 21.8686 15.7756 21.7572 15.9993C21.6123 16.2908 21.4673 16.5822 21.3295 16.8769C21.2594 17.0267 21.1642 17.0838 21.0102 17.1039C20.6916 17.1457 20.3735 17.1912 20.0553 17.2367L20.0553 17.2367C19.8111 17.2716 19.5669 17.3065 19.3226 17.3398C18.9861 17.3855 18.7205 17.5263 18.6119 17.8683C18.505 18.2057 18.6209 18.4779 18.8712 18.7151C19.0939 18.9262 19.3134 19.1407 19.533 19.3551C19.7309 19.5485 19.9289 19.7419 20.1292 19.9329C20.2264 20.0256 20.2549 20.1138 20.23 20.2479C20.1767 20.536 20.1278 20.825 20.079 21.1139L20.079 21.1139C20.0295 21.4072 19.9799 21.7005 19.9256 21.9929C19.8637 22.3267 19.9389 22.6044 20.2162 22.8064C20.5048 23.0165 20.8 22.9777 21.1011 22.8149C21.3468 22.6822 21.5943 22.5528 21.8418 22.4235L21.8418 22.4235C22.1109 22.2829 22.38 22.1423 22.6467 21.9973C22.7669 21.9319 22.8551 21.9352 22.9739 21.9995C23.4883 22.2784 24.0074 22.5485 24.5265 22.8186L24.5266 22.8186L24.5999 22.8568C24.8769 23.001 25.1519 22.9883 25.4032 22.8023C25.6531 22.6171 25.7492 22.3635 25.695 22.0524C25.6545 21.82 25.6153 21.5874 25.5762 21.3548L25.5762 21.3547L25.5761 21.3547C25.5148 20.9903 25.4535 20.6259 25.387 20.2625C25.3614 20.1227 25.3831 20.0284 25.4895 19.9276C25.7997 19.6342 26.1051 19.3356 26.4105 19.037L26.4106 19.0369L26.411 19.0365C26.5335 18.9167 26.656 18.797 26.7787 18.6776C26.9408 18.52 27.0453 18.3368 27.0377 18.1218ZM18.0897 33.9998C17.7646 33.8921 17.5896 33.6589 17.478 33.3401C17.2408 32.6623 16.9934 31.988 16.746 31.3136C16.6562 31.069 16.5665 30.8244 16.4772 30.5796C16.3816 30.3174 16.2635 30.2614 15.9991 30.3572L15.7319 30.4539C14.8656 30.7674 13.9992 31.081 13.1342 31.3984C12.8439 31.5049 12.576 31.4887 12.3339 31.2865C12.0483 31.048 11.9891 30.7157 12.1682 30.3301C12.5215 29.5701 12.8762 28.8107 13.2309 28.0513L13.2312 28.0508L13.2317 28.0497C13.4239 27.6382 13.6162 27.2267 13.8082 26.815C14.0375 26.3235 14.2663 25.8317 14.5013 25.3267L14.7693 24.751C16.3546 26.9607 18.4605 28.3182 21.122 28.8354C21.1108 28.8628 21.1006 28.8885 21.0909 28.913L21.0909 28.913C21.0716 28.9619 21.0541 29.006 21.0341 29.049C20.8433 29.4585 20.652 29.8678 20.4608 30.2771L20.4607 30.2772L20.4607 30.2773C19.9844 31.2966 19.5081 32.3159 19.0387 33.3384C18.9064 33.6267 18.7448 33.8676 18.449 34L18.0897 33.9998ZM26.5745 33.338C26.7068 33.6263 26.8676 33.8679 27.1638 33.9999H27.5234C27.8487 33.8923 28.0235 33.6589 28.1351 33.3401C28.3696 32.6704 28.6143 32.0043 28.8591 31.3381C28.9493 31.0926 29.0395 30.8471 29.1291 30.6013C29.2367 30.3066 29.345 30.2561 29.6364 30.3624C29.8743 30.4491 30.1121 30.5361 30.3498 30.6231C31.0381 30.875 31.7264 31.1268 32.4168 31.3726C32.5676 31.4263 32.7402 31.4697 32.895 31.4519C33.438 31.3896 33.688 30.8498 33.4366 30.3093C32.6025 28.5167 31.7662 26.7251 30.93 24.9335L30.926 24.9248C30.91 24.8906 30.8901 24.8583 30.8678 24.8223C30.8566 24.804 30.8447 24.7849 30.8325 24.764C29.2522 26.9705 27.1406 28.323 24.4867 28.8398C24.4997 28.8693 24.5113 28.896 24.522 28.9206C24.5429 28.9686 24.5605 29.0091 24.5791 29.0491C24.7589 29.4346 24.939 29.8199 25.1191 30.2052C25.6066 31.2484 26.0941 32.2915 26.5745 33.338Z" fill="#0F53FF"/>
</svg>
