<svg width="25" height="24" viewBox="0 0 25 24" fill="none" xmlns="http://www.w3.org/2000/svg">
<g clip-path="url(#clip0_98_10)">
<path d="M12.0728 0.298828C8.79131 0.298828 8.38235 0.314013 7.09813 0.366076C5.80862 0.426816 4.93638 0.618437 4.16675 0.904784C3.36125 1.19621 2.63177 1.65248 2.02915 2.24179C1.4125 2.81795 0.936125 3.51743 0.634011 4.29033C0.335214 5.02789 0.135262 5.86379 0.0718809 7.09956C0.0137816 8.331 0.00170898 8.72219 0.00170898 11.8669C0.00170898 15.0117 0.0175543 15.4036 0.0718809 16.6343C0.135262 17.8665 0.335214 18.706 0.634011 19.4436C0.938104 20.2155 1.41421 20.9146 2.02915 21.4921C2.63036 22.0831 3.36025 22.5396 4.16675 22.8291C4.93638 23.1118 5.8124 23.3071 7.09813 23.3678C8.3831 23.4235 8.79131 23.4351 12.0728 23.4351C15.3543 23.4351 15.7632 23.4199 17.0474 23.3678C18.3332 23.3071 19.2092 23.1111 19.9788 22.8291C20.7843 22.5377 21.5138 22.0814 22.1164 21.4921C22.7339 20.9166 23.2104 20.2169 23.5116 19.4436C23.8066 18.706 24.0103 17.8665 24.0737 16.6343C24.1318 15.4029 24.1439 15.0117 24.1439 11.8669C24.1439 8.72219 24.128 8.33027 24.0737 7.09956C24.0103 5.8674 23.8058 5.02355 23.5116 4.29033C23.2075 3.51839 22.7314 2.8193 22.1164 2.24179C21.5159 1.65007 20.7858 1.19343 19.9788 0.904784C19.2092 0.618437 18.3332 0.426816 17.0474 0.366076C15.7625 0.310398 15.3543 0.298828 12.0728 0.298828ZM12.0728 2.38135C15.2954 2.38135 15.6802 2.39653 16.9539 2.4486C18.1287 2.50138 18.7685 2.68939 19.1933 2.84847C19.7185 3.03425 20.1939 3.32994 20.5847 3.71402C20.9848 4.08701 21.2922 4.54149 21.4841 5.04379C21.6501 5.4509 21.8463 6.06409 21.9014 7.18995C21.9557 8.41054 21.9716 8.78004 21.9716 11.8677C21.9716 14.9553 21.9557 15.3248 21.8969 16.5454C21.8335 17.6712 21.6373 18.2844 21.472 18.6915C21.2434 19.2346 20.9884 19.6142 20.5674 20.0249C20.1752 20.4066 19.7002 20.7009 19.176 20.8869C18.7565 21.0459 18.1076 21.2339 16.9282 21.2867C15.6478 21.3388 15.2705 21.354 12.0396 21.354C8.80866 21.354 8.43215 21.3388 7.15019 21.2824C5.97538 21.2217 5.32723 21.0336 4.90242 20.8753C4.32898 20.6562 3.93586 20.4118 3.51483 20.0083C3.09003 19.6012 2.8199 19.2136 2.61165 18.6749C2.44263 18.2729 2.24947 17.651 2.18685 16.5208C2.14384 15.3082 2.12347 14.9322 2.12347 11.8503C2.12347 8.76992 2.14384 8.39318 2.18685 7.16536C2.24947 6.03516 2.44263 5.41474 2.61165 5.01126C2.8199 4.46098 3.09078 4.08497 3.51483 3.67786C3.93511 3.2751 4.32898 3.01478 4.90242 2.81087C5.32723 2.65251 5.95953 2.46451 7.13887 2.4081C8.41932 2.36399 8.79659 2.34809 12.023 2.34809L12.0728 2.38135ZM12.0728 5.92959C11.2589 5.9293 10.4529 6.08272 9.70094 6.38107C8.94895 6.67942 8.26568 7.11686 7.69018 7.66839C7.11467 8.21991 6.65821 8.87471 6.34689 9.59537C6.03557 10.316 5.87548 11.0884 5.87578 11.8684C5.87548 12.6484 6.03557 13.4207 6.34689 14.1414C6.65821 14.8621 7.11467 15.5169 7.69018 16.0684C8.26568 16.6199 8.94895 17.0574 9.70094 17.3557C10.4529 17.6541 11.2589 17.8075 12.0728 17.8072C12.8867 17.8075 13.6926 17.6541 14.4446 17.3557C15.1966 17.0574 15.8799 16.6199 16.4554 16.0684C17.0309 15.5169 17.4874 14.8621 17.7987 14.1414C18.11 13.4207 18.2701 12.6484 18.2698 11.8684C18.2701 11.0884 18.11 10.316 17.7987 9.59537C17.4874 8.87471 17.0309 8.21991 16.4554 7.66839C15.8799 7.11686 15.1966 6.67942 14.4446 6.38107C13.6926 6.08272 12.8867 5.9293 12.0728 5.92959ZM12.0728 15.7247C9.84841 15.7247 8.04884 14.0001 8.04884 11.8684C8.04884 9.7367 9.84841 8.01211 12.0728 8.01211C14.2972 8.01211 16.0967 9.7367 16.0967 11.8684C16.0967 14.0001 14.2972 15.7247 12.0728 15.7247ZM19.9683 5.69241C19.9679 6.06095 19.8148 6.41426 19.5427 6.67472C19.2707 6.93518 18.9018 7.08148 18.5173 7.08148C18.3271 7.08148 18.1388 7.04559 17.9632 6.97586C17.7875 6.90612 17.6279 6.80391 17.4934 6.67506C17.359 6.5462 17.2523 6.39323 17.1795 6.22488C17.1068 6.05653 17.0693 5.87608 17.0693 5.69386C17.0693 5.51163 17.1068 5.33119 17.1795 5.16284C17.2523 4.99448 17.359 4.84151 17.4934 4.71266C17.6279 4.58381 17.7875 4.4816 17.9632 4.41186C18.1388 4.34213 18.3271 4.30623 18.5173 4.30623C19.3148 4.30623 19.9683 4.9281 19.9683 5.69241Z" fill="#7B8290"/>
</g>
<defs>
<clipPath id="clip0_98_10">
<rect width="24.1452" height="23.1391" fill="white" transform="translate(0 0.298828)"/>
</clipPath>
</defs>
</svg>
