<svg width="45" height="45" viewBox="0 0 45 45" fill="none" xmlns="http://www.w3.org/2000/svg">
<rect width="45" height="45" rx="2" fill="#FAD6CB"/>
<path d="M34 22C34 24.9174 32.8411 27.7153 30.7782 29.7782C28.7153 31.8411 25.9174 33 23 33C20.0826 33 17.2847 31.8411 15.2218 29.7782C13.1589 27.7153 12 24.9174 12 22C12 19.0826 13.1589 16.2847 15.2218 14.2218C17.2847 12.1589 20.0826 11 23 11C25.9174 11 28.7153 12.1589 30.7782 14.2218C32.8411 16.2847 34 19.0826 34 22ZM23 15.8125C23 15.6302 22.9276 15.4553 22.7986 15.3264C22.6697 15.1974 22.4948 15.125 22.3125 15.125C22.1302 15.125 21.9553 15.1974 21.8264 15.3264C21.6974 15.4553 21.625 15.6302 21.625 15.8125V23.375C21.625 23.4962 21.6571 23.6152 21.718 23.72C21.7788 23.8248 21.8663 23.9116 21.9715 23.9718L26.784 26.7218C26.9419 26.8071 27.127 26.8273 27.2996 26.778C27.4722 26.7287 27.6187 26.6139 27.7078 26.458C27.7969 26.3022 27.8214 26.1176 27.7762 25.9439C27.7311 25.7702 27.6197 25.621 27.466 25.5282L23 22.9762V15.8125Z" fill="#CC3533"/>
</svg>
