<svg width="1547" height="623" viewBox="0 0 1547 623" fill="none" xmlns="http://www.w3.org/2000/svg">
<path d="M715 416.075L762 405L739.656 440L715 416.075Z" fill="#FFC700"/>
<path d="M724 425.032L727.979 438V428.07L762 405L724 425.032Z" fill="#FF9900"/>
<path d="M732.5 432.5L728 438V428L732.5 432.5Z" fill="#C96000"/>
<g clip-path="url(#clip0_5_531)">
<path fill-rule="evenodd" clip-rule="evenodd" d="M2.43182 118.145C3.07678 118.145 3.69532 118.401 4.15137 118.856C4.60743 119.311 4.86364 119.929 4.86364 120.572C4.86364 121.216 4.60743 121.834 4.15137 122.289C3.69532 122.744 3.07678 123 2.43182 123C1.78686 123 1.16832 122.744 0.712263 122.289C0.256209 121.834 0 121.216 0 120.572C0 119.929 0.256209 119.311 0.712263 118.856C1.16832 118.401 1.78686 118.145 2.43182 118.145ZM21.8864 118.145C22.5313 118.145 23.1499 118.401 23.6059 118.856C24.062 119.311 24.3182 119.929 24.3182 120.572C24.3182 121.216 24.062 121.834 23.6059 122.289C23.1499 122.744 22.5313 123 21.8864 123C21.2414 123 20.6229 122.744 20.1668 122.289C19.7108 121.834 19.4545 121.216 19.4545 120.572C19.4545 119.929 19.7108 119.311 20.1668 118.856C20.6229 118.401 21.2414 118.145 21.8864 118.145ZM42.9621 118.145C43.6071 118.145 44.2256 118.401 44.6817 118.856C45.1377 119.311 45.3939 119.929 45.3939 120.572C45.3939 121.216 45.1377 121.834 44.6817 122.289C44.2256 122.744 43.6071 123 42.9621 123C42.3172 123 41.6986 122.744 41.2426 122.289C40.7865 121.834 40.5303 121.216 40.5303 120.572C40.5303 119.929 40.7865 119.311 41.2426 118.856C41.6986 118.401 42.3172 118.145 42.9621 118.145ZM64.0379 118.145C64.6828 118.145 65.3014 118.401 65.7574 118.856C66.2135 119.311 66.4697 119.929 66.4697 120.572C66.4697 121.216 66.2135 121.834 65.7574 122.289C65.3014 122.744 64.6828 123 64.0379 123C63.3929 123 62.7744 122.744 62.3183 122.289C61.8623 121.834 61.6061 121.216 61.6061 120.572C61.6061 119.929 61.8623 119.311 62.3183 118.856C62.7744 118.401 63.3929 118.145 64.0379 118.145ZM85.1136 118.145C85.7586 118.145 86.3771 118.401 86.8332 118.856C87.2892 119.311 87.5455 119.929 87.5455 120.572C87.5455 121.216 87.2892 121.834 86.8332 122.289C86.3771 122.744 85.7586 123 85.1136 123C84.4687 123 83.8501 122.744 83.3941 122.289C82.938 121.834 82.6818 121.216 82.6818 120.572C82.6818 119.929 82.938 119.311 83.3941 118.856C83.8501 118.401 84.4687 118.145 85.1136 118.145ZM104.568 118.145C105.213 118.145 105.832 118.401 106.288 118.856C106.744 119.311 107 119.929 107 120.572C107 121.216 106.744 121.834 106.288 122.289C105.832 122.744 105.213 123 104.568 123C103.923 123 103.305 122.744 102.849 122.289C102.393 121.834 102.136 121.216 102.136 120.572C102.136 119.929 102.393 119.311 102.849 118.856C103.305 118.401 103.923 118.145 104.568 118.145ZM2.43182 101.961C3.07678 101.961 3.69532 102.216 4.15137 102.672C4.60743 103.127 4.86364 103.744 4.86364 104.388C4.86364 105.032 4.60743 105.649 4.15137 106.105C3.69532 106.56 3.07678 106.816 2.43182 106.816C1.78686 106.816 1.16832 106.56 0.712263 106.105C0.256209 105.649 0 105.032 0 104.388C0 103.744 0.256209 103.127 0.712263 102.672C1.16832 102.216 1.78686 101.961 2.43182 101.961ZM21.8864 101.961C22.5313 101.961 23.1499 102.216 23.6059 102.672C24.062 103.127 24.3182 103.744 24.3182 104.388C24.3182 105.032 24.062 105.649 23.6059 106.105C23.1499 106.56 22.5313 106.816 21.8864 106.816C21.2414 106.816 20.6229 106.56 20.1668 106.105C19.7108 105.649 19.4545 105.032 19.4545 104.388C19.4545 103.744 19.7108 103.127 20.1668 102.672C20.6229 102.216 21.2414 101.961 21.8864 101.961ZM42.9621 101.961C43.6071 101.961 44.2256 102.216 44.6817 102.672C45.1377 103.127 45.3939 103.744 45.3939 104.388C45.3939 105.032 45.1377 105.649 44.6817 106.105C44.2256 106.56 43.6071 106.816 42.9621 106.816C42.3172 106.816 41.6986 106.56 41.2426 106.105C40.7865 105.649 40.5303 105.032 40.5303 104.388C40.5303 103.744 40.7865 103.127 41.2426 102.672C41.6986 102.216 42.3172 101.961 42.9621 101.961ZM64.0379 101.961C64.6828 101.961 65.3014 102.216 65.7574 102.672C66.2135 103.127 66.4697 103.744 66.4697 104.388C66.4697 105.032 66.2135 105.649 65.7574 106.105C65.3014 106.56 64.6828 106.816 64.0379 106.816C63.3929 106.816 62.7744 106.56 62.3183 106.105C61.8623 105.649 61.6061 105.032 61.6061 104.388C61.6061 103.744 61.8623 103.127 62.3183 102.672C62.7744 102.216 63.3929 101.961 64.0379 101.961ZM85.1136 101.961C85.7586 101.961 86.3771 102.216 86.8332 102.672C87.2892 103.127 87.5455 103.744 87.5455 104.388C87.5455 105.032 87.2892 105.649 86.8332 106.105C86.3771 106.56 85.7586 106.816 85.1136 106.816C84.4687 106.816 83.8501 106.56 83.3941 106.105C82.938 105.649 82.6818 105.032 82.6818 104.388C82.6818 103.744 82.938 103.127 83.3941 102.672C83.8501 102.216 84.4687 101.961 85.1136 101.961ZM104.568 101.961C105.213 101.961 105.832 102.216 106.288 102.672C106.744 103.127 107 103.744 107 104.388C107 105.032 106.744 105.649 106.288 106.105C105.832 106.56 105.213 106.816 104.568 106.816C103.923 106.816 103.305 106.56 102.849 106.105C102.393 105.649 102.136 105.032 102.136 104.388C102.136 103.744 102.393 103.127 102.849 102.672C103.305 102.216 103.923 101.961 104.568 101.961ZM2.43182 84.1579C3.07678 84.1579 3.69532 84.4137 4.15137 84.8689C4.60743 85.3242 4.86364 85.9417 4.86364 86.5855C4.86364 87.2294 4.60743 87.8469 4.15137 88.3021C3.69532 88.7574 3.07678 89.0132 2.43182 89.0132C1.78686 89.0132 1.16832 88.7574 0.712263 88.3021C0.256209 87.8469 0 87.2294 0 86.5855C0 85.9417 0.256209 85.3242 0.712263 84.8689C1.16832 84.4137 1.78686 84.1579 2.43182 84.1579ZM21.8864 84.1579C22.5313 84.1579 23.1499 84.4137 23.6059 84.8689C24.062 85.3242 24.3182 85.9417 24.3182 86.5855C24.3182 87.2294 24.062 87.8469 23.6059 88.3021C23.1499 88.7574 22.5313 89.0132 21.8864 89.0132C21.2414 89.0132 20.6229 88.7574 20.1668 88.3021C19.7108 87.8469 19.4545 87.2294 19.4545 86.5855C19.4545 85.9417 19.7108 85.3242 20.1668 84.8689C20.6229 84.4137 21.2414 84.1579 21.8864 84.1579ZM42.9621 84.1579C43.6071 84.1579 44.2256 84.4137 44.6817 84.8689C45.1377 85.3242 45.3939 85.9417 45.3939 86.5855C45.3939 87.2294 45.1377 87.8469 44.6817 88.3021C44.2256 88.7574 43.6071 89.0132 42.9621 89.0132C42.3172 89.0132 41.6986 88.7574 41.2426 88.3021C40.7865 87.8469 40.5303 87.2294 40.5303 86.5855C40.5303 85.9417 40.7865 85.3242 41.2426 84.8689C41.6986 84.4137 42.3172 84.1579 42.9621 84.1579ZM64.0379 84.1579C64.6828 84.1579 65.3014 84.4137 65.7574 84.8689C66.2135 85.3242 66.4697 85.9417 66.4697 86.5855C66.4697 87.2294 66.2135 87.8469 65.7574 88.3021C65.3014 88.7574 64.6828 89.0132 64.0379 89.0132C63.3929 89.0132 62.7744 88.7574 62.3183 88.3021C61.8623 87.8469 61.6061 87.2294 61.6061 86.5855C61.6061 85.9417 61.8623 85.3242 62.3183 84.8689C62.7744 84.4137 63.3929 84.1579 64.0379 84.1579ZM85.1136 84.1579C85.7586 84.1579 86.3771 84.4137 86.8332 84.8689C87.2892 85.3242 87.5455 85.9417 87.5455 86.5855C87.5455 87.2294 87.2892 87.8469 86.8332 88.3021C86.3771 88.7574 85.7586 89.0132 85.1136 89.0132C84.4687 89.0132 83.8501 88.7574 83.3941 88.3021C82.938 87.8469 82.6818 87.2294 82.6818 86.5855C82.6818 85.9417 82.938 85.3242 83.3941 84.8689C83.8501 84.4137 84.4687 84.1579 85.1136 84.1579ZM104.568 84.1579C105.213 84.1579 105.832 84.4137 106.288 84.8689C106.744 85.3242 107 85.9417 107 86.5855C107 87.2294 106.744 87.8469 106.288 88.3021C105.832 88.7574 105.213 89.0132 104.568 89.0132C103.923 89.0132 103.305 88.7574 102.849 88.3021C102.393 87.8469 102.136 87.2294 102.136 86.5855C102.136 85.9417 102.393 85.3242 102.849 84.8689C103.305 84.4137 103.923 84.1579 104.568 84.1579ZM2.43182 67.9737C3.07678 67.9737 3.69532 68.2295 4.15137 68.6847C4.60743 69.14 4.86364 69.7575 4.86364 70.4013C4.86364 71.0452 4.60743 71.6626 4.15137 72.1179C3.69532 72.5732 3.07678 72.8289 2.43182 72.8289C1.78686 72.8289 1.16832 72.5732 0.712263 72.1179C0.256209 71.6626 0 71.0452 0 70.4013C0 69.7575 0.256209 69.14 0.712263 68.6847C1.16832 68.2295 1.78686 67.9737 2.43182 67.9737ZM21.8864 67.9737C22.5313 67.9737 23.1499 68.2295 23.6059 68.6847C24.062 69.14 24.3182 69.7575 24.3182 70.4013C24.3182 71.0452 24.062 71.6626 23.6059 72.1179C23.1499 72.5732 22.5313 72.8289 21.8864 72.8289C21.2414 72.8289 20.6229 72.5732 20.1668 72.1179C19.7108 71.6626 19.4545 71.0452 19.4545 70.4013C19.4545 69.7575 19.7108 69.14 20.1668 68.6847C20.6229 68.2295 21.2414 67.9737 21.8864 67.9737ZM42.9621 67.9737C43.6071 67.9737 44.2256 68.2295 44.6817 68.6847C45.1377 69.14 45.3939 69.7575 45.3939 70.4013C45.3939 71.0452 45.1377 71.6626 44.6817 72.1179C44.2256 72.5732 43.6071 72.8289 42.9621 72.8289C42.3172 72.8289 41.6986 72.5732 41.2426 72.1179C40.7865 71.6626 40.5303 71.0452 40.5303 70.4013C40.5303 69.7575 40.7865 69.14 41.2426 68.6847C41.6986 68.2295 42.3172 67.9737 42.9621 67.9737ZM64.0379 67.9737C64.6828 67.9737 65.3014 68.2295 65.7574 68.6847C66.2135 69.14 66.4697 69.7575 66.4697 70.4013C66.4697 71.0452 66.2135 71.6626 65.7574 72.1179C65.3014 72.5732 64.6828 72.8289 64.0379 72.8289C63.3929 72.8289 62.7744 72.5732 62.3183 72.1179C61.8623 71.6626 61.6061 71.0452 61.6061 70.4013C61.6061 69.7575 61.8623 69.14 62.3183 68.6847C62.7744 68.2295 63.3929 67.9737 64.0379 67.9737ZM85.1136 67.9737C85.7586 67.9737 86.3771 68.2295 86.8332 68.6847C87.2892 69.14 87.5455 69.7575 87.5455 70.4013C87.5455 71.0452 87.2892 71.6626 86.8332 72.1179C86.3771 72.5732 85.7586 72.8289 85.1136 72.8289C84.4687 72.8289 83.8501 72.5732 83.3941 72.1179C82.938 71.6626 82.6818 71.0452 82.6818 70.4013C82.6818 69.7575 82.938 69.14 83.3941 68.6847C83.8501 68.2295 84.4687 67.9737 85.1136 67.9737ZM104.568 67.9737C105.213 67.9737 105.832 68.2295 106.288 68.6847C106.744 69.14 107 69.7575 107 70.4013C107 71.0452 106.744 71.6626 106.288 72.1179C105.832 72.5732 105.213 72.8289 104.568 72.8289C103.923 72.8289 103.305 72.5732 102.849 72.1179C102.393 71.6626 102.136 71.0452 102.136 70.4013C102.136 69.7575 102.393 69.14 102.849 68.6847C103.305 68.2295 103.923 67.9737 104.568 67.9737ZM42.9621 50.1711C43.6071 50.1711 44.2256 50.4268 44.6817 50.8821C45.1377 51.3374 45.3939 51.9548 45.3939 52.5987C45.3939 53.2425 45.1377 53.86 44.6817 54.3153C44.2256 54.7705 43.6071 55.0263 42.9621 55.0263C42.3172 55.0263 41.6986 54.7705 41.2426 54.3153C40.7865 53.86 40.5303 53.2425 40.5303 52.5987C40.5303 51.9548 40.7865 51.3374 41.2426 50.8821C41.6986 50.4268 42.3172 50.1711 42.9621 50.1711ZM21.8864 50.1711C22.5313 50.1711 23.1499 50.4268 23.6059 50.8821C24.062 51.3374 24.3182 51.9548 24.3182 52.5987C24.3182 53.2425 24.062 53.86 23.6059 54.3153C23.1499 54.7705 22.5313 55.0263 21.8864 55.0263C21.2414 55.0263 20.6229 54.7705 20.1668 54.3153C19.7108 53.86 19.4545 53.2425 19.4545 52.5987C19.4545 51.9548 19.7108 51.3374 20.1668 50.8821C20.6229 50.4268 21.2414 50.1711 21.8864 50.1711ZM2.43182 50.1711C3.07678 50.1711 3.69532 50.4268 4.15137 50.8821C4.60743 51.3374 4.86364 51.9548 4.86364 52.5987C4.86364 53.2425 4.60743 53.86 4.15137 54.3153C3.69532 54.7705 3.07678 55.0263 2.43182 55.0263C1.78686 55.0263 1.16832 54.7705 0.712263 54.3153C0.256209 53.86 0 53.2425 0 52.5987C0 51.9548 0.256209 51.3374 0.712263 50.8821C1.16832 50.4268 1.78686 50.1711 2.43182 50.1711ZM104.568 50.1711C105.213 50.1711 105.832 50.4268 106.288 50.8821C106.744 51.3374 107 51.9548 107 52.5987C107 53.2425 106.744 53.86 106.288 54.3153C105.832 54.7705 105.213 55.0263 104.568 55.0263C103.923 55.0263 103.305 54.7705 102.849 54.3153C102.393 53.86 102.136 53.2425 102.136 52.5987C102.136 51.9548 102.393 51.3374 102.849 50.8821C103.305 50.4268 103.923 50.1711 104.568 50.1711ZM85.1136 50.1711C85.7586 50.1711 86.3771 50.4268 86.8332 50.8821C87.2892 51.3374 87.5455 51.9548 87.5455 52.5987C87.5455 53.2425 87.2892 53.86 86.8332 54.3153C86.3771 54.7705 85.7586 55.0263 85.1136 55.0263C84.4687 55.0263 83.8501 54.7705 83.3941 54.3153C82.938 53.86 82.6818 53.2425 82.6818 52.5987C82.6818 51.9548 82.938 51.3374 83.3941 50.8821C83.8501 50.4268 84.4687 50.1711 85.1136 50.1711ZM64.0379 50.1711C64.6828 50.1711 65.3014 50.4268 65.7574 50.8821C66.2135 51.3374 66.4697 51.9548 66.4697 52.5987C66.4697 53.2425 66.2135 53.86 65.7574 54.3153C65.3014 54.7705 64.6828 55.0263 64.0379 55.0263C63.3929 55.0263 62.7744 54.7705 62.3183 54.3153C61.8623 53.86 61.6061 53.2425 61.6061 52.5987C61.6061 51.9548 61.8623 51.3374 62.3183 50.8821C62.7744 50.4268 63.3929 50.1711 64.0379 50.1711ZM42.9621 33.9868C43.6071 33.9868 44.2256 34.2426 44.6817 34.6979C45.1377 35.1531 45.3939 35.7706 45.3939 36.4145C45.3939 37.0583 45.1377 37.6758 44.6817 38.1311C44.2256 38.5863 43.6071 38.8421 42.9621 38.8421C42.3172 38.8421 41.6986 38.5863 41.2426 38.1311C40.7865 37.6758 40.5303 37.0583 40.5303 36.4145C40.5303 35.7706 40.7865 35.1531 41.2426 34.6979C41.6986 34.2426 42.3172 33.9868 42.9621 33.9868ZM85.1136 33.9868C85.7586 33.9868 86.3771 34.2426 86.8332 34.6979C87.2892 35.1531 87.5455 35.7706 87.5455 36.4145C87.5455 37.0583 87.2892 37.6758 86.8332 38.1311C86.3771 38.5863 85.7586 38.8421 85.1136 38.8421C84.4687 38.8421 83.8501 38.5863 83.3941 38.1311C82.938 37.6758 82.6818 37.0583 82.6818 36.4145C82.6818 35.7706 82.938 35.1531 83.3941 34.6979C83.8501 34.2426 84.4687 33.9868 85.1136 33.9868ZM104.568 33.9868C105.213 33.9868 105.832 34.2426 106.288 34.6979C106.744 35.1531 107 35.7706 107 36.4145C107 37.0583 106.744 37.6758 106.288 38.1311C105.832 38.5863 105.213 38.8421 104.568 38.8421C103.923 38.8421 103.305 38.5863 102.849 38.1311C102.393 37.6758 102.136 37.0583 102.136 36.4145C102.136 35.7706 102.393 35.1531 102.849 34.6979C103.305 34.2426 103.923 33.9868 104.568 33.9868ZM21.8864 33.9868C22.5313 33.9868 23.1499 34.2426 23.6059 34.6979C24.062 35.1531 24.3182 35.7706 24.3182 36.4145C24.3182 37.0583 24.062 37.6758 23.6059 38.1311C23.1499 38.5863 22.5313 38.8421 21.8864 38.8421C21.2414 38.8421 20.6229 38.5863 20.1668 38.1311C19.7108 37.6758 19.4545 37.0583 19.4545 36.4145C19.4545 35.7706 19.7108 35.1531 20.1668 34.6979C20.6229 34.2426 21.2414 33.9868 21.8864 33.9868ZM64.0379 33.9868C64.6828 33.9868 65.3014 34.2426 65.7574 34.6979C66.2135 35.1531 66.4697 35.7706 66.4697 36.4145C66.4697 37.0583 66.2135 37.6758 65.7574 38.1311C65.3014 38.5863 64.6828 38.8421 64.0379 38.8421C63.3929 38.8421 62.7744 38.5863 62.3183 38.1311C61.8623 37.6758 61.6061 37.0583 61.6061 36.4145C61.6061 35.7706 61.8623 35.1531 62.3183 34.6979C62.7744 34.2426 63.3929 33.9868 64.0379 33.9868ZM2.43182 33.9868C3.07678 33.9868 3.69532 34.2426 4.15137 34.6979C4.60743 35.1531 4.86364 35.7706 4.86364 36.4145C4.86364 37.0583 4.60743 37.6758 4.15137 38.1311C3.69532 38.5863 3.07678 38.8421 2.43182 38.8421C1.78686 38.8421 1.16832 38.5863 0.712263 38.1311C0.256209 37.6758 0 37.0583 0 36.4145C0 35.7706 0.256209 35.1531 0.712263 34.6979C1.16832 34.2426 1.78686 33.9868 2.43182 33.9868ZM2.43182 16.1842C3.07678 16.1842 3.69532 16.44 4.15137 16.8952C4.60743 17.3505 4.86364 17.968 4.86364 18.6118C4.86364 19.2557 4.60743 19.8732 4.15137 20.3284C3.69532 20.7837 3.07678 21.0395 2.43182 21.0395C1.78686 21.0395 1.16832 20.7837 0.712263 20.3284C0.256209 19.8732 0 19.2557 0 18.6118C0 17.968 0.256209 17.3505 0.712263 16.8952C1.16832 16.44 1.78686 16.1842 2.43182 16.1842ZM21.8864 16.1842C22.5313 16.1842 23.1499 16.44 23.6059 16.8952C24.062 17.3505 24.3182 17.968 24.3182 18.6118C24.3182 19.2557 24.062 19.8732 23.6059 20.3284C23.1499 20.7837 22.5313 21.0395 21.8864 21.0395C21.2414 21.0395 20.6229 20.7837 20.1668 20.3284C19.7108 19.8732 19.4545 19.2557 19.4545 18.6118C19.4545 17.968 19.7108 17.3505 20.1668 16.8952C20.6229 16.44 21.2414 16.1842 21.8864 16.1842ZM42.9621 16.1842C43.6071 16.1842 44.2256 16.44 44.6817 16.8952C45.1377 17.3505 45.3939 17.968 45.3939 18.6118C45.3939 19.2557 45.1377 19.8732 44.6817 20.3284C44.2256 20.7837 43.6071 21.0395 42.9621 21.0395C42.3172 21.0395 41.6986 20.7837 41.2426 20.3284C40.7865 19.8732 40.5303 19.2557 40.5303 18.6118C40.5303 17.968 40.7865 17.3505 41.2426 16.8952C41.6986 16.44 42.3172 16.1842 42.9621 16.1842ZM64.0379 16.1842C64.6828 16.1842 65.3014 16.44 65.7574 16.8952C66.2135 17.3505 66.4697 17.968 66.4697 18.6118C66.4697 19.2557 66.2135 19.8732 65.7574 20.3284C65.3014 20.7837 64.6828 21.0395 64.0379 21.0395C63.3929 21.0395 62.7744 20.7837 62.3183 20.3284C61.8623 19.8732 61.6061 19.2557 61.6061 18.6118C61.6061 17.968 61.8623 17.3505 62.3183 16.8952C62.7744 16.44 63.3929 16.1842 64.0379 16.1842ZM85.1136 16.1842C85.7586 16.1842 86.3771 16.44 86.8332 16.8952C87.2892 17.3505 87.5455 17.968 87.5455 18.6118C87.5455 19.2557 87.2892 19.8732 86.8332 20.3284C86.3771 20.7837 85.7586 21.0395 85.1136 21.0395C84.4687 21.0395 83.8501 20.7837 83.3941 20.3284C82.938 19.8732 82.6818 19.2557 82.6818 18.6118C82.6818 17.968 82.938 17.3505 83.3941 16.8952C83.8501 16.44 84.4687 16.1842 85.1136 16.1842ZM104.568 16.1842C105.213 16.1842 105.832 16.44 106.288 16.8952C106.744 17.3505 107 17.968 107 18.6118C107 19.2557 106.744 19.8732 106.288 20.3284C105.832 20.7837 105.213 21.0395 104.568 21.0395C103.923 21.0395 103.305 20.7837 102.849 20.3284C102.393 19.8732 102.136 19.2557 102.136 18.6118C102.136 17.968 102.393 17.3505 102.849 16.8952C103.305 16.44 103.923 16.1842 104.568 16.1842ZM2.43182 0C3.07678 0 3.69532 0.255768 4.15137 0.711037C4.60743 1.16631 4.86364 1.78378 4.86364 2.42763C4.86364 3.07148 4.60743 3.68896 4.15137 4.14423C3.69532 4.5995 3.07678 4.85526 2.43182 4.85526C1.78686 4.85526 1.16832 4.5995 0.712263 4.14423C0.256209 3.68896 0 3.07148 0 2.42763C0 1.78378 0.256209 1.16631 0.712263 0.711037C1.16832 0.255768 1.78686 0 2.43182 0ZM21.8864 0C22.5313 0 23.1499 0.255768 23.6059 0.711037C24.062 1.16631 24.3182 1.78378 24.3182 2.42763C24.3182 3.07148 24.062 3.68896 23.6059 4.14423C23.1499 4.5995 22.5313 4.85526 21.8864 4.85526C21.2414 4.85526 20.6229 4.5995 20.1668 4.14423C19.7108 3.68896 19.4545 3.07148 19.4545 2.42763C19.4545 1.78378 19.7108 1.16631 20.1668 0.711037C20.6229 0.255768 21.2414 0 21.8864 0ZM42.9621 0C43.6071 0 44.2256 0.255768 44.6817 0.711037C45.1377 1.16631 45.3939 1.78378 45.3939 2.42763C45.3939 3.07148 45.1377 3.68896 44.6817 4.14423C44.2256 4.5995 43.6071 4.85526 42.9621 4.85526C42.3172 4.85526 41.6986 4.5995 41.2426 4.14423C40.7865 3.68896 40.5303 3.07148 40.5303 2.42763C40.5303 1.78378 40.7865 1.16631 41.2426 0.711037C41.6986 0.255768 42.3172 0 42.9621 0ZM64.0379 0C64.6828 0 65.3014 0.255768 65.7574 0.711037C66.2135 1.16631 66.4697 1.78378 66.4697 2.42763C66.4697 3.07148 66.2135 3.68896 65.7574 4.14423C65.3014 4.5995 64.6828 4.85526 64.0379 4.85526C63.3929 4.85526 62.7744 4.5995 62.3183 4.14423C61.8623 3.68896 61.6061 3.07148 61.6061 2.42763C61.6061 1.78378 61.8623 1.16631 62.3183 0.711037C62.7744 0.255768 63.3929 0 64.0379 0ZM85.1136 0C85.7586 0 86.3771 0.255768 86.8332 0.711037C87.2892 1.16631 87.5455 1.78378 87.5455 2.42763C87.5455 3.07148 87.2892 3.68896 86.8332 4.14423C86.3771 4.5995 85.7586 4.85526 85.1136 4.85526C84.4687 4.85526 83.8501 4.5995 83.3941 4.14423C82.938 3.68896 82.6818 3.07148 82.6818 2.42763C82.6818 1.78378 82.938 1.16631 83.3941 0.711037C83.8501 0.255768 84.4687 0 85.1136 0ZM104.568 0C105.213 0 105.832 0.255768 106.288 0.711037C106.744 1.16631 107 1.78378 107 2.42763C107 3.07148 106.744 3.68896 106.288 4.14423C105.832 4.5995 105.213 4.85526 104.568 4.85526C103.923 4.85526 103.305 4.5995 102.849 4.14423C102.393 3.68896 102.136 3.07148 102.136 2.42763C102.136 1.78378 102.393 1.16631 102.849 0.711037C103.305 0.255768 103.923 0 104.568 0Z" fill="#7E6FFF"/>
</g>
<path d="M723.504 441.455C723.436 441.455 723.369 441.435 723.313 441.397C723.256 441.36 723.212 441.306 723.185 441.244C723.159 441.181 723.151 441.112 723.164 441.045C723.176 440.978 723.208 440.917 723.256 440.868C723.654 440.459 724.057 440.045 724.443 439.625C724.474 439.591 724.511 439.564 724.552 439.545C724.594 439.526 724.639 439.515 724.684 439.513C724.73 439.511 724.776 439.518 724.818 439.534C724.861 439.55 724.901 439.574 724.934 439.606C724.967 439.637 724.994 439.674 725.013 439.716C725.032 439.758 725.042 439.803 725.044 439.848C725.045 439.894 725.038 439.939 725.021 439.982C725.005 440.025 724.98 440.064 724.949 440.097C724.558 440.517 724.155 440.943 723.752 441.352C723.719 441.385 723.681 441.411 723.638 441.429C723.596 441.446 723.55 441.455 723.504 441.455ZM687.142 459.553C687.05 459.554 686.962 459.518 686.897 459.454C686.832 459.39 686.795 459.303 686.794 459.211C686.793 459.12 686.829 459.031 686.893 458.966C686.957 458.901 687.044 458.864 687.136 458.863C688.276 458.837 689.414 458.746 690.544 458.592C690.734 458.569 690.907 458.702 690.93 458.885C690.942 458.975 690.917 459.066 690.862 459.139C690.807 459.211 690.726 459.259 690.636 459.271C689.481 459.43 688.319 459.522 687.154 459.547C687.148 459.553 687.142 459.553 687.142 459.553ZM683.688 459.409H683.654C682.492 459.286 681.339 459.082 680.206 458.799C680.117 458.776 680.041 458.719 679.993 458.641C679.946 458.562 679.931 458.468 679.953 458.379C679.975 458.29 680.032 458.214 680.111 458.166C680.189 458.119 680.283 458.104 680.373 458.125C681.455 458.402 682.583 458.597 683.729 458.718C683.919 458.741 684.057 458.908 684.034 459.098C684.025 459.183 683.984 459.262 683.92 459.32C683.856 459.377 683.774 459.409 683.688 459.409ZM693.986 458.649C693.902 458.648 693.821 458.617 693.758 458.56C693.696 458.504 693.656 458.426 693.647 458.343C693.638 458.259 693.659 458.175 693.708 458.106C693.757 458.038 693.829 457.989 693.911 457.97C695.024 457.706 696.126 457.399 697.216 457.049C697.259 457.035 697.304 457.03 697.349 457.033C697.394 457.037 697.438 457.05 697.478 457.07C697.518 457.091 697.554 457.12 697.583 457.155C697.612 457.19 697.634 457.23 697.647 457.273C697.661 457.316 697.666 457.362 697.663 457.407C697.659 457.452 697.647 457.496 697.626 457.536C697.605 457.576 697.576 457.612 697.541 457.641C697.506 457.67 697.466 457.692 697.423 457.705C696.289 458.068 695.161 458.385 694.067 458.638C694.04 458.644 694.013 458.648 693.986 458.649ZM677.011 457.723C676.965 457.725 676.919 457.714 676.879 457.693C675.8 457.24 674.753 456.713 673.747 456.116C673.669 456.069 673.613 455.993 673.591 455.905C673.568 455.817 673.581 455.724 673.627 455.645C673.674 455.567 673.75 455.51 673.838 455.488C673.926 455.465 674.02 455.478 674.099 455.524C675.089 456.111 676.113 456.629 677.138 457.054C677.18 457.071 677.218 457.096 677.25 457.128C677.282 457.16 677.307 457.198 677.324 457.24C677.342 457.282 677.35 457.327 677.35 457.372C677.349 457.418 677.34 457.462 677.322 457.504C677.299 457.568 677.257 457.623 677.201 457.662C677.146 457.701 677.079 457.723 677.011 457.723ZM700.566 456.548C700.485 456.548 700.407 456.52 700.345 456.469C700.283 456.417 700.241 456.346 700.225 456.267C700.21 456.187 700.223 456.105 700.262 456.035C700.301 455.964 700.364 455.91 700.439 455.88C700.641 455.8 700.842 455.72 701.044 455.633C701.903 455.28 702.755 454.91 703.599 454.522C703.64 454.503 703.685 454.492 703.731 454.49C703.777 454.489 703.822 454.496 703.865 454.512C703.908 454.528 703.947 454.553 703.98 454.584C704.013 454.616 704.04 454.653 704.059 454.695C704.14 454.867 704.066 455.075 703.887 455.155C703.041 455.541 702.172 455.921 701.308 456.278C701.107 456.364 700.9 456.445 700.698 456.525C700.655 456.541 700.611 456.548 700.566 456.548ZM671.076 454.205C670.999 454.206 670.924 454.18 670.864 454.131C670.021 453.468 669.216 452.759 668.452 452.007C667.307 451.996 666.162 451.946 665.021 451.857C664.976 451.854 664.932 451.842 664.891 451.821C664.851 451.801 664.815 451.773 664.785 451.739C664.756 451.704 664.733 451.665 664.719 451.622C664.705 451.579 664.7 451.533 664.704 451.488C664.707 451.443 664.719 451.399 664.74 451.359C664.76 451.318 664.788 451.283 664.822 451.253C664.857 451.224 664.896 451.201 664.939 451.188C664.982 451.174 665.028 451.168 665.073 451.172C666.149 451.252 667.214 451.304 668.25 451.316C668.315 451.253 668.402 451.218 668.493 451.22C668.584 451.221 668.67 451.257 668.734 451.322C669.545 452.133 670.404 452.893 671.289 453.59C671.325 453.618 671.355 453.652 671.377 453.691C671.4 453.731 671.414 453.774 671.419 453.819C671.425 453.864 671.421 453.91 671.409 453.954C671.396 453.997 671.375 454.038 671.347 454.073C671.315 454.114 671.274 454.147 671.227 454.17C671.18 454.193 671.128 454.205 671.076 454.205ZM706.846 453.67C706.783 453.671 706.721 453.654 706.667 453.621C706.613 453.589 706.57 453.542 706.541 453.486C706.52 453.446 706.507 453.401 706.503 453.356C706.5 453.311 706.505 453.265 706.519 453.222C706.533 453.179 706.555 453.138 706.585 453.104C706.614 453.069 706.65 453.041 706.691 453.02C707.707 452.491 708.711 451.939 709.701 451.362C709.74 451.339 709.783 451.324 709.828 451.318C709.874 451.312 709.919 451.314 709.963 451.326C710.007 451.338 710.049 451.359 710.085 451.387C710.12 451.415 710.15 451.449 710.173 451.489C710.196 451.528 710.211 451.572 710.217 451.617C710.223 451.662 710.22 451.707 710.208 451.751C710.196 451.795 710.176 451.836 710.148 451.872C710.12 451.908 710.085 451.938 710.046 451.96C709.056 452.542 708.032 453.1 707.001 453.636C706.952 453.659 706.899 453.671 706.846 453.67ZM671.956 451.909C671.867 451.908 671.781 451.873 671.717 451.811C671.653 451.748 671.616 451.664 671.613 451.575C671.61 451.485 671.642 451.398 671.701 451.332C671.761 451.266 671.844 451.225 671.933 451.218C673.072 451.142 674.207 451.013 675.335 450.832C675.425 450.818 675.518 450.841 675.592 450.895C675.666 450.949 675.717 451.03 675.732 451.12C675.745 451.211 675.723 451.303 675.669 451.377C675.616 451.451 675.535 451.502 675.445 451.517C674.328 451.696 673.159 451.828 671.979 451.909H671.956ZM661.612 451.5C661.595 451.5 661.583 451.5 661.566 451.494C660.418 451.337 659.274 451.149 658.136 450.93C658.048 450.911 657.972 450.858 657.922 450.783C657.873 450.708 657.854 450.617 657.87 450.529C657.887 450.441 657.937 450.363 658.01 450.311C658.083 450.259 658.173 450.237 658.262 450.25C659.402 450.47 660.547 450.654 661.658 450.81C661.848 450.832 661.981 451.01 661.952 451.2C661.941 451.283 661.9 451.358 661.838 451.413C661.775 451.469 661.695 451.499 661.612 451.5ZM678.772 450.81C678.688 450.81 678.606 450.78 678.543 450.725C678.48 450.67 678.438 450.594 678.427 450.51C678.416 450.427 678.435 450.343 678.482 450.273C678.528 450.203 678.599 450.152 678.68 450.13C679.837 449.82 680.919 449.44 681.892 449.008C682.064 448.933 682.272 449.008 682.346 449.18C682.421 449.353 682.346 449.56 682.174 449.635C681.102 450.106 679.995 450.493 678.864 450.792C678.834 450.803 678.803 450.809 678.772 450.81ZM654.82 450.21C654.791 450.21 654.768 450.205 654.74 450.2C653.946 450.009 653.155 449.805 652.368 449.589L651.383 449.313C651.339 449.301 651.298 449.28 651.263 449.252C651.228 449.224 651.198 449.189 651.176 449.149C651.154 449.11 651.14 449.066 651.135 449.021C651.13 448.976 651.134 448.93 651.147 448.887C651.159 448.843 651.18 448.803 651.208 448.767C651.236 448.732 651.271 448.702 651.311 448.68C651.35 448.658 651.394 448.644 651.439 448.639C651.484 448.634 651.529 448.638 651.573 448.651C651.896 448.743 652.223 448.835 652.552 448.921C653.341 449.134 654.129 449.341 654.906 449.526C655.09 449.572 655.206 449.756 655.16 449.94C655.141 450.016 655.097 450.084 655.036 450.133C654.974 450.182 654.898 450.209 654.82 450.21ZM712.814 450.188C712.757 450.188 712.7 450.174 712.65 450.147C712.6 450.119 712.557 450.08 712.526 450.032C712.476 449.955 712.459 449.862 712.477 449.773C712.496 449.684 712.548 449.605 712.624 449.554C713.584 448.928 714.526 448.276 715.45 447.597C715.486 447.57 715.528 447.55 715.572 447.539C715.616 447.528 715.662 447.526 715.707 447.533C715.753 447.54 715.796 447.556 715.835 447.58C715.873 447.604 715.907 447.635 715.934 447.672C715.961 447.709 715.981 447.75 715.992 447.794C716.003 447.839 716.005 447.885 715.998 447.93C715.991 447.975 715.975 448.018 715.951 448.057C715.927 448.096 715.896 448.129 715.859 448.156C714.924 448.84 713.97 449.499 712.999 450.13C712.944 450.167 712.88 450.187 712.814 450.188ZM666.194 449.33C666.142 449.33 666.09 449.318 666.043 449.295C665.997 449.272 665.956 449.238 665.924 449.197C665.618 448.813 665.322 448.422 665.037 448.023C664.642 447.475 664.268 446.913 663.915 446.337C663.872 446.259 663.86 446.167 663.883 446.08C663.906 445.993 663.961 445.919 664.038 445.872C664.114 445.825 664.206 445.81 664.293 445.829C664.381 445.848 664.458 445.9 664.508 445.974C664.848 446.527 665.216 447.079 665.608 447.62C665.883 448.006 666.177 448.392 666.471 448.766C666.499 448.801 666.52 448.842 666.533 448.886C666.545 448.929 666.549 448.975 666.543 449.02C666.538 449.065 666.524 449.108 666.501 449.148C666.479 449.187 666.449 449.221 666.413 449.249C666.352 449.301 666.274 449.331 666.194 449.33ZM648.171 448.317C648.134 448.316 648.097 448.31 648.062 448.299C646.963 447.94 645.87 447.566 644.782 447.177C644.696 447.145 644.626 447.081 644.587 446.998C644.548 446.915 644.543 446.82 644.574 446.734C644.606 446.648 644.67 446.578 644.753 446.54C644.836 446.501 644.931 446.496 645.017 446.527C646.128 446.924 647.222 447.298 648.281 447.643C648.324 447.657 648.365 447.679 648.399 447.709C648.434 447.739 648.463 447.775 648.484 447.815C648.505 447.856 648.517 447.901 648.521 447.946C648.524 447.992 648.519 448.038 648.505 448.081C648.48 448.15 648.434 448.209 648.375 448.251C648.315 448.294 648.244 448.317 648.171 448.317ZM685.011 447.925C684.958 447.925 684.906 447.913 684.858 447.89C684.81 447.867 684.768 447.834 684.735 447.793C684.68 447.72 684.655 447.629 684.667 447.539C684.679 447.448 684.726 447.366 684.798 447.31C685.742 446.584 686.497 445.767 687.049 444.875C687.073 444.836 687.104 444.802 687.141 444.776C687.178 444.749 687.22 444.73 687.265 444.72C687.309 444.71 687.355 444.708 687.4 444.716C687.445 444.724 687.488 444.74 687.527 444.765C687.688 444.863 687.74 445.076 687.637 445.243C687.043 446.204 686.226 447.085 685.219 447.863C685.157 447.904 685.085 447.926 685.011 447.925ZM718.397 446.106C718.345 446.105 718.295 446.094 718.248 446.072C718.202 446.05 718.16 446.019 718.127 445.98C718.098 445.945 718.076 445.905 718.063 445.861C718.05 445.818 718.046 445.772 718.051 445.727C718.056 445.682 718.069 445.638 718.091 445.599C718.113 445.559 718.143 445.524 718.179 445.496C719.067 444.772 719.935 444.024 720.781 443.251C720.814 443.22 720.854 443.197 720.897 443.181C720.939 443.166 720.985 443.159 721.03 443.161C721.076 443.164 721.12 443.175 721.162 443.194C721.203 443.214 721.24 443.241 721.27 443.275C721.301 443.308 721.325 443.348 721.34 443.39C721.355 443.433 721.362 443.479 721.36 443.524C721.358 443.57 721.347 443.614 721.327 443.655C721.308 443.696 721.28 443.733 721.247 443.764C720.39 444.543 719.513 445.299 718.617 446.032C718.554 446.08 718.476 446.106 718.397 446.106ZM641.661 445.986C641.618 445.987 641.575 445.979 641.535 445.963C640.458 445.545 639.385 445.117 638.317 444.679C638.232 444.644 638.165 444.577 638.13 444.493C638.094 444.409 638.093 444.314 638.127 444.229C638.162 444.145 638.228 444.078 638.312 444.042C638.396 444.007 638.491 444.006 638.576 444.039C639.681 444.495 640.757 444.926 641.782 445.318C641.961 445.387 642.047 445.588 641.978 445.767C641.955 445.832 641.911 445.888 641.855 445.927C641.798 445.967 641.73 445.987 641.661 445.985V445.986ZM662.591 443.447C662.523 443.447 662.457 443.428 662.401 443.391C662.345 443.354 662.3 443.302 662.274 443.24C661.798 442.167 661.413 441.055 661.123 439.918C661.112 439.874 661.109 439.828 661.116 439.783C661.123 439.738 661.138 439.694 661.162 439.655C661.185 439.616 661.216 439.582 661.253 439.555C661.29 439.528 661.331 439.509 661.376 439.498C661.42 439.487 661.466 439.485 661.511 439.491C661.556 439.498 661.6 439.514 661.639 439.537C661.678 439.561 661.712 439.592 661.739 439.629C661.766 439.666 661.785 439.708 661.796 439.752C662.077 440.85 662.449 441.922 662.908 442.958C662.982 443.13 662.908 443.338 662.729 443.413C662.686 443.436 662.639 443.447 662.591 443.447ZM635.261 443.367C635.213 443.365 635.166 443.355 635.122 443.337C634.138 442.917 633.102 442.463 631.95 441.957C631.866 441.92 631.801 441.851 631.767 441.765C631.734 441.68 631.736 441.585 631.772 441.501C631.809 441.418 631.878 441.352 631.963 441.319C632.048 441.286 632.143 441.287 632.227 441.323C633.378 441.829 634.414 442.279 635.393 442.699C635.477 442.736 635.543 442.804 635.578 442.889C635.612 442.974 635.612 443.069 635.577 443.154C635.552 443.217 635.508 443.271 635.451 443.309C635.395 443.347 635.328 443.367 635.26 443.366L635.261 443.367ZM688.505 442.169C688.488 442.169 688.471 442.169 688.448 442.163C688.403 442.156 688.36 442.14 688.321 442.116C688.282 442.093 688.248 442.061 688.221 442.024C688.194 441.987 688.175 441.946 688.165 441.901C688.154 441.857 688.152 441.811 688.16 441.766C688.264 441.139 688.31 440.454 688.31 439.734C688.31 439.498 688.304 439.257 688.292 439.009C688.281 438.807 688.269 438.6 688.252 438.399C688.25 438.311 688.282 438.226 688.341 438.161C688.4 438.095 688.482 438.055 688.57 438.047C688.657 438.04 688.745 438.066 688.814 438.121C688.883 438.175 688.929 438.254 688.942 438.341C688.98 438.804 688.999 439.269 688.999 439.734C689 440.494 688.949 441.214 688.839 441.876C688.829 441.958 688.79 442.033 688.728 442.087C688.666 442.141 688.587 442.17 688.505 442.169ZM660.98 436.765C660.89 436.764 660.805 436.729 660.74 436.667C660.676 436.605 660.638 436.52 660.635 436.431C660.629 436.311 660.629 436.184 660.629 436.063C660.629 435.579 660.652 435.096 660.704 434.623C660.768 434.044 660.875 433.471 661.026 432.908C661.037 432.864 661.057 432.824 661.085 432.788C661.112 432.752 661.146 432.722 661.185 432.7C661.224 432.677 661.268 432.663 661.312 432.657C661.357 432.652 661.402 432.655 661.446 432.667C661.534 432.691 661.609 432.748 661.656 432.826C661.702 432.905 661.716 432.998 661.694 433.087C661.556 433.617 661.452 434.157 661.394 434.699C661.334 435.269 661.311 435.841 661.325 436.414C661.327 436.505 661.294 436.594 661.232 436.661C661.169 436.728 661.083 436.767 660.992 436.771C660.986 436.765 660.98 436.765 660.98 436.765ZM687.942 435.338C687.868 435.339 687.796 435.316 687.737 435.272C687.678 435.228 687.635 435.167 687.614 435.096C687.279 434.021 686.815 432.991 686.233 432.028C686.186 431.95 686.172 431.857 686.193 431.768C686.215 431.68 686.27 431.604 686.348 431.556C686.426 431.509 686.519 431.495 686.607 431.516C686.696 431.538 686.772 431.593 686.82 431.671C687.43 432.684 687.916 433.766 688.27 434.894C688.297 434.981 688.289 435.075 688.247 435.156C688.205 435.237 688.133 435.298 688.046 435.326C688.011 435.333 687.977 435.337 687.942 435.338ZM662.759 430.198C662.691 430.198 662.625 430.178 662.569 430.14C662.53 430.116 662.497 430.084 662.471 430.046C662.445 430.009 662.427 429.967 662.417 429.923C662.408 429.878 662.407 429.832 662.415 429.788C662.423 429.743 662.44 429.7 662.465 429.662C663.115 428.663 663.924 427.776 664.86 427.037C664.932 426.981 665.023 426.956 665.113 426.967C665.204 426.978 665.286 427.024 665.343 427.095C665.399 427.167 665.424 427.258 665.413 427.348C665.403 427.439 665.357 427.521 665.286 427.578C664.407 428.268 663.649 429.099 663.041 430.036C663.012 430.085 662.971 430.126 662.921 430.154C662.872 430.182 662.816 430.198 662.759 430.198ZM684.356 429.512C684.268 429.513 684.184 429.48 684.12 429.42C683.692 429.021 683.234 428.655 682.75 428.326C682.307 428.025 681.846 427.752 681.369 427.509C681.288 427.467 681.226 427.394 681.198 427.307C681.17 427.22 681.178 427.125 681.219 427.043C681.261 426.962 681.334 426.901 681.421 426.873C681.508 426.845 681.603 426.852 681.685 426.893C682.743 427.43 683.722 428.112 684.592 428.919C684.73 429.052 684.742 429.27 684.609 429.409C684.541 429.476 684.45 429.513 684.356 429.512ZM678.312 426.294C678.278 426.294 678.249 426.289 678.214 426.283C677.123 425.963 676.011 425.721 674.887 425.558C674.842 425.552 674.798 425.536 674.759 425.513C674.72 425.49 674.686 425.459 674.659 425.423C674.631 425.387 674.612 425.345 674.601 425.301C674.589 425.257 674.587 425.211 674.594 425.166C674.6 425.121 674.615 425.078 674.638 425.039C674.662 425 674.692 424.966 674.728 424.938C674.765 424.911 674.806 424.891 674.85 424.88C674.894 424.869 674.94 424.867 674.985 424.873C675.839 424.996 676.686 425.165 677.523 425.379C677.829 425.454 678.123 425.535 678.41 425.621C678.497 425.646 678.572 425.705 678.616 425.785C678.66 425.865 678.671 425.959 678.646 426.047C678.624 426.118 678.579 426.181 678.519 426.225C678.459 426.27 678.387 426.294 678.312 426.294ZM668.101 426.012C668.029 426.011 667.96 425.989 667.901 425.948C667.843 425.907 667.798 425.849 667.773 425.782C667.743 425.696 667.749 425.602 667.789 425.52C667.829 425.438 667.899 425.375 667.985 425.345C668.36 425.212 668.751 425.103 669.142 425.011C669.906 424.838 670.685 424.732 671.468 424.694C671.554 424.698 671.636 424.734 671.697 424.795C671.758 424.856 671.794 424.937 671.798 425.024C671.803 425.11 671.775 425.194 671.72 425.261C671.665 425.328 671.587 425.372 671.502 425.384C670.732 425.425 669.982 425.524 669.292 425.684C668.924 425.771 668.562 425.874 668.21 425.995C668.174 426.006 668.138 426.012 668.101 426.012ZM628.918 440.58C628.87 440.579 628.824 440.57 628.78 440.552C628.256 440.315 627.727 440.08 627.203 439.849C627.162 439.831 627.124 439.804 627.094 439.771C627.063 439.738 627.038 439.7 627.022 439.658C627.006 439.615 626.999 439.57 627 439.525C627.002 439.48 627.012 439.436 627.03 439.395C627.049 439.353 627.075 439.316 627.108 439.285C627.141 439.254 627.18 439.23 627.222 439.214C627.264 439.198 627.309 439.191 627.354 439.192C627.399 439.193 627.444 439.204 627.485 439.222C628.009 439.458 628.535 439.692 629.062 439.924C629.235 439.999 629.315 440.206 629.235 440.379C629.207 440.439 629.162 440.49 629.106 440.526C629.05 440.562 628.984 440.58 628.918 440.58Z" fill="white"/>
<defs>
<clipPath id="clip0_5_531">
<rect width="107" height="123" fill="white"/>
</clipPath>
</defs>
</svg>
