<svg width="102" height="35" viewBox="0 0 102 35" fill="none" xmlns="http://www.w3.org/2000/svg">
<mask id="mask0_70_388" style="mask-type:luminance" maskUnits="userSpaceOnUse" x="0" y="0" width="102" height="35">
<path d="M101.344 0H0V34.0175H101.344V0Z" fill="white"/>
</mask>
<g mask="url(#mask0_70_388)">
<path d="M24.8105 12.1549H12.9357V15.654H21.3929C20.9849 20.5508 16.9042 22.6422 13.0582 22.6422C8.13077 22.6422 3.83584 18.7656 3.83584 13.3383C3.83584 8.04358 7.92673 3.97308 13.0684 3.97308C17.0266 3.97308 19.3628 6.5031 19.3628 6.5031L21.8112 3.97308C21.8112 3.97308 18.6691 0.47389 12.9459 0.47389C5.64154 0.463689 0 6.61532 0 13.2669C0 19.7858 5.30488 26.1312 13.1194 26.1312C19.9953 26.1312 25.0248 21.418 25.0248 14.4604C25.0248 13.0015 24.8105 12.1446 24.8105 12.1549Z" fill="#10162F" fill-opacity="0.63"/>
<path d="M34.87 9.61377C30.0343 9.61377 26.576 13.3884 26.576 17.7955C26.576 22.2638 29.9323 26.1201 34.9312 26.1201C39.4505 26.1201 43.1538 22.6617 43.1538 17.8975C43.1538 12.4294 38.8384 9.61377 34.87 9.61377ZM34.921 12.8579C37.2979 12.8579 39.5525 14.7758 39.5525 17.8771C39.5525 20.907 37.3081 22.8862 34.9108 22.8862C32.2787 22.8862 30.1975 20.7745 30.1975 17.8567C30.1975 14.99 32.2481 12.8579 34.921 12.8579Z" fill="#10162F" fill-opacity="0.63"/>
<path d="M52.8149 9.61377C47.9793 9.61377 44.5209 13.3884 44.5209 17.7955C44.5209 22.2638 47.8772 26.1201 52.8761 26.1201C57.3954 26.1201 61.0986 22.6617 61.0986 17.8975C61.0884 12.4294 56.7833 9.61377 52.8149 9.61377ZM52.8557 12.8579C55.2327 12.8579 57.4872 14.7758 57.4872 17.8771C57.4872 20.907 55.2429 22.8862 52.8455 22.8862C50.2134 22.8862 48.1322 20.7745 48.1322 17.8567C48.1322 14.99 50.1828 12.8579 52.8557 12.8579Z" fill="#10162F" fill-opacity="0.63"/>
<path d="M70.5028 9.62524C66.065 9.62524 62.5761 13.5121 62.5761 17.8682C62.5761 22.8364 66.616 26.1315 70.4211 26.1315C72.7781 26.1315 74.0225 25.1931 74.9509 24.1219V25.7541C74.9509 28.6004 73.2266 30.3041 70.615 30.3041C68.0952 30.3041 66.8302 28.427 66.3915 27.366L63.2188 28.6922C64.341 31.0692 66.6058 33.5482 70.6456 33.5482C75.053 33.5482 78.4193 30.7734 78.4193 24.9481V9.92102H74.9608V11.5227C73.89 10.3802 72.4307 9.62524 70.5028 9.62524ZM70.8293 12.8592C73.002 12.8592 75.2365 14.7159 75.2365 17.8886C75.2365 21.1124 73.0126 22.8874 70.7783 22.8874C68.4114 22.8874 66.218 20.9696 66.218 17.9193C66.2078 14.7567 68.493 12.8592 70.8293 12.8592Z" fill="#10162F" fill-opacity="0.63"/>
<path d="M93.4875 9.604C89.3054 9.604 85.796 12.9297 85.796 17.847C85.796 23.0397 89.7129 26.1308 93.8956 26.1308C97.3845 26.1308 99.5266 24.223 100.812 22.5092L97.9558 20.6117C97.2116 21.7645 95.9771 22.8867 93.9162 22.8867C91.6002 22.8867 90.5293 21.6115 89.866 20.3872L100.935 15.7965L100.364 14.4498C99.282 11.8075 96.7928 9.604 93.4875 9.604ZM93.6306 12.7869C95.1401 12.7869 96.2216 13.5929 96.6809 14.5519L89.2948 17.643C88.9788 15.2456 91.2437 12.7869 93.6306 12.7869Z" fill="#10162F" fill-opacity="0.63"/>
<path d="M84.1136 1.31909H80.726V25.6399H84.1136V1.31909Z" fill="#10162F" fill-opacity="0.63"/>
</g>
</svg>
