<svg width="85" height="35" viewBox="0 0 85 35" fill="none" xmlns="http://www.w3.org/2000/svg">
<mask id="mask0_70_377" style="mask-type:luminance" maskUnits="userSpaceOnUse" x="0" y="0" width="85" height="35">
<path d="M84.4771 0H0V34.3478H84.4771V0Z" fill="white"/>
</mask>
<g mask="url(#mask0_70_377)">
<path d="M84.4785 2.43424H70.414L71.3156 0H84.4785V2.43424Z" fill="#10162F" fill-opacity="0.63"/>
<path d="M46.9726 0H60.0453L60.8568 2.43424H46.9726V0Z" fill="#10162F" fill-opacity="0.63"/>
<path d="M36.6039 0C38.7677 0.180317 40.661 0.991727 42.1937 2.43424H18.4824V0H36.6039Z" fill="#10162F" fill-opacity="0.63"/>
<path d="M16.4086 0H0V2.43424H16.4086V0Z" fill="#10162F" fill-opacity="0.63"/>
<path d="M84.4763 6.94204H68.789L69.6005 4.50781H84.3862V6.94204H84.4763Z" fill="#10162F" fill-opacity="0.63"/>
<path d="M62.5698 6.94174H46.9726V4.59766H61.6682L62.5698 6.94174Z" fill="#10162F" fill-opacity="0.63"/>
<path d="M44.0866 4.59766C44.3571 5.40908 44.8078 6.04018 44.8078 7.0319H18.5722V4.59766H44.0866Z" fill="#10162F" fill-opacity="0.63"/>
<path d="M16.4086 4.59766H0V7.0319H16.4086V4.59766Z" fill="#10162F" fill-opacity="0.63"/>
<path d="M67.2578 11.5398L68.0692 9.10547H79.8798V11.5398H67.2578Z" fill="#10162F" fill-opacity="0.63"/>
<path d="M63.2904 9.10547L64.192 11.5398H51.6601V9.10547H63.2904Z" fill="#10162F" fill-opacity="0.63"/>
<path d="M44.9872 9.10547C44.9872 9.91686 44.897 10.8185 44.6266 11.5398H37.414V9.10547H44.9872Z" fill="#10162F" fill-opacity="0.63"/>
<path d="M11.6298 9.10547H4.59766V11.5398H11.6298V9.10547Z" fill="#10162F" fill-opacity="0.63"/>
<path d="M30.3837 9.10547H23.3515V11.5398H30.3837V9.10547Z" fill="#10162F" fill-opacity="0.63"/>
<path d="M58.6022 14.1545V15.9576H51.6601V13.5234H64.9132L65.7246 15.7773L66.5361 13.5234H79.8793V15.9576H72.9372V14.1545L72.3061 15.9576H59.2333L58.6022 14.1545Z" fill="#10162F" fill-opacity="0.63"/>
<path d="M23.3515 13.6133H43.6368C43.1861 14.4247 42.3746 15.4164 41.6533 16.0476H23.4417C23.3515 15.9573 23.3515 13.6133 23.3515 13.6133Z" fill="#10162F" fill-opacity="0.63"/>
<path d="M11.6298 13.6133H4.59766V16.0476H11.6298V13.6133Z" fill="#10162F" fill-opacity="0.63"/>
<path d="M79.8796 18.1211H72.9375V20.5553H79.8796V18.1211Z" fill="#10162F" fill-opacity="0.63"/>
<path d="M58.6022 18.1211H51.6601V20.5553H58.6022V18.1211Z" fill="#10162F" fill-opacity="0.63"/>
<path d="M71.585 18.1211L70.7736 20.5553H60.9465L60.0449 18.1211H71.585Z" fill="#10162F" fill-opacity="0.63"/>
<path d="M23.3515 18.1211H41.5632C42.3746 18.8423 43.186 19.6538 43.727 20.5553H23.3515V18.1211Z" fill="#10162F" fill-opacity="0.63"/>
<path d="M11.6298 20.5553V18.1211H4.59766V20.5553H11.6298Z" fill="#10162F" fill-opacity="0.63"/>
<path d="M79.8796 22.7188H72.9375V25.153H79.8796V22.7188Z" fill="#10162F" fill-opacity="0.63"/>
<path d="M58.6022 22.7188H51.6601V25.153H58.6022V22.7188Z" fill="#10162F" fill-opacity="0.63"/>
<path d="M69.0611 25.153C69.0611 25.153 69.8725 22.7188 69.9627 22.7188H61.5781L62.4797 25.153H69.0611Z" fill="#10162F" fill-opacity="0.63"/>
<path d="M23.3515 25.0632V22.6289H30.4739V25.0632H23.3515Z" fill="#10162F" fill-opacity="0.63"/>
<path d="M44.7181 22.7188C45.0787 23.4399 45.0787 24.3416 45.1689 25.153H37.5957V22.7188H44.7181Z" fill="#10162F" fill-opacity="0.63"/>
<path d="M11.6298 22.7188H4.59766V25.153H11.6298V22.7188Z" fill="#10162F" fill-opacity="0.63"/>
<path d="M84.4776 27.1367H72.9375V29.5709H84.4776V27.1367Z" fill="#10162F" fill-opacity="0.63"/>
<path d="M58.5127 27.1367H46.9726V29.5709H58.5127V27.1367Z" fill="#10162F" fill-opacity="0.63"/>
<path d="M67.527 29.5709H64.0109L63.1093 27.1367H68.3385L67.527 29.5709Z" fill="#10162F" fill-opacity="0.63"/>
<path d="M0 27.1367V29.5709H16.4086V27.1367H0Z" fill="#10162F" fill-opacity="0.63"/>
<path d="M44.8981 27.1367C44.7177 27.9481 44.5374 28.9398 43.9965 29.5709H43.8161H18.5722V27.1367H44.8981Z" fill="#10162F" fill-opacity="0.63"/>
<path d="M65.9044 34.0784H65.634L64.7324 31.7344H66.806L65.9044 34.0784Z" fill="#10162F" fill-opacity="0.63"/>
<path d="M84.4776 31.7344H72.9375V34.1687H84.4776V31.7344Z" fill="#10162F" fill-opacity="0.63"/>
<path d="M18.5722 34.0787V31.6445C18.5722 31.6445 42.2835 31.6445 42.3736 31.6445C40.7508 33.1771 38.5871 33.9886 36.243 34.0787H18.5722Z" fill="#10162F" fill-opacity="0.63"/>
<path d="M58.5127 31.7344H46.9726V34.1687H58.5127V31.7344Z" fill="#10162F" fill-opacity="0.63"/>
<path d="M16.4086 31.7344V34.1687H0V31.7344H16.4086Z" fill="#10162F" fill-opacity="0.63"/>
</g>
</svg>
