<svg width="34" height="34" viewBox="0 0 34 34" fill="none" xmlns="http://www.w3.org/2000/svg">
<mask id="mask0_70_253" style="mask-type:luminance" maskUnits="userSpaceOnUse" x="0" y="0" width="34" height="34">
<path d="M33.3225 0H0V33.3225H33.3225V0Z" fill="white"/>
</mask>
<g mask="url(#mask0_70_253)">
<mask id="mask1_70_253" style="mask-type:alpha" maskUnits="userSpaceOnUse" x="0" y="0" width="34" height="34">
<path d="M0 0.0114746H33.312V33.3195H0V0.0114746Z" fill="white"/>
</mask>
<g mask="url(#mask1_70_253)">
<path fill-rule="evenodd" clip-rule="evenodd" d="M16.656 0.0114746C12.1325 0.0114746 11.5653 0.0306486 9.7888 0.111707C8.01592 0.192563 6.80513 0.474158 5.74569 0.885928C4.65041 1.31151 3.72154 1.88104 2.79552 2.807C1.86957 3.73302 1.30004 4.66189 0.874447 5.75716C0.462677 6.81661 0.181092 8.02739 0.100232 9.80026C0.019174 11.5768 0 12.1439 0 16.6675C0 21.191 0.019174 21.7582 0.100232 23.5348C0.181092 25.3076 0.462677 26.5184 0.874447 27.5778C1.30004 28.6731 1.86957 29.602 2.79552 30.528C3.72154 31.4539 4.65041 32.0235 5.74569 32.4491C6.80513 32.8608 8.01592 33.1423 9.7888 33.2233C11.5653 33.3043 12.1325 33.3235 16.656 33.3235C21.1795 33.3235 21.7467 33.3043 23.5232 33.2233C25.2961 33.1423 26.5069 32.8608 27.5663 32.4491C28.6616 32.0235 29.5904 31.4539 30.5165 30.528C31.4424 29.602 32.012 28.6731 32.4376 27.5778C32.8493 26.5184 33.1309 25.3076 33.2118 23.5348C33.2928 21.7582 33.312 21.191 33.312 16.6675C33.312 12.1439 33.2928 11.5768 33.2118 9.80026C33.1309 8.02739 32.8493 6.81661 32.4376 5.75716C32.012 4.66189 31.4424 3.73302 30.5165 2.807C29.5904 1.88104 28.6616 1.31151 27.5663 0.885928C26.5069 0.474158 25.2961 0.192563 23.5232 0.111707C21.7467 0.0306486 21.1795 0.0114746 16.656 0.0114746ZM16.656 3.01255C21.1034 3.01255 21.6302 3.02954 23.3864 3.10968C25.0104 3.18373 25.8923 3.45507 26.4792 3.68317C27.2567 3.98531 27.8116 4.34625 28.3943 4.92912C28.9772 5.51194 29.3382 6.06679 29.6403 6.84425C29.8684 7.43116 30.1397 8.31308 30.2138 9.93705C30.294 11.6933 30.311 12.2201 30.311 16.6675C30.311 21.1148 30.294 21.6416 30.2138 23.398C30.1397 25.0219 29.8684 25.9038 29.6403 26.4907C29.3382 27.2682 28.9772 27.823 28.3943 28.4058C27.8116 28.9887 27.2567 29.3496 26.4792 29.6517C25.8923 29.8799 25.0104 30.1513 23.3864 30.2253C21.6304 30.3054 21.1037 30.3224 16.656 30.3224C12.2084 30.3224 11.6817 30.3054 9.92559 30.2253C8.30161 30.1513 7.41969 29.8799 6.83276 29.6517C6.05531 29.3496 5.50046 28.9887 4.91765 28.4058C4.33483 27.823 3.97384 27.2682 3.67169 26.4907C3.44359 25.9038 3.17226 25.0219 3.0982 23.398C3.01807 21.6416 3.00107 21.1148 3.00107 16.6675C3.00107 12.2201 3.01807 11.6933 3.0982 9.93705C3.17226 8.31308 3.44359 7.43116 3.67169 6.84425C3.97384 6.06679 4.33477 5.51194 4.91765 4.92912C5.50046 4.34625 6.05531 3.98531 6.83276 3.68317C7.41969 3.45507 8.30161 3.18373 9.92559 3.10968C11.6819 3.02954 12.2086 3.01255 16.656 3.01255Z" fill="#10162F" fill-opacity="0.63"/>
</g>
<path fill-rule="evenodd" clip-rule="evenodd" d="M16.6573 22.2189C13.5909 22.2189 11.1052 19.7332 11.1052 16.6669C11.1052 13.6006 13.5909 11.1148 16.6573 11.1148C19.7235 11.1148 22.2092 13.6006 22.2092 16.6669C22.2092 19.7332 19.7235 22.2189 16.6573 22.2189ZM16.6573 8.11377C11.9335 8.11377 8.10416 11.9431 8.10416 16.6669C8.10416 21.3906 11.9335 25.2199 16.6573 25.2199C21.381 25.2199 25.2103 21.3906 25.2103 16.6669C25.2103 11.9431 21.381 8.11377 16.6573 8.11377Z" fill="#10162F" fill-opacity="0.63"/>
<path fill-rule="evenodd" clip-rule="evenodd" d="M27.5444 7.7761C27.5444 8.87998 26.6495 9.77477 25.5457 9.77477C24.4418 9.77477 23.547 8.87998 23.547 7.7761C23.547 6.67223 24.4418 5.77734 25.5457 5.77734C26.6495 5.77734 27.5444 6.67223 27.5444 7.7761Z" fill="#10162F" fill-opacity="0.63"/>
</g>
</svg>
