<svg width="13" height="13" viewBox="0 0 13 13" fill="none" xmlns="http://www.w3.org/2000/svg">
<path fill-rule="evenodd" clip-rule="evenodd" d="M4.89312 4.60562H7.21437V5.76187C7.54875 5.09687 8.40625 4.49937 9.69437 4.49937C12.1637 4.49937 12.75 5.82312 12.75 8.25187V12.75H10.25V8.805C10.25 7.42187 9.91562 6.64187 9.06437 6.64187C7.88375 6.64187 7.39312 7.4825 7.39312 8.80437V12.75H4.89312V4.60562ZM0.60625 12.6437H3.10625V4.49937H0.60625V12.6437ZM3.46437 1.84375C3.46447 2.0533 3.42291 2.26077 3.34212 2.45412C3.26132 2.64746 3.14291 2.82282 2.99375 2.97C2.6915 3.27039 2.28238 3.43853 1.85625 3.4375C1.43087 3.43721 1.02269 3.2695 0.72 2.97063C0.571382 2.82295 0.453366 2.64739 0.372715 2.45402C0.292063 2.26065 0.250362 2.05327 0.25 1.84375C0.25 1.42063 0.41875 1.01563 0.720625 0.716875C1.02305 0.417599 1.4314 0.249813 1.85687 0.25C2.28312 0.25 2.69187 0.418125 2.99375 0.716875C3.295 1.01563 3.46437 1.42063 3.46437 1.84375Z" fill="#EB5757"/>
</svg>
