<svg width="27" height="27" viewBox="0 0 27 27" fill="none" xmlns="http://www.w3.org/2000/svg">
<path fill-rule="evenodd" clip-rule="evenodd" d="M11.0266 10.0681H15.0744V12.0844C15.6575 10.9247 17.1528 9.88279 19.3991 9.88279C23.7052 9.88279 24.7275 12.1912 24.7275 16.4265V24.2704H20.368V17.391C20.368 14.9791 19.7849 13.6189 18.3005 13.6189C16.2417 13.6189 15.3861 15.0848 15.3861 17.3899V24.2704H11.0266V10.0681ZM3.55104 24.0851H7.91059V9.88279H3.55104V24.0851ZM8.53509 5.25187C8.53526 5.61728 8.46279 5.97908 8.3219 6.31624C8.18101 6.65339 7.97451 6.95919 7.71441 7.21584C7.18734 7.73967 6.47391 8.03288 5.73082 8.03108C4.98903 8.03058 4.27725 7.73811 3.7494 7.21693C3.49024 6.9594 3.28444 6.65327 3.1438 6.31607C3.00316 5.97886 2.93044 5.61722 2.92981 5.25187C2.92981 4.51401 3.22408 3.80777 3.75049 3.2868C4.27787 2.76492 4.98996 2.47233 5.73191 2.47266C6.47521 2.47266 7.18799 2.76584 7.71441 3.2868C8.23974 3.80777 8.53509 4.51401 8.53509 5.25187Z" fill="#7B8290"/>
</svg>
