<svg width="91" height="61" viewBox="0 0 91 61" fill="none" xmlns="http://www.w3.org/2000/svg">
<path d="M85.0198 47.7225L80.8295 46.9447C79.6245 46.7228 78.4476 46.4209 78.4476 45.4084C78.4476 44.9451 78.7646 43.8681 81.7027 43.8681C82.9086 43.8681 84.0123 43.9421 84.9861 44.0074C85.7114 44.056 86.3377 44.0981 86.8473 44.0981C88.8087 44.0981 89.7621 42.9652 89.7621 40.635C89.7621 40.2852 89.7353 39.9781 89.6762 39.6603C85.7467 39.1851 82.4484 39.079 79.977 39.3451C75.8624 39.7756 73.3068 42.1666 73.3068 45.585C73.3068 48.4065 75.4397 50.642 78.7407 51.28L83.1429 52.1285C84.7646 52.4313 85.7705 52.8324 85.7705 53.8943C85.7705 54.3787 85.4845 55.5054 82.8336 55.5054C81.8392 55.5054 80.6814 55.4285 79.5616 55.3542C78.5406 55.2865 77.576 55.2225 76.8225 55.2225C74.8528 55.2225 73.8543 56.4054 73.8543 58.7384C73.8543 59.0197 73.8984 59.394 73.9718 59.7467C75.1037 59.8736 78.2876 60.1971 81.326 60.1971C82.4544 60.1971 83.4531 60.152 84.2942 60.0637C88.5552 59.6083 90.9993 57.308 90.9993 53.7528C91 50.5753 88.8763 48.4338 85.0198 47.7225Z" fill="white"/>
<path d="M26.0118 36.2141V60.0818C26.3735 60.1226 26.7094 60.1416 27.0547 60.1416C30.4368 60.1416 31.0778 59.2152 31.0778 57.5057V32.8032C30.7005 32.7377 30.3331 32.7043 29.9837 32.7043C26.4632 32.7045 26.0118 34.5802 26.0118 36.2141Z" fill="white"/>
<path d="M44.8936 16.9462V60.045C45.2553 60.0858 45.5911 60.1048 45.9362 60.1048C49.3186 60.1048 49.9596 59.1785 49.9596 57.4689V13.5354C49.5832 13.4697 49.2158 13.4364 48.8655 13.4364C45.345 13.4364 44.8936 15.3121 44.8936 16.9462Z" fill="white"/>
<path d="M65.2207 36.3106V60.1786C65.5824 60.2194 65.9182 60.2386 66.2633 60.2386C69.6457 60.2386 70.2867 59.3123 70.2867 57.6027V32.9003C69.9101 32.8345 69.5429 32.8013 69.1923 32.8013C65.6721 32.8011 65.2207 34.6768 65.2207 36.3106Z" fill="white"/>
<path d="M42.9103 30.3133C42.9103 26.7931 41.0345 26.3414 39.4007 26.3414H31.0781V7.5008C31.0781 5.86671 30.6267 3.99124 27.1059 3.99124C26.7566 3.99124 26.3892 4.0247 26.0118 4.09021V28.7927C26.0118 30.2274 26.4703 31.1082 28.6154 31.3548C28.8015 31.3849 29.0002 31.4006 29.2116 31.4044C29.4682 31.4186 29.7373 31.4283 30.035 31.4283C30.1563 31.4283 30.2806 31.4122 30.4012 31.4072H42.8113C42.877 31.031 42.9103 30.6639 42.9103 30.3133Z" fill="white"/>
<path d="M40.6902 38.9534C38.7796 38.9534 37.5397 39.6045 36.5445 41.1306L31.2122 49.5123L36.5355 57.8797C37.5281 59.4013 38.7677 60.0526 40.6786 60.0526C41.6315 60.0526 42.5222 59.8921 43.1301 59.7018L36.3936 49.541L36.6889 49.0599L43.1419 39.3047C42.5336 39.1139 41.6431 38.9534 40.6902 38.9534Z" fill="white"/>
<path d="M53.6739 39.6925L53.7321 39.6344C53.6979 39.6391 53.6654 39.6453 53.6319 39.6505L53.6739 39.6925Z" fill="white"/>
<path d="M47.5975 5.73071L45.4265 7.90167C45.057 8.27121 44.8533 8.76275 44.8533 9.28537C44.8533 9.808 45.057 10.2995 45.4265 10.6691L47.4159 12.6585L49.7442 10.3301C50.0717 10.0026 50.2521 9.56709 50.2521 9.1038C50.2521 8.64051 50.0717 8.205 49.7442 7.87747L47.5975 5.73071Z" fill="#EB5757"/>
<path d="M63.8869 9.58084C58.312 9.58084 56.2695 11.5147 56.0815 16.9712L56.068 17.3606V17.5396C56.0675 17.5859 56.0663 17.6257 56.0649 17.6654C56.0637 17.7022 56.0623 17.739 56.0623 17.7776V18.6079V18.4137H54.1457H53.9839C52.7457 18.4137 52.0776 19.6163 52.0776 20.748V23.0345H56.062V24.024L56.0675 23.0639V59.9847C56.3877 60.0144 56.6938 60.0284 57.0069 60.0284C61.0471 60.0284 61.3683 58.8286 61.3683 57.26V23.556V23.04H61.8842H63.2831H63.445C64.6832 23.04 65.3513 21.8374 65.3513 20.7057V18.4192H61.7388H61.2228V17.9032V18.4446C61.2228 15.5967 61.0818 14.406 65.047 14.743C65.0914 14.7468 65.9551 14.7352 65.9551 14.7352C66.8473 14.7352 67.9317 14.0189 67.9317 13.1832V9.9162C67.1333 9.77878 64.9595 9.58084 63.8869 9.58084Z" fill="white"/>
<path d="M16.6472 44.4002L11.0649 43.3642C9.73581 43.1195 7.5105 42.7091 7.5105 40.8586C7.5105 40.101 7.97854 38.3397 12.3133 38.3397C13.9242 38.3397 15.394 38.4377 16.6909 38.5243C17.6317 38.5877 18.4935 38.6461 19.1668 38.6461C21.4977 38.6461 22.5836 37.3284 22.5836 34.4995C22.5836 34.1886 22.5662 33.9033 22.5297 33.6225C17.5125 33.0327 13.238 32.9032 10.0648 33.2452C4.84042 33.7922 1.59596 36.7996 1.59596 41.0938C1.59596 44.6185 4.28884 47.4168 8.45678 48.2226L14.3212 49.353C16.1965 49.7031 18.1996 50.2383 18.1996 52.1631C18.1996 52.949 17.7729 54.7763 13.8207 54.7763C12.4842 54.7763 10.9391 54.6737 9.44459 54.5748C8.07893 54.4841 6.80133 54.3994 5.81328 54.3994C3.46669 54.3994 2.32579 55.7785 2.32579 58.6164C2.32579 58.8709 2.35688 59.1982 2.41147 59.5335C4.20861 59.7281 8.08392 60.0932 11.813 60.0932C13.2962 60.0932 14.6103 60.0343 15.7185 59.9183C21.1289 59.3394 24.2326 56.4441 24.2326 51.9749C24.2324 47.9923 21.5385 45.3021 16.6472 44.4002Z" fill="white"/>
<path d="M88.8789 20.6929C88.8789 14.1872 84.5417 9.46527 78.5657 9.46527C75.7729 9.46527 73.1781 10.5124 71.259 12.414C69.1965 14.4575 68.1063 17.2636 68.1063 20.5287C68.1063 27.1766 72.4224 31.8197 78.602 31.8197C81.2287 31.8197 83.7224 30.9461 85.624 29.3594L85.8141 29.2073C86.2359 28.8368 86.6474 28.3994 87.0196 27.9221C87.3682 27.4749 87.6718 27.0074 87.9219 26.5318L84.771 25.3405L84.4269 25.21C84.1917 25.148 83.997 25.1205 83.811 25.1205C83.4158 25.1205 83.0232 25.2454 82.5751 25.5138C82.0955 25.81 81.5724 26.1347 81.5118 26.1755C81.4508 26.2144 80.2855 26.9407 78.5342 26.9409C76.6523 26.9409 75.0595 26.0509 74.118 24.4871L73.8716 24.033C73.5747 23.4183 73.3143 22.4744 73.2348 21.7595C73.2324 21.7386 73.0345 20.0614 73.2934 18.7897L73.353 18.475C73.9276 15.4885 75.8952 13.6342 78.4879 13.6342C81.0369 13.6342 82.896 15.0862 83.4606 17.5187L83.6016 18.1256H82.9653H79.2175H78.8584C77.1077 18.1256 75.4255 18.3399 75.4255 20.3255V22.4371H88.8801C88.8879 22.1298 88.8846 21.3133 88.8818 21.0565C88.8803 20.9343 88.8789 20.7909 88.8789 20.6929Z" fill="white"/>
<path d="M13.9989 2.48131C13.2802 3.86271 13.6187 5.13374 14.933 5.95947L23.1188 10.9291L14.4312 13.552L14.3702 13.6493L12.3888 16.7704L14.8437 18.2602C16.511 19.2727 17.582 20.3098 18.0267 21.3421C18.4623 22.3532 18.3751 23.3156 17.7606 24.2837C17.1455 25.2488 16.2747 25.7484 15.0986 25.8105C13.8981 25.8742 12.5308 25.4466 11.0446 24.5433C9.77247 23.772 8.64482 22.8174 7.69222 21.7064C6.74447 20.6025 6.05601 19.4532 5.64664 18.2899L5.51306 17.9091L3.64573 18.9111C3.60651 18.9351 3.57729 18.9512 3.5424 18.9703C1.48065 20.092 1.5279 21.398 1.92823 22.2974C2.48739 23.3619 3.22 24.2338 3.92773 25.0162C5.22199 26.4468 6.74835 27.7006 8.46552 28.7431C10.5402 30.0012 12.5234 30.7509 14.3772 30.9839C16.249 31.2175 17.9231 30.9966 19.3526 30.3281C20.7822 29.6617 21.9419 28.6403 22.7985 27.292C23.9362 25.5001 24.2934 23.6136 23.8583 21.6851C23.4692 19.9648 22.4011 18.3361 20.6831 16.8448L20.5326 16.7136L29.964 13.8683L30.025 13.771L31.9668 10.7147L15.2251 0.551855L13.9989 2.48131Z" fill="#EB5757"/>
</svg>
