<svg width="109" height="22" viewBox="0 0 109 22" fill="none" xmlns="http://www.w3.org/2000/svg">
<path d="M39.9551 0.705078H44.0807L51.0959 13.3989L58.1109 0.705078H62.1472V21.5635H58.7812V5.57708L52.6299 16.6469H49.4724L43.3211 5.57708V21.5635H39.9551V0.705078Z" fill="#10162F" fill-opacity="0.63"/>
<path d="M73.0048 21.9362C71.4458 21.9362 70.0757 21.591 68.8941 20.9007C67.7124 20.2103 66.7915 19.2543 66.1313 18.0326C65.4708 16.8108 65.1407 15.4103 65.1408 13.8311C65.1408 12.2321 65.4635 10.8166 66.1089 9.58499C66.7544 8.35347 67.6504 7.38998 68.7973 6.69452C69.9442 5.99939 71.2623 5.65172 72.7516 5.65161C74.2311 5.65161 75.5046 6.00169 76.572 6.70194C77.6392 7.4023 78.4609 8.38314 79.0369 9.64456C79.6127 10.9061 79.9007 12.386 79.9008 14.0843V15.008H68.4771C68.6856 16.2796 69.1995 17.2803 70.0187 18.0102C70.8379 18.7402 71.8729 19.1052 73.124 19.1051C74.1268 19.1051 74.9907 18.9562 75.7156 18.6582C76.4403 18.3603 77.1205 17.9083 77.7561 17.3025L79.5434 19.4926C77.7658 21.1217 75.5864 21.9363 73.0048 21.9362ZM75.4624 9.56252C74.7573 8.84252 73.8338 8.48241 72.6922 8.4823C71.5799 8.4823 70.649 8.84983 69.8995 9.58499C69.1497 10.3199 68.6756 11.3083 68.4771 12.5499H76.6689C76.5695 11.2784 76.1673 10.2826 75.4624 9.56252Z" fill="#10162F" fill-opacity="0.63"/>
<path d="M83.9819 8.78051H80.8839V6.02411H83.9819V1.46509H87.2292V6.02411H91.9354V8.78051H87.2292V15.768C87.2292 16.9299 87.4278 17.7593 87.8248 18.256C88.2219 18.7528 88.9016 19.0011 89.8648 19.0009C90.2914 19.0009 90.6547 18.9836 90.9525 18.9488C91.2503 18.9142 91.5776 18.8669 91.9354 18.8073V21.5337C91.5274 21.6517 91.1118 21.7414 90.6918 21.8019C90.2107 21.8727 89.7252 21.9076 89.2398 21.9062C85.7342 21.9062 83.9818 19.9893 83.9819 16.1554V8.78051Z" fill="#10162F" fill-opacity="0.63"/>
<path d="M108.855 21.5635H105.668V19.3883C105.102 20.2029 104.383 20.8311 103.509 21.273C102.635 21.7148 101.641 21.9358 100.53 21.9362C99.1594 21.9362 97.9452 21.586 96.8881 20.8856C95.831 20.1854 94.9987 19.222 94.3932 17.9954C93.7878 16.7686 93.4845 15.3656 93.4845 13.7864C93.4845 12.1973 93.7921 10.7918 94.4085 9.56994C95.0238 8.34834 95.8747 7.38987 96.9623 6.69452C98.0499 5.99939 99.298 5.65172 100.708 5.65161C101.771 5.65161 102.724 5.85769 103.568 6.26994C104.4 6.67281 105.121 7.2739 105.668 8.02052V6.02416H108.855V21.5635ZM105.609 11.4622C105.261 10.5782 104.712 9.88041 103.963 9.36878C103.213 8.85736 102.347 8.60154 101.364 8.60165C99.9732 8.60165 98.866 9.06845 98.0423 10.002C97.2176 10.9356 96.8063 12.1972 96.8063 13.7864C96.8063 15.3857 97.2034 16.6521 97.9976 17.5856C98.7918 18.5193 99.8696 18.9861 101.23 18.9861C102.232 18.9861 103.126 18.7278 103.91 18.2112C104.695 17.695 105.261 16.9998 105.609 16.1254V11.4622Z" fill="#10162F" fill-opacity="0.63"/>
<path d="M23.6911 0C20.9843 0 18.8684 2.03935 16.9531 4.62993C14.3209 1.27746 12.1197 0 9.48545 0C4.11491 0 0 6.99153 0 14.3917C0 19.0225 2.23964 21.9432 5.99084 21.9432C8.69073 21.9432 10.6325 20.6699 14.0845 14.6339C14.0845 14.6339 15.5234 12.092 16.5134 10.3409C16.8603 10.9011 17.2256 11.5048 17.6095 12.152L19.2281 14.876C22.3814 20.1543 24.1383 21.9432 27.3218 21.9432C30.9763 21.9432 33.01 18.9826 33.01 14.2555C33.01 6.50727 28.8024 0 23.6911 0ZM11.4521 12.9995C8.65342 17.3881 7.68524 18.3718 6.12698 18.3718C4.52335 18.3718 3.57033 16.9634 3.57033 14.4523C3.57033 9.07996 6.24807 3.58658 9.44007 3.58658C11.1687 3.58658 12.6132 4.5852 14.8259 7.75386C12.7249 10.9776 11.4521 12.9995 11.4521 12.9995ZM22.0151 12.4469L20.0796 9.21807C19.5559 8.36596 19.0525 7.5816 18.5696 6.86509C20.3139 4.17196 21.7528 2.82993 23.4641 2.82993C27.0193 2.82993 29.8634 8.06607 29.8634 14.4976C29.8634 16.9492 29.0606 18.3718 27.3974 18.3718C25.8034 18.3718 25.0418 17.3186 22.0151 12.4469Z" fill="#10162F" fill-opacity="0.63"/>
</svg>
