<svg width="128" height="28" viewBox="0 0 128 28" fill="none" xmlns="http://www.w3.org/2000/svg">
<mask id="mask0_70_335" style="mask-type:luminance" maskUnits="userSpaceOnUse" x="0" y="0" width="128" height="28">
<path d="M127.782 0H0V27.6583H127.782V0Z" fill="white"/>
</mask>
<g mask="url(#mask0_70_335)">
<path d="M0 0H12.9808C12.9808 4.32481 12.9808 8.6496 12.9808 12.9744C8.65391 12.9744 4.32696 12.9744 0 12.9744V0Z" fill="#10162F" fill-opacity="0.63"/>
<path d="M14.3075 0H27.2884C27.2884 4.32481 27.2884 8.6496 27.2884 12.9744C22.9614 12.9744 18.6345 12.9744 14.3075 12.9744C14.3075 8.6496 14.3075 4.32481 14.3075 0Z" fill="#10162F" fill-opacity="0.63"/>
<path d="M117.053 4.94034C118.253 4.16109 119.797 4.09095 121.145 4.4572C121.153 5.25982 121.145 6.06242 121.153 6.86506C120.514 6.58455 119.757 6.39753 119.087 6.67804C118.549 6.88846 118.237 7.44169 118.152 7.98716C118.05 8.68073 118.121 9.38982 118.097 10.0911C119.469 10.0911 120.833 10.0911 122.206 10.0911C122.214 9.2028 122.198 8.31447 122.221 7.42614C123.149 7.16117 124.077 6.86506 124.997 6.58455C125.005 7.75339 124.989 8.92229 125.005 10.0989C125.933 10.0833 126.86 10.0989 127.78 10.0911V12.3665C126.852 12.3276 125.925 12.3587 124.989 12.3509C124.997 13.6601 124.989 14.9692 124.989 16.2784C125.005 17.0031 124.95 17.7355 125.036 18.4524C125.091 18.881 125.238 19.3486 125.644 19.5745C126.314 19.9486 127.164 19.785 127.78 19.3719V21.6707C126.977 22.0213 126.081 22.1226 125.215 22.0603C124.389 21.998 123.539 21.7019 123.001 21.0473C122.377 20.3071 122.221 19.3096 122.206 18.3667C122.198 16.3562 122.206 14.3458 122.206 12.3353C120.833 12.3353 119.469 12.3353 118.097 12.3353C118.097 15.4913 118.097 18.6473 118.097 21.8032C117.162 21.8032 116.226 21.8032 115.291 21.8032C115.291 18.6473 115.282 15.4913 115.291 12.3431C114.644 12.3276 113.989 12.3431 113.334 12.3353C113.334 11.5873 113.341 10.8392 113.334 10.0833C113.981 10.0677 114.628 10.0755 115.282 10.0755C115.329 9.07812 115.181 8.05731 115.478 7.08323C115.727 6.22611 116.289 5.43905 117.053 4.94034Z" fill="#10162F" fill-opacity="0.63"/>
<path d="M56.9509 5.10423C57.5201 5.01851 58.1285 5.21333 58.5025 5.65747C58.9389 6.14061 59.0247 6.91206 58.6972 7.48093C58.3387 8.11989 57.5279 8.41601 56.8264 8.26018C56.1012 8.12769 55.4933 7.44972 55.5242 6.69389C55.501 5.90683 56.1715 5.19773 56.9509 5.10423Z" fill="#10162F" fill-opacity="0.63"/>
<path d="M35.4319 5.45456C36.7963 5.45456 38.153 5.45456 39.5172 5.45456C40.7881 8.6806 42.0667 11.8989 43.3375 15.125C43.6649 15.9354 43.969 16.7458 44.3042 17.5485C45.9414 13.5197 47.5943 9.49884 49.2236 5.46234C50.5335 5.43896 51.8432 5.45456 53.1531 5.45456C53.1531 10.9093 53.1531 16.364 53.1531 21.8187C52.2096 21.8187 51.2663 21.8265 50.3229 21.811C50.3307 17.7899 50.3229 13.7613 50.3307 9.7326C50.3307 9.55338 50.323 9.37416 50.3152 9.18714C50.2606 9.27287 50.2137 9.35856 50.1671 9.45209C48.5454 13.5743 46.8925 17.6809 45.2787 21.8031C44.6082 21.8265 43.9378 21.8031 43.2595 21.8187C41.5832 17.6965 39.9304 13.5665 38.2698 9.4443C38.2231 9.35856 38.1763 9.27287 38.1295 9.19493C38.0983 10.956 38.1217 12.7249 38.1138 14.4859C38.1138 16.9251 38.1138 19.3719 38.1138 21.811C37.2252 21.811 36.3286 21.811 35.4398 21.811C35.4319 16.364 35.4319 10.9093 35.4319 5.45456Z" fill="#10162F" fill-opacity="0.63"/>
<path d="M64.6793 10.0768C66.0357 9.68716 67.4932 9.70275 68.8502 10.0923C69.1305 10.1703 69.3956 10.2794 69.6533 10.4274C69.6372 11.3235 69.6533 12.2197 69.645 13.108C68.7412 12.4145 67.595 11.9782 66.4411 12.1262C65.5289 12.2119 64.6555 12.6795 64.1101 13.4197C63.4081 14.3314 63.2443 15.5471 63.3693 16.6692C63.4628 17.5419 63.8212 18.4225 64.4994 18.9992C65.2092 19.6303 66.1993 19.8486 67.1269 19.7784C68.0392 19.6693 68.9044 19.2875 69.645 18.7419C69.6533 19.5913 69.645 20.433 69.6533 21.2823C68.5071 21.9681 67.1269 22.1394 65.8171 22.0771C64.4762 22.0071 63.1353 21.5005 62.1606 20.5498C61.1002 19.529 60.5316 18.0795 60.4613 16.6224C60.3911 15.1106 60.703 13.5288 61.5682 12.2665C62.2933 11.1989 63.4319 10.4352 64.6793 10.0768Z" fill="#10162F" fill-opacity="0.63"/>
<path d="M95.3414 9.90396C96.6359 9.67799 98 9.84162 99.2242 10.3092C99.2242 11.1663 99.2242 12.0313 99.2242 12.8885C98.3663 12.2962 97.3141 11.9845 96.2769 12.0157C95.7547 12.0391 95.1778 12.2573 94.936 12.756C94.749 13.2469 94.8735 13.8937 95.3414 14.1899C96.1369 14.7198 97.0879 14.9457 97.9143 15.4288C98.5615 15.7951 99.1926 16.2704 99.5202 16.9561C100.136 18.2419 99.8792 19.9485 98.7872 20.9068C97.7505 21.8732 96.2537 22.1458 94.8812 22.0913C93.9071 22.029 92.9248 21.8342 92.028 21.4368C92.0358 20.5329 92.0203 19.6289 92.0357 18.725C92.792 19.2704 93.6576 19.6679 94.5853 19.8237C95.2247 19.925 95.9261 19.9328 96.5263 19.6445C97.0955 19.3641 97.2045 18.5459 96.8616 18.0471C96.5419 17.6652 96.0744 17.4549 95.6374 17.2444C94.8115 16.8705 93.9381 16.5587 93.2129 16.0054C92.6985 15.608 92.3162 15.0469 92.1608 14.4158C91.9345 13.4807 92.0048 12.4287 92.5502 11.6183C93.1664 10.6676 94.2423 10.0988 95.3414 9.90396Z" fill="#10162F" fill-opacity="0.63"/>
<path d="M75.9205 10.2724C76.6922 9.80484 77.6823 9.76589 78.5243 10.0542C78.5166 10.9893 78.5243 11.9244 78.5243 12.8595C77.9712 12.501 77.2769 12.3451 76.6297 12.4153C75.8348 12.5088 75.203 13.1166 74.8756 13.818C74.5172 14.5582 74.4547 15.3997 74.4785 16.2103C74.4785 18.0803 74.4785 19.9505 74.4785 21.8207C73.5579 21.8207 72.6303 21.8207 71.7103 21.8207C71.7103 17.9168 71.7103 14.0049 71.7103 10.1009C72.6303 10.0853 73.5579 10.0931 74.4785 10.1009C74.4701 10.7711 74.4785 11.4413 74.4785 12.1114C74.7743 11.3789 75.2185 10.6698 75.9205 10.2724Z" fill="#10162F" fill-opacity="0.63"/>
<path d="M55.7808 10.0918C56.7084 10.0918 57.6443 10.0762 58.5721 10.0996C58.5643 14.0036 58.5721 17.9153 58.5643 21.8194C57.6366 21.8194 56.7084 21.8194 55.7808 21.8194C55.7808 17.9076 55.7808 14.0036 55.7808 10.0918Z" fill="#10162F" fill-opacity="0.63"/>
<path d="M90.1656 12.826C89.6821 11.7429 88.8009 10.8389 87.7095 10.348C86.4621 9.77918 85.0354 9.70124 83.6946 9.87267C82.2751 10.0519 80.9032 10.7143 80.0066 11.8442C79.188 12.8494 78.7903 14.143 78.7127 15.4286C78.6033 16.9404 78.8527 18.5457 79.7417 19.8081C80.4978 20.899 81.6904 21.647 82.9849 21.9198C84.0608 22.1458 85.1914 22.1458 86.2752 21.9198C87.538 21.6627 88.7151 20.9613 89.4951 19.9328C90.2591 18.9586 90.6407 17.7353 90.7265 16.5196C90.8122 15.2728 90.6877 13.9792 90.1656 12.826ZM87.4601 18.2105C87.1951 18.8106 86.7038 19.3249 86.0799 19.5665C85.3552 19.847 84.5366 19.8626 83.7881 19.6678C83.0242 19.4652 82.3769 18.9198 82.0257 18.2184C81.5738 17.3145 81.5035 16.2703 81.5969 15.2807C81.6828 14.3845 81.9947 13.4572 82.6807 12.8338C83.1796 12.3662 83.8584 12.1403 84.5287 12.1013C85.3707 12.0468 86.2673 12.2883 86.8754 12.8962C87.5225 13.5351 87.772 14.4546 87.8423 15.343C87.9042 16.3092 87.8655 17.3145 87.4601 18.2105Z" fill="#10162F" fill-opacity="0.63"/>
<path d="M112.647 13.1694C112.218 12.0083 111.353 10.9953 110.238 10.4421C108.96 9.79526 107.471 9.70179 106.075 9.87321C104.945 10.0213 103.837 10.4498 102.972 11.2057C101.92 12.1097 101.304 13.4421 101.116 14.8059C100.945 16.1695 101 17.6033 101.561 18.8813C102.091 20.1358 103.144 21.1488 104.414 21.6475C105.662 22.1385 107.05 22.1931 108.367 21.9827C109.708 21.7645 110.986 21.0553 111.821 19.9645C112.71 18.8423 113.092 17.385 113.092 15.9669C113.107 15.0241 112.991 14.0577 112.647 13.1694ZM110.114 17.1436C110.005 17.7591 109.794 18.3747 109.388 18.8656C108.983 19.3566 108.375 19.6528 107.751 19.7462C107.081 19.8475 106.371 19.8008 105.74 19.528C105.061 19.2397 104.539 18.6553 104.258 17.9774C103.923 17.1747 103.861 16.2785 103.923 15.4215C103.986 14.5876 104.219 13.7305 104.773 13.0837C105.272 12.4759 106.044 12.1486 106.823 12.1019C107.619 12.0473 108.461 12.2265 109.069 12.7642C109.63 13.2318 109.942 13.9252 110.083 14.6344C110.254 15.4605 110.254 16.3175 110.114 17.1436Z" fill="#10162F" fill-opacity="0.63"/>
<path d="M0 14.2991C4.32696 14.2991 8.65391 14.2991 12.9808 14.2991C12.9808 18.6239 12.9808 22.9487 12.9808 27.2734H0V14.2991Z" fill="#10162F" fill-opacity="0.63"/>
<path d="M14.3075 14.2991C18.6345 14.2991 22.9614 14.2991 27.2884 14.2991C27.2884 18.6239 27.2884 22.9487 27.2884 27.2734H14.3075C14.3075 22.9487 14.3075 18.6239 14.3075 14.2991Z" fill="#10162F" fill-opacity="0.63"/>
</g>
</svg>
