<svg width="135" height="55" viewBox="0 0 135 55" fill="none" xmlns="http://www.w3.org/2000/svg">
<path d="M88 11.0755L135 0L112.656 35L88 11.0755Z" fill="#FFC700"/>
<path d="M97 20.0319L100.979 33V23.0704L135 0L97 20.0319Z" fill="#FF9900"/>
<path d="M105.5 27.5L101 33V23L105.5 27.5Z" fill="#C96000"/>
<path d="M96.5038 36.455C96.4358 36.455 96.3693 36.4349 96.3127 36.3973C96.2561 36.3597 96.2117 36.3063 96.1853 36.2437C96.1588 36.1811 96.1514 36.1121 96.1639 36.0452C96.1765 35.9784 96.2084 35.9168 96.2558 35.868C96.6538 35.459 97.0567 35.045 97.4427 34.625C97.4736 34.5913 97.5109 34.564 97.5523 34.5448C97.5938 34.5255 97.6387 34.5147 97.6843 34.5129C97.73 34.5111 97.7756 34.5183 97.8185 34.5342C97.8613 34.5502 97.9006 34.5744 97.934 34.6056C97.9675 34.6368 97.9944 34.6743 98.0132 34.7159C98.0321 34.7576 98.0425 34.8025 98.0439 34.8482C98.0452 34.8939 98.0375 34.9395 98.0212 34.9822C98.0049 35.0249 97.9803 35.0639 97.9488 35.097C97.5578 35.517 97.1548 35.943 96.7518 36.352C96.7194 36.3849 96.6808 36.411 96.6382 36.4287C96.5956 36.4463 96.5499 36.4553 96.5038 36.455ZM60.1418 54.553C60.0503 54.5538 59.9622 54.5182 59.8969 54.4541C59.8317 54.39 59.7945 54.3025 59.7937 54.211C59.7929 54.1195 59.8285 54.0315 59.8927 53.9662C59.9568 53.9009 60.0443 53.8638 60.1357 53.863C61.2759 53.8365 62.4137 53.7461 63.5437 53.592C63.7337 53.569 63.9068 53.702 63.9298 53.885C63.9417 53.9752 63.9175 54.0664 63.8624 54.1387C63.8073 54.211 63.7258 54.2586 63.6357 54.271C62.4813 54.4298 61.3187 54.522 60.1537 54.547C60.1477 54.553 60.1418 54.553 60.1418 54.553ZM56.6877 54.409H56.6537C55.4916 54.2862 54.3395 54.0824 53.2057 53.799C53.117 53.7761 53.0407 53.7193 52.9934 53.6407C52.9461 53.5622 52.9315 53.4682 52.9527 53.379C52.9754 53.2901 53.0322 53.2136 53.1108 53.1661C53.1893 53.1186 53.2834 53.1038 53.3727 53.125C54.4548 53.402 55.5827 53.597 56.7287 53.718C56.9187 53.741 57.0567 53.908 57.0337 54.098C57.0246 54.1834 56.9842 54.2624 56.9204 54.3198C56.8565 54.3773 56.7736 54.409 56.6877 54.409ZM66.9858 53.649C66.9016 53.6483 66.8206 53.6167 66.7582 53.5603C66.6958 53.5038 66.6562 53.4265 66.6469 53.3428C66.6377 53.2592 66.6595 53.175 66.7081 53.1063C66.7567 53.0376 66.8288 52.9891 66.9108 52.97C68.0239 52.706 69.1264 52.3988 70.2158 52.049C70.2587 52.035 70.3041 52.0296 70.3492 52.0333C70.3943 52.037 70.4382 52.0496 70.4783 52.0705C70.5185 52.0913 70.554 52.12 70.583 52.1548C70.6119 52.1896 70.6336 52.2298 70.6468 52.273C70.661 52.3161 70.6665 52.3615 70.6628 52.4067C70.6592 52.4519 70.6466 52.496 70.6258 52.5362C70.6049 52.5765 70.5762 52.6121 70.5413 52.6411C70.5064 52.6701 70.4661 52.6919 70.4228 52.705C69.2887 53.068 68.1608 53.385 67.0667 53.638C67.0405 53.6441 67.0127 53.6478 66.9858 53.649ZM50.0107 52.723C49.9649 52.7247 49.9194 52.7144 49.8787 52.693C48.7996 52.2404 47.753 51.7135 46.7467 51.116C46.669 51.0689 46.6129 50.9931 46.5905 50.9051C46.5681 50.817 46.5811 50.7236 46.6267 50.645C46.6737 50.5669 46.7496 50.5104 46.8379 50.4877C46.9263 50.4651 47.02 50.4781 47.0987 50.524C48.0887 51.111 49.1127 51.629 50.1377 52.054C50.1797 52.0711 50.2178 52.0964 50.2499 52.1283C50.2819 52.1603 50.3073 52.1984 50.3244 52.2403C50.3416 52.2822 50.3502 52.3272 50.3497 52.3724C50.3492 52.4177 50.3397 52.4625 50.3218 52.504C50.2987 52.5678 50.2566 52.623 50.2011 52.6622C50.1457 52.7014 50.0786 52.7226 50.0107 52.723ZM73.5658 51.548C73.4851 51.5481 73.407 51.5201 73.3449 51.4687C73.2828 51.4173 73.2405 51.3459 73.2255 51.2667C73.2104 51.1875 73.2235 51.1055 73.2624 51.0349C73.3014 50.9643 73.3637 50.9095 73.4388 50.88C73.6408 50.8 73.8418 50.72 74.0438 50.633C74.903 50.2804 75.7549 49.91 76.5988 49.522C76.6403 49.5028 76.6852 49.4921 76.7309 49.4904C76.7766 49.4887 76.8222 49.4962 76.865 49.5123C76.9078 49.5284 76.9469 49.5528 76.9802 49.5842C77.0135 49.6156 77.0402 49.6532 77.0588 49.695C77.1398 49.867 77.0658 50.075 76.8867 50.155C76.0407 50.541 75.1718 50.921 74.3078 51.278C74.1068 51.364 73.8998 51.445 73.6978 51.525C73.6555 51.5405 73.6108 51.5483 73.5658 51.548ZM44.0757 49.205C43.9986 49.2057 43.9237 49.1796 43.8638 49.131C43.0208 48.4685 42.2156 47.7594 41.4517 47.007C40.3067 46.9962 39.1624 46.9462 38.0207 46.857C37.9756 46.8539 37.9315 46.8418 37.8911 46.8215C37.8507 46.8012 37.8147 46.773 37.7852 46.7387C37.7557 46.7044 37.7333 46.6646 37.7193 46.6215C37.7054 46.5785 37.7001 46.5331 37.7038 46.488C37.707 46.443 37.7192 46.399 37.7396 46.3587C37.7599 46.3184 37.7881 46.2825 37.8224 46.2531C37.8567 46.2237 37.8965 46.2015 37.9395 46.1875C37.9824 46.1736 38.0277 46.1683 38.0728 46.172C39.1488 46.252 40.2137 46.304 41.2497 46.316C41.3149 46.2531 41.4024 46.2184 41.493 46.2195C41.5836 46.2206 41.6701 46.2575 41.7337 46.322C42.5448 47.133 43.4038 47.893 44.2887 48.59C44.3247 48.6176 44.3548 48.6521 44.3773 48.6915C44.3997 48.7308 44.414 48.7743 44.4195 48.8193C44.4249 48.8643 44.4212 48.9099 44.4087 48.9535C44.3962 48.9971 44.3752 49.0377 44.3467 49.073C44.3147 49.1141 44.2738 49.1473 44.227 49.1702C44.1802 49.193 44.1278 49.205 44.0757 49.205ZM79.8457 48.67C79.7829 48.6706 79.7211 48.6537 79.6672 48.6212C79.6134 48.5887 79.5696 48.5419 79.5408 48.486C79.5199 48.4456 79.5071 48.4015 79.5034 48.3561C79.4996 48.3108 79.5048 48.2651 79.5188 48.2218C79.5327 48.1785 79.5551 48.1384 79.5846 48.1037C79.6141 48.0691 79.6502 48.0407 79.6908 48.02C80.7071 47.4914 81.7107 46.9385 82.7008 46.362C82.74 46.3389 82.7834 46.3238 82.8285 46.3177C82.8736 46.3115 82.9195 46.3145 82.9635 46.3263C83.0074 46.3381 83.0486 46.3586 83.0845 46.3866C83.1205 46.4145 83.1505 46.4493 83.1728 46.489C83.1957 46.5282 83.2107 46.5715 83.2167 46.6165C83.2228 46.6616 83.2198 46.7073 83.208 46.7512C83.1962 46.795 83.1757 46.8361 83.1479 46.8719C83.12 46.9078 83.0853 46.9377 83.0458 46.96C82.0558 47.542 81.0318 48.1 80.0008 48.636C79.9525 48.6593 79.8994 48.671 79.8457 48.67ZM44.9557 46.909C44.8665 46.9082 44.781 46.873 44.7172 46.8107C44.6533 46.7483 44.616 46.6637 44.613 46.5746C44.6101 46.4854 44.6417 46.3985 44.7013 46.332C44.7608 46.2656 44.8438 46.2248 44.9327 46.218C46.0721 46.1416 47.2073 46.0128 48.3347 45.832C48.4255 45.8184 48.5179 45.841 48.5921 45.8949C48.6664 45.9487 48.7165 46.0296 48.7318 46.12C48.7454 46.2106 48.7229 46.3029 48.6693 46.3771C48.6156 46.4513 48.535 46.5016 48.4447 46.517C47.3277 46.696 46.1587 46.828 44.9787 46.909H44.9557ZM34.6117 46.5C34.5947 46.5 34.5827 46.5 34.5658 46.494C33.4176 46.3369 32.2738 46.1488 31.1357 45.93C31.0482 45.9106 30.9716 45.858 30.9221 45.7832C30.8727 45.7084 30.8541 45.6174 30.8705 45.5292C30.8868 45.441 30.9367 45.3627 31.0097 45.3106C31.0827 45.2585 31.1731 45.2368 31.2617 45.25C32.4017 45.47 33.5467 45.654 34.6577 45.81C34.8477 45.832 34.9807 46.01 34.9517 46.2C34.9407 46.2826 34.9002 46.3584 34.8377 46.4135C34.7753 46.4686 34.695 46.4993 34.6117 46.5ZM51.7717 45.81C51.6877 45.8104 51.6064 45.7803 51.543 45.7251C51.4796 45.67 51.4385 45.5937 51.4272 45.5104C51.4159 45.4272 51.4353 45.3426 51.4818 45.2727C51.5283 45.2027 51.5986 45.152 51.6797 45.13C52.8368 44.82 53.9188 44.44 54.8918 44.008C55.0638 43.933 55.2717 44.008 55.3457 44.18C55.4207 44.353 55.3457 44.56 55.1737 44.635C54.1022 45.1062 52.9955 45.493 51.8638 45.792C51.8342 45.8027 51.8031 45.8095 51.7717 45.81ZM27.8197 45.21C27.7907 45.21 27.7677 45.205 27.7397 45.2C26.946 45.0085 26.1552 44.8048 25.3677 44.589L24.3827 44.313C24.3392 44.3007 24.2985 44.2799 24.263 44.2518C24.2275 44.2237 24.198 44.1888 24.176 44.1492C24.1541 44.1096 24.1402 44.066 24.1352 44.021C24.1302 43.976 24.1341 43.9305 24.1467 43.887C24.1591 43.8435 24.1799 43.8028 24.208 43.7673C24.2361 43.7318 24.271 43.7022 24.3106 43.6803C24.3502 43.6584 24.3938 43.6445 24.4387 43.6395C24.4837 43.6344 24.5293 43.6384 24.5727 43.651C24.8957 43.743 25.2227 43.835 25.5517 43.921C26.3407 44.134 27.1287 44.341 27.9057 44.526C28.0897 44.572 28.2057 44.756 28.1597 44.94C28.1409 45.0163 28.0974 45.0842 28.0358 45.1331C27.9743 45.1819 27.8983 45.209 27.8197 45.21ZM85.8138 45.188C85.7565 45.1881 85.7002 45.1739 85.6499 45.1466C85.5996 45.1194 85.5569 45.08 85.5257 45.032C85.4764 44.9553 85.459 44.8624 85.4773 44.7731C85.4957 44.6837 85.5482 44.6051 85.6237 44.554C86.5838 43.9282 87.5262 43.2756 88.4498 42.597C88.4863 42.5697 88.5279 42.55 88.5722 42.539C88.6164 42.528 88.6624 42.5259 88.7075 42.5329C88.7526 42.5399 88.7958 42.5558 88.8346 42.5797C88.8735 42.6036 88.9072 42.635 88.9338 42.672C88.961 42.7086 88.9808 42.7502 88.9918 42.7944C89.0028 42.8387 89.0049 42.8847 88.9979 42.9298C88.9909 42.9748 88.975 43.0181 88.9511 43.0569C88.9272 43.0958 88.8958 43.1295 88.8587 43.156C87.9238 43.8403 86.9701 44.4985 85.9987 45.13C85.9438 45.1665 85.8797 45.1867 85.8138 45.188ZM39.1937 44.33C39.1416 44.3298 39.0902 44.3178 39.0434 44.2947C38.9966 44.2717 38.9557 44.2383 38.9237 44.197C38.618 43.8134 38.3222 43.4219 38.0367 43.023C37.6423 42.4749 37.268 41.9125 36.9147 41.337C36.8715 41.2586 36.8602 41.1665 36.8831 41.0799C36.906 40.9934 36.9614 40.919 37.0378 40.8722C37.1142 40.8254 37.2057 40.8099 37.2932 40.8289C37.3807 40.8479 37.4576 40.8998 37.5077 40.974C37.8477 41.527 38.2158 42.079 38.6077 42.62C38.8828 43.006 39.1768 43.392 39.4707 43.766C39.4992 43.8013 39.5202 43.842 39.5327 43.8855C39.5452 43.9291 39.5489 43.9747 39.5435 44.0197C39.538 44.0647 39.5237 44.1082 39.5013 44.1476C39.4788 44.187 39.4487 44.2215 39.4128 44.249C39.3518 44.3012 39.274 44.3306 39.1937 44.33ZM21.1707 43.317C21.1337 43.3162 21.097 43.3102 21.0617 43.299C19.9632 42.9403 18.8698 42.5663 17.7817 42.177C17.6957 42.1454 17.6257 42.0812 17.5867 41.9983C17.5478 41.9153 17.5431 41.8204 17.5737 41.734C17.6055 41.6482 17.6698 41.5784 17.7528 41.5396C17.8357 41.5009 17.9305 41.4963 18.0167 41.527C19.1277 41.924 20.2217 42.298 21.2807 42.643C21.3243 42.657 21.3646 42.6794 21.3995 42.709C21.4343 42.7386 21.463 42.7748 21.4838 42.8155C21.5046 42.8562 21.5172 42.9006 21.5208 42.9462C21.5244 42.9917 21.5189 43.0376 21.5047 43.081C21.4798 43.1498 21.4345 43.2092 21.3748 43.2514C21.3151 43.2936 21.2439 43.3165 21.1707 43.317ZM58.0107 42.925C57.9578 42.925 57.9056 42.9131 57.8578 42.8903C57.81 42.8674 57.768 42.8342 57.7347 42.793C57.6797 42.7204 57.6555 42.629 57.6673 42.5386C57.679 42.4482 57.7259 42.3661 57.7977 42.31C58.7417 41.584 59.4967 40.767 60.0487 39.875C60.0726 39.8361 60.104 39.8024 60.1411 39.7757C60.1782 39.7491 60.2202 39.7301 60.2647 39.7199C60.3092 39.7096 60.3553 39.7084 60.4003 39.7161C60.4453 39.7239 60.4883 39.7405 60.5267 39.765C60.6877 39.863 60.7397 40.076 60.6367 40.243C60.0427 41.204 59.2257 42.085 58.2188 42.863C58.1573 42.9042 58.0847 42.9258 58.0107 42.925ZM91.3968 41.106C91.3454 41.1052 91.2948 41.0935 91.2483 41.0718C91.2018 41.0501 91.1604 41.0188 91.1268 40.98C91.0979 40.9451 91.0762 40.9047 91.0632 40.8612C91.0501 40.8178 91.0459 40.7722 91.0507 40.7271C91.0556 40.682 91.0694 40.6383 91.0914 40.5986C91.1134 40.5589 91.1431 40.5241 91.1787 40.496C92.067 39.7722 92.9346 39.0236 93.7808 38.251C93.8144 38.2204 93.8538 38.1968 93.8966 38.1814C93.9395 38.166 93.9849 38.1592 94.0304 38.1614C94.0758 38.1636 94.1204 38.1747 94.1616 38.1941C94.2027 38.2135 94.2397 38.2408 94.2703 38.2745C94.3009 38.3082 94.3245 38.3476 94.3399 38.3904C94.3553 38.4333 94.3621 38.4787 94.3599 38.5241C94.3577 38.5696 94.3466 38.6142 94.3272 38.6553C94.3078 38.6965 94.2804 38.7334 94.2467 38.764C93.39 39.5428 92.513 40.2991 91.6168 41.032C91.5536 41.0803 91.4762 41.1063 91.3968 41.106ZM14.6607 40.986C14.6176 40.9867 14.5748 40.9789 14.5347 40.963C13.4581 40.545 12.3854 40.117 11.3167 39.679C11.2323 39.644 11.1651 39.5772 11.1295 39.493C11.094 39.4088 11.093 39.314 11.1267 39.229C11.1618 39.1449 11.2284 39.0778 11.3124 39.0423C11.3964 39.0067 11.4909 39.0056 11.5757 39.039C12.6807 39.495 13.7567 39.926 14.7817 40.318C14.9607 40.387 15.0467 40.588 14.9777 40.767C14.9546 40.8321 14.9115 40.8882 14.8546 40.9274C14.7976 40.9665 14.7298 40.9867 14.6607 40.985V40.986ZM35.5907 38.447C35.5234 38.4474 35.4575 38.428 35.4011 38.3912C35.3447 38.3544 35.3004 38.3018 35.2738 38.24C34.7983 37.1667 34.4133 36.0555 34.1227 34.918C34.1115 34.8738 34.1092 34.8279 34.1159 34.7828C34.1226 34.7377 34.1381 34.6943 34.1617 34.6553C34.1852 34.6162 34.2162 34.5822 34.253 34.5552C34.2897 34.5282 34.3314 34.5088 34.3757 34.498C34.42 34.4868 34.4661 34.4846 34.5112 34.4913C34.5564 34.498 34.5997 34.5137 34.6388 34.5373C34.6779 34.5609 34.7119 34.5921 34.7388 34.6289C34.7657 34.6658 34.7851 34.7076 34.7957 34.752C35.0768 35.8497 35.4487 36.9221 35.9077 37.958C35.9818 38.13 35.9077 38.338 35.7287 38.413C35.6863 38.4356 35.6389 38.4473 35.5907 38.447ZM8.26075 38.367C8.21299 38.3655 8.1659 38.3553 8.12175 38.337C7.13775 37.917 6.10175 37.463 4.94975 36.957C4.86619 36.9196 4.8007 36.8508 4.7674 36.7655C4.7341 36.6802 4.73566 36.5852 4.77175 36.501C4.80921 36.4177 4.87784 36.3524 4.96291 36.3191C5.04798 36.2859 5.1427 36.2873 5.22675 36.323C6.37775 36.829 7.41375 37.279 8.39275 37.699C8.47696 37.7356 8.54345 37.8038 8.57786 37.8889C8.61228 37.974 8.61188 38.0692 8.57675 38.154C8.5515 38.2173 8.50771 38.2713 8.45112 38.3092C8.39454 38.347 8.32782 38.3668 8.25975 38.366L8.26075 38.367ZM61.5047 37.169C61.4878 37.169 61.4707 37.169 61.4478 37.163C61.4027 37.156 61.3595 37.1401 61.3207 37.1163C61.2818 37.0925 61.248 37.0613 61.2213 37.0244C61.1945 36.9875 61.1753 36.9457 61.1647 36.9013C61.1542 36.857 61.1525 36.811 61.1597 36.766C61.2637 36.139 61.3097 35.454 61.3097 34.734C61.3097 34.498 61.3037 34.257 61.2917 34.009C61.2807 33.807 61.2687 33.6 61.2517 33.399C61.2503 33.311 61.2823 33.2258 61.3413 33.1605C61.4003 33.0953 61.4819 33.0548 61.5696 33.0475C61.6573 33.0401 61.7445 33.0663 61.8136 33.1208C61.8827 33.1753 61.9285 33.254 61.9417 33.341C61.9799 33.8044 61.9989 34.2691 61.9987 34.734C61.9997 35.494 61.9487 36.214 61.8387 36.876C61.8293 36.9576 61.7899 37.0328 61.7282 37.0869C61.6665 37.141 61.5868 37.1703 61.5047 37.169ZM33.9797 31.765C33.8903 31.7643 33.8046 31.7293 33.7404 31.6671C33.6762 31.6049 33.6383 31.5204 33.6348 31.431C33.6287 31.311 33.6287 31.184 33.6287 31.063C33.6287 30.579 33.6518 30.096 33.7038 29.623C33.7676 29.0441 33.8753 28.4708 34.0257 27.908C34.0372 27.8645 34.0572 27.8236 34.0846 27.7878C34.112 27.7521 34.1463 27.7221 34.1853 27.6997C34.2244 27.6772 34.2676 27.6628 34.3123 27.6572C34.357 27.6516 34.4023 27.6549 34.4457 27.667C34.5339 27.6906 34.6093 27.7478 34.6556 27.8263C34.702 27.9049 34.7157 27.9985 34.6937 28.087C34.5557 28.617 34.4517 29.157 34.3937 29.699C34.3337 30.2686 34.3107 30.8415 34.3247 31.414C34.3275 31.5054 34.294 31.5942 34.2316 31.661C34.1693 31.7278 34.0831 31.7674 33.9917 31.771C33.9857 31.765 33.9797 31.765 33.9797 31.765ZM60.9417 30.338C60.8682 30.3389 60.7964 30.3157 60.7372 30.272C60.678 30.2284 60.6346 30.1666 60.6138 30.096C60.2786 29.0215 59.8149 27.9914 59.2327 27.028C59.1858 26.9501 59.1715 26.8568 59.1931 26.7684C59.2146 26.68 59.2702 26.6036 59.3477 26.556C59.4257 26.5091 59.519 26.4948 59.6074 26.5164C59.6958 26.5379 59.7721 26.5935 59.8197 26.671C60.4297 27.6838 60.9164 28.7658 61.2697 29.894C61.2971 29.981 61.2889 30.0753 61.2469 30.1563C61.2049 30.2372 61.1326 30.2982 61.0457 30.326C61.0115 30.3329 60.9767 30.3369 60.9417 30.338ZM35.7587 25.198C35.691 25.1984 35.6247 25.1782 35.5687 25.14C35.5304 25.1156 35.4973 25.0838 35.4714 25.0464C35.4454 25.0091 35.427 24.9671 35.4174 24.9227C35.4077 24.8782 35.4069 24.8323 35.4151 24.7876C35.4232 24.7429 35.4401 24.7002 35.4647 24.662C36.115 23.6626 36.9239 22.7759 37.8597 22.037C37.9317 21.9812 38.0227 21.956 38.1132 21.9668C38.2036 21.9777 38.2861 22.0237 38.3428 22.095C38.3987 22.1668 38.4241 22.2578 38.4134 22.3482C38.4028 22.4386 38.3569 22.5212 38.2857 22.578C37.4074 23.2684 36.6489 24.0989 36.0407 25.036C36.0119 25.0852 35.9707 25.1259 35.9212 25.1541C35.8717 25.1824 35.8157 25.1982 35.7587 25.198ZM57.3557 24.512C57.2682 24.5129 57.1836 24.4799 57.1197 24.42C56.6918 24.0208 56.2338 23.655 55.7497 23.326C55.3069 23.0252 54.8456 22.7524 54.3687 22.509C54.2876 22.4666 54.2264 22.3939 54.1983 22.3067C54.1703 22.2196 54.1776 22.1249 54.2188 22.043C54.2614 21.9621 54.3341 21.901 54.4212 21.873C54.5083 21.845 54.6029 21.8522 54.6847 21.893C55.7431 22.4301 56.7215 23.112 57.5917 23.919C57.7297 24.052 57.7417 24.27 57.6087 24.409C57.5414 24.4755 57.4504 24.5126 57.3557 24.512ZM51.3117 21.294C51.2777 21.294 51.2487 21.289 51.2137 21.283C50.1232 20.9634 49.0114 20.7212 47.8867 20.558C47.8417 20.5517 47.7984 20.5365 47.7592 20.5133C47.7201 20.4901 47.6859 20.4594 47.6587 20.423C47.6315 20.3865 47.6117 20.3451 47.6006 20.301C47.5894 20.2569 47.5871 20.211 47.5938 20.166C47.6001 20.1211 47.6153 20.0779 47.6384 20.0388C47.6615 19.9997 47.6921 19.9656 47.7284 19.9384C47.7648 19.9112 47.8061 19.8914 47.8501 19.8802C47.8941 19.869 47.9398 19.8665 47.9847 19.873C48.8392 19.9962 49.6864 20.1651 50.5227 20.379C50.8287 20.454 51.1227 20.535 51.4097 20.621C51.4974 20.6464 51.5715 20.7054 51.6157 20.7853C51.66 20.8651 51.6708 20.9592 51.6457 21.047C51.6237 21.1185 51.5795 21.181 51.5194 21.2254C51.4593 21.2699 51.3865 21.2939 51.3117 21.294ZM41.1007 21.012C41.0292 21.0113 40.9596 20.9889 40.9011 20.9479C40.8425 20.9068 40.7978 20.849 40.7727 20.782C40.7433 20.696 40.7491 20.6017 40.7888 20.5199C40.8285 20.4381 40.8989 20.3752 40.9847 20.345C41.3597 20.212 41.7508 20.103 42.1418 20.011C42.9064 19.838 43.6847 19.7319 44.4678 19.694C44.554 19.698 44.6356 19.734 44.6967 19.7949C44.7578 19.8559 44.794 19.9374 44.7983 20.0236C44.8025 20.1098 44.7745 20.1945 44.7197 20.2611C44.6648 20.3278 44.5871 20.3716 44.5017 20.384C43.7317 20.425 42.9817 20.524 42.2917 20.684C41.9237 20.771 41.5617 20.874 41.2097 20.995C41.1742 21.0064 41.1381 21.0121 41.1007 21.012ZM1.91775 35.58C1.87044 35.579 1.8237 35.5696 1.77975 35.552C1.25575 35.315 0.726749 35.08 0.202749 34.849C0.161579 34.8305 0.12446 34.8041 0.0935106 34.7712C0.0625609 34.7383 0.0383869 34.6997 0.0223688 34.6575C0.0063507 34.6153 -0.00119783 34.5704 0.000154229 34.5252C0.00150629 34.4801 0.0117325 34.4357 0.0302488 34.3945C0.0487652 34.3534 0.0752092 34.3162 0.108071 34.2853C0.140933 34.2543 0.179569 34.2302 0.221773 34.2142C0.263977 34.1981 0.308923 34.1906 0.354045 34.1919C0.399166 34.1933 0.443579 34.2035 0.484749 34.222C1.00934 34.4584 1.53501 34.6925 2.06175 34.924C2.23475 34.999 2.31475 35.206 2.23475 35.379C2.20675 35.4394 2.16198 35.4905 2.10577 35.5261C2.04957 35.5617 1.9843 35.5805 1.91775 35.58Z" fill="white"/>
</svg>
