<svg width="243" height="256" viewBox="0 0 243 256" fill="none" xmlns="http://www.w3.org/2000/svg">
<path d="M173.999 142.127C174.658 125.931 176.081 111.843 177.783 102.018C180.497 86.3563 182.942 77.3457 182.969 77.2496C183.326 75.8722 188.492 70.2989 199.976 70.4709C211.461 70.6429 210.372 77.9511 210.372 77.9511C210.373 78.199 210.341 78.4279 210.289 78.6012C210.178 78.9777 199.637 117.12 200.093 166.365C200.1 167.057 200.177 168.251 200.128 169.046C200.127 169.05 173.514 169.732 173.507 169.046C172.58 164.745 173.033 152.818 173.999 142.127Z" fill="#B7D3F3"/>
<path d="M170.652 166.124C170.659 166.81 171.023 167.359 171.465 167.359H171.476C171.92 167.349 172.271 166.8 172.277 166.124H195.085C195.093 166.81 195.457 167.359 195.9 167.359H195.911C196.361 167.349 196.72 166.781 196.714 166.087C196.581 151.989 197.387 138.826 198.606 127.209C201.638 98.2344 207.243 78.871 207.323 78.6028C207.373 78.4294 207.406 78.2005 207.406 77.9527C207.406 77.9527 208.494 70.6445 197.011 70.4725C185.526 70.2991 180.36 75.8737 180.003 77.2511C179.981 77.3229 178.598 82.4262 176.759 91.598C176.149 94.6372 175.492 98.122 174.816 102.017C173.114 111.842 171.692 125.933 171.032 142.126C170.063 152.818 169.725 161.821 170.652 166.124Z" fill="#D2E3FC"/>
<path d="M198.398 167.36H108.979C108.979 167.36 111.062 158.952 162.847 160.204C199.494 161.089 198.398 167.36 198.398 167.36Z" fill="#C5DCF8"/>
<path d="M205.675 255.187C195.307 202.815 197.974 170.679 197.986 170.274C198.012 169.468 196.523 168.735 195.722 168.709C194.911 168.694 191.333 168.471 190.919 169.16C190.377 170.065 188.288 209.66 203.741 255.187H205.675Z" fill="#B7D3F3"/>
<path d="M122.186 255.187C132.555 202.815 129.889 170.679 129.875 170.274C129.85 169.468 131.339 168.735 132.139 168.709C132.951 168.694 136.529 168.471 136.943 169.16C137.484 170.065 139.573 209.66 124.122 255.187H122.186Z" fill="#B7D3F3"/>
<path d="M105.64 255.187C116.009 202.815 113.343 170.679 113.329 170.274C113.303 169.468 114.792 168.735 115.593 168.709C116.405 168.694 119.983 168.471 120.397 169.16C120.94 170.065 123.027 209.66 107.575 255.187H105.64Z" fill="#B7D3F3"/>
<path d="M189.02 255.187C178.652 202.815 181.318 170.679 181.331 170.274C181.357 169.468 179.868 168.735 179.067 168.709C178.257 168.694 174.677 168.471 174.264 169.16C173.721 170.065 171.633 209.66 187.085 255.187H189.02Z" fill="#B7D3F3"/>
<path d="M108.924 170.043H198.343C199.35 170.043 200.175 169.221 200.175 168.215V167.013C200.175 166.008 199.352 165.185 198.343 165.185H108.924C107.917 165.185 107.092 166.007 107.092 167.013V168.215C107.092 169.221 107.917 170.043 108.924 170.043Z" fill="#B7D3F3"/>
<path d="M112.067 89.4645L82.3431 83.0408L80.5921 87.2975C80.5921 87.2975 113.389 106.771 116.462 105.817C119.536 104.864 112.067 89.4645 112.067 89.4645Z" fill="#FFB27D"/>
<path d="M139.089 223.603C139.833 224.454 139.928 225.404 139.559 226.422C139.559 226.426 139.556 226.431 139.552 226.435C138.869 228.314 136.619 230.412 134.004 232.507C133.671 232.776 133.373 233.021 133.114 233.248C133.046 233.307 132.978 233.367 132.915 233.426C132.862 233.472 132.811 233.521 132.761 233.565C130.322 235.807 131.24 236.321 126.86 240.873C121.865 246.059 118.427 246.152 117.448 245.679C116.62 245.276 118.303 242.526 120.165 239.436C120.255 239.287 120.343 239.136 120.435 238.985C120.684 238.573 120.931 238.156 121.176 237.744C123.36 234.024 122.798 232.278 122.281 226.741C121.861 222.242 115.267 201.604 115.267 201.604L124.838 199.958C124.838 199.958 127.72 216.391 130.898 218.922C132.596 220.271 134.497 220.288 136.129 221.289C136.244 221.358 136.358 221.429 136.468 221.502C137.398 222.116 138.342 222.75 139.089 223.603Z" fill="#FFB27D"/>
<path d="M139.089 223.603C139.833 224.453 139.928 225.404 139.559 226.421C139.559 226.425 139.556 226.431 139.552 226.435C138.717 228.312 136.522 230.399 133.995 232.488C133.665 232.761 133.373 233.012 133.113 233.247C133.045 233.307 132.977 233.365 132.913 233.426C132.86 233.472 132.81 233.52 132.76 233.564C130.321 235.807 131.238 236.32 126.858 240.872C121.863 246.058 118.425 246.152 117.447 245.679C116.619 245.275 118.302 242.526 120.164 239.435C121.136 239.079 125.653 237.249 129.068 232.89C132.074 229.061 134.081 224.141 136.129 221.29C136.244 221.359 136.358 221.43 136.468 221.504C137.398 222.116 138.342 222.75 139.089 223.603Z" fill="#1C468A"/>
<path d="M61.9072 217.637C61.3154 220.586 57.105 220.094 52.3992 218.947C47.6947 217.8 48.8118 219.164 42.1161 218.423C35.4191 217.683 33.3913 215.193 33.1863 214.199C33.0044 213.317 36.3122 213.007 39.8616 212.598C40.3082 212.548 40.7561 212.492 41.2053 212.437C45.2122 211.934 48.1467 209.355 51.7857 207.236C55.2333 205.229 60.3789 197.051 60.3789 197.051L69.5625 197.777C69.5625 197.777 64.7427 205.081 62.8791 208.256C61.7824 210.123 61.8407 212.594 61.9778 214.501C62.0484 215.539 62.1163 216.598 61.9072 217.637Z" fill="#FFB27D"/>
<path d="M52.3995 218.947C47.6937 217.8 48.8121 219.164 42.1151 218.424C35.4181 217.683 33.3902 215.193 33.1866 214.199C33.0034 213.317 36.3125 213.007 39.8619 212.598L39.8959 212.665C39.8959 212.665 43.9108 215.507 49.4867 215.641C54.0297 215.751 58.8414 214.452 61.9795 214.502C62.0501 215.538 62.118 216.599 61.9089 217.636C61.3171 220.586 57.1053 220.093 52.3995 218.947Z" fill="#1C468A"/>
<path d="M82.3424 83.0406C82.3424 83.0406 80.1544 77.6908 77.7465 77.4728C75.34 77.2547 67.6806 76.0534 67.1336 77.145C66.5866 78.2366 67.1336 82.167 68.7746 83.5864C70.4156 85.0058 80.5901 87.2974 80.5901 87.2974L82.3424 83.0406Z" fill="#FFB27D"/>
<path d="M97.1031 159.04L116.896 212.191C116.896 212.191 119.936 212.485 122.851 211.647C125.534 210.876 128.608 208.85 128.608 208.85C128.608 208.85 123.697 157.816 114.695 147.2C105.696 136.585 97.1031 159.04 97.1031 159.04Z" fill="#163560"/>
<path d="M175.39 137.537C175.39 137.537 118.517 118.348 105.832 122.43C93.1475 126.514 55.0638 202.119 55.0638 202.119C55.0638 202.119 55.9216 203.259 58.2684 204.138C60.451 204.955 65.7323 204.903 65.7323 204.903C65.7323 204.903 100.102 175.507 104.195 166.933C108.286 158.359 109.923 150.193 114.014 151.01C118.106 151.827 166.797 171.016 177.843 159.585C188.89 148.154 186.002 133.3 186.002 133.3L175.39 137.537Z" fill="#1C468A"/>
<path d="M142.966 2.2269C145.424 0.831894 148.371 0.680201 150.431 0.802095C149.901 0.254928 148.857 0.0558423 148.857 0.0558423C150.134 -0.13377 152.987 1.13118 152.987 1.13118C170.761 -5.70299 173.555 20.412 173.181 26.4796C172.811 32.5459 172.766 39.5304 181.639 44.9709C199.097 55.6772 184.366 74.3689 184.366 74.3689C184.229 74.4502 176.244 87.9641 176.244 87.9641C176.691 83.0613 154.021 57.1873 142.192 49.439C139.314 45.2079 138.29 37.7359 138.213 37.1481C138.709 43.0721 139.725 46.3957 140.633 48.2674C130.619 39.0699 136.45 5.92163 142.966 2.2269Z" fill="#163560"/>
<path d="M142.892 49.8236C142.832 49.8507 148.602 52.8398 152.943 51.6561C157.026 50.5441 159.693 45.2634 159.637 45.2512C157.908 44.9086 157.41 42.5384 157.447 32.3508L156.665 32.5052L143.522 35.1015C143.522 35.1015 143.822 39.2283 143.83 43.1154C143.839 46.3794 143.64 49.4755 142.892 49.8236Z" fill="#FFB27D"/>
<path d="M143.523 35.1011C143.523 35.1011 143.823 39.2279 143.831 43.115C151.185 42.9091 155.072 36.213 156.665 32.5034L143.523 35.1011Z" fill="#ED975D"/>
<path d="M158.023 31.076C158.023 31.076 161.876 25.0003 162.802 19.8049C163.463 16.0953 161.57 2.34567 147.722 4.32576C147.722 4.32576 143.7 4.72124 139.92 7.26882C136.914 9.29496 132.576 13.6696 137.427 25.668L138.686 29.7216L158.023 31.076Z" fill="#163560"/>
<path d="M141.069 38.783C141.069 38.783 158.468 39.0687 158.481 28.254C158.493 17.4394 160.747 10.1921 149.638 9.55287C138.529 8.91225 136.366 13.0363 135.482 16.6457C134.597 20.2538 136.544 38.4295 141.069 38.783Z" fill="#FFB27D"/>
<path d="M141.712 9.28697C141.712 9.28697 146.476 21.9748 153.787 23.8506C161.099 25.7264 164.269 23.772 164.269 23.772C164.269 23.772 158.661 19.3256 157.498 11.5664C157.498 11.5664 145.306 3.24782 141.712 9.28697Z" fill="#163560"/>
<path d="M142.892 10.3166C142.892 10.3166 139.333 13.1499 138.467 15.9033C137.6 18.6581 137.209 24.3275 135.553 24.1339C135.553 24.1339 131.964 15.5106 135.997 10.6321C140.275 5.45977 142.892 10.3166 142.892 10.3166Z" fill="#163560"/>
<path d="M181.638 96.5332C183.354 89.3523 177.516 75.4186 171.423 63.882C165.893 53.4262 160.153 44.9452 159.639 45.2499C145.056 53.8867 143.738 46.7072 143.738 46.7072L143.736 46.7086C143.731 46.7099 130.489 48.4625 126.739 54.9052C122.087 62.8987 117.059 85.2351 112.067 89.4634C112.834 91.8051 112.504 93.0512 111.693 95.9522C111.518 96.5752 111.326 97.1657 111.114 97.7251C110.362 99.7661 109.421 101.421 108.607 102.861C111.146 104.399 116.047 107.326 119.657 105.222C125.163 102.008 129.457 92.2209 131.875 88.3244C131.884 88.3095 131.892 88.2959 131.902 88.2797C137.156 117.955 130.012 124.714 133.628 127.844C137.448 131.148 142.903 126.27 154.906 131.461C162.778 134.869 173.703 139.796 181.059 140.653C184.916 141.104 187.794 140.435 188.732 137.835C191.458 130.283 178.364 110.223 181.638 96.5332Z" fill="#00D280"/>
<path d="M188.731 137.836C187.792 140.435 184.916 141.106 181.059 140.653C175.969 138.44 153.979 129.939 154.224 124.18C154.589 115.653 158.452 115.379 155.724 104.853C153.533 96.402 173.853 80.6872 177.092 77.2715C183.185 88.8067 183.355 89.3525 181.638 96.5334C178.366 110.223 191.458 130.283 188.731 137.836Z" fill="#07AA64"/>
<path d="M191.218 107.08C187.319 101.616 183.256 98.7261 180.584 97.2729C181.198 95.6909 164.18 74.8728 164.18 71.6467C164.18 68.3813 159.64 45.25 159.64 45.25C159.64 45.25 173.82 46.1236 178.729 52.955C184.869 61.4998 197.622 94.3839 191.218 107.08Z" fill="#00D280"/>
<path d="M180.583 97.2729L152.246 104.65L154.905 109.414C154.905 109.414 189.391 109.174 191.218 107.079C193.045 104.983 180.583 97.2729 180.583 97.2729Z" fill="#FFB27D"/>
<path d="M131.875 88.3245C129.457 92.2223 125.162 102.008 119.658 105.223C116.048 107.326 111.146 104.401 108.608 102.862C109.42 101.423 110.362 99.7676 111.115 97.7265C113.14 98.1884 115.612 98.7789 117.207 99.2597C120.308 100.196 131.875 88.3245 131.875 88.3245Z" fill="#07AA64"/>
<path d="M152.246 104.65C152.246 104.65 143.348 102.137 141.228 102.725C139.108 103.312 131.846 108.11 132.867 109.413C133.887 110.716 140.286 108.632 143.23 109.027C146.172 109.423 148.45 110.872 150.57 110.557C152.69 110.245 154.907 109.413 154.907 109.413L152.246 104.65Z" fill="#FFB27D"/>
<path d="M152.245 104.65C152.245 104.65 147.892 102.418 146.653 101.149C146.497 100.987 146.232 101.023 146.113 101.211C145.78 101.734 145.471 102.741 146.998 103.744C149.195 105.186 152.245 104.65 152.245 104.65Z" fill="#FFB27D"/>
<path d="M111.121 117.143H152.638C152.638 115.32 151.156 113.841 149.329 113.841H111.121V117.143Z" fill="#1C468A"/>
<path d="M111.241 72.0259H47.0548L62.4495 117.143H127.053L111.241 72.0259Z" fill="#1C468A"/>
<path d="M46.1097 72.0259L61.5072 117.141H126.109L110.297 72.0259H46.1097Z" fill="#163560"/>
<path d="M80.7139 94.1669C81.1116 95.891 82.8368 97.2887 84.5647 97.2887C86.2925 97.2887 87.3689 95.891 86.9712 94.1669C86.5722 92.4428 84.8484 91.0464 83.1205 91.0464C81.3926 91.045 80.3149 92.4428 80.7139 94.1669Z" fill="white"/>
<path d="M46.1075 72.0259L61.505 117.141H104.288C75.9469 107.489 68.4029 78.0596 67.1379 72.0259H46.1075Z" fill="#1C468A"/>
<path d="M232.452 255.187C231.64 255.187 230.947 254.617 230.807 253.841L222.746 208.246L211.15 142.67L207.908 124.333L216.167 124.097L217.6 134.743L227.662 209.547L233.627 253.888C233.718 254.576 233.167 255.187 232.452 255.187Z" fill="#95C0F4"/>
<path d="M217.601 134.743C212.25 137.099 211.151 142.67 211.151 142.67L207.908 124.333L216.168 124.097L217.601 134.743Z" fill="#78ACEA"/>
<path d="M27.0194 255.187C27.8311 255.187 28.5247 254.617 28.6645 253.841L36.727 208.246L48.3226 142.67L51.5638 124.333L43.3045 124.097L41.8712 134.743L31.8094 209.547L25.844 253.888C25.753 254.576 26.3041 255.187 27.0194 255.187Z" fill="#95C0F4"/>
<path d="M41.8726 134.743C47.2231 137.099 48.3226 142.67 48.3226 142.67L51.5638 124.333L43.3045 124.097L41.8726 134.743Z" fill="#78ACEA"/>
<path d="M237.963 131.532H26.4597C23.6881 131.532 21.4214 129.27 21.4214 126.504V122.16C21.4214 119.395 23.6881 117.132 26.4597 117.132H237.963C240.733 117.132 243 119.394 243 122.16V126.504C243.001 129.27 240.733 131.532 237.963 131.532Z" fill="#78ACEA"/>
<path d="M10.7268 11.4446H55.6338C61.5341 11.4446 66.3607 16.2621 66.3607 22.1495V39.1022C66.3607 41.792 65.3509 44.257 63.6936 46.1436L66.3607 58.3126L50.9755 49.8072H10.7268C4.82655 49.8072 -6.10352e-05 44.9897 -6.10352e-05 39.1036V22.1509C-6.10352e-05 16.2621 4.82655 11.4446 10.7268 11.4446Z" fill="white"/>
<path d="M9.88161 24.3612H56.4377C57.396 24.3612 58.1791 23.5784 58.1791 22.6235C58.1791 21.6673 57.396 20.8845 56.4377 20.8845H9.88161C8.92334 20.8845 8.14014 21.6673 8.14014 22.6235C8.13878 23.5784 8.92334 24.3612 9.88161 24.3612Z" fill="#B7D3F3"/>
<path d="M9.88161 31.9701H56.4377C57.396 31.9701 58.1791 31.1886 58.1791 30.2324C58.1791 29.2762 57.396 28.4934 56.4377 28.4934H9.88161C8.92334 28.4934 8.14014 29.2749 8.14014 30.2324C8.13878 31.1873 8.92334 31.9701 9.88161 31.9701Z" fill="#B7D3F3"/>
<path d="M9.88161 39.2936H56.4377C57.396 39.2936 58.1791 38.5121 58.1791 37.5559C58.1791 36.5997 57.396 35.8169 56.4377 35.8169H9.88161C8.92334 35.8169 8.14014 36.5997 8.14014 37.5559C8.13878 38.5107 8.92334 39.2936 9.88161 39.2936Z" fill="#B7D3F3"/>
</svg>
