<svg width="45" height="45" viewBox="0 0 45 45" fill="none" xmlns="http://www.w3.org/2000/svg">
<rect width="45" height="45" rx="2" fill="#FBCCD4"/>
<g clip-path="url(#clip0_654_6)">
<path d="M34 32.3129C34 32.692 33.692 33 33.3121 33L12.6871 33C12.308 33 12 32.692 12 32.3121L12 25.4379C12 25.2554 12.0725 25.0805 12.2015 24.9515C12.3305 24.8225 12.5054 24.75 12.6879 24.75L33.3114 24.75C33.6913 24.75 33.9993 25.058 33.9993 25.4379L34 32.3129ZM27.125 23.375L12 23.375L12 18.5621C12.0002 18.3798 12.0727 18.2051 12.2017 18.0762C12.3307 17.9474 12.5056 17.875 12.6879 17.875L26.4379 17.875C26.817 17.875 27.125 18.183 27.125 18.5629L27.125 23.375ZM20.25 16.5L12 16.5L12 11.6871C12.0002 11.5048 12.0728 11.3301 12.2017 11.2012C12.3307 11.0724 12.5056 11 12.6879 11L19.5621 11C19.942 11 20.25 11.308 20.25 11.6879L20.25 16.5Z" fill="#CC3533"/>
</g>
<defs>
<clipPath id="clip0_654_6">
<rect width="22" height="22" fill="white" transform="translate(34 11) rotate(90)"/>
</clipPath>
</defs>
</svg>
