<svg width="24" height="21" viewBox="0 0 24 21" fill="none" xmlns="http://www.w3.org/2000/svg">
<path fill-rule="evenodd" clip-rule="evenodd" d="M0 12C0 5.37258 5.37258 0 12 0C18.6274 0 24 5.37258 24 12C24 14.9753 22.9172 17.6978 21.1241 19.7947C19.4075 17.0871 16.1343 15.2576 12.3788 15.2576C8.39332 15.2576 4.95114 17.318 3.33622 20.303C1.26978 18.1473 0 15.2219 0 12ZM15.529 10.3894C15.529 8.33569 13.86 6.66667 11.8063 6.66667C9.75259 6.66667 8.08357 8.33569 8.08357 10.3894C8.08357 12.4431 9.75259 14.1121 11.8063 14.1121C13.86 14.1121 15.529 12.4431 15.529 10.3894Z" fill="white"/>
</svg>
