<svg width="137" height="37" viewBox="0 0 137 37" fill="none" xmlns="http://www.w3.org/2000/svg">
<path d="M124.637 1C122.462 1 120.335 1.64514 118.526 2.85383C116.717 4.06253 115.307 5.78049 114.475 7.79048C113.642 9.80047 113.424 12.0122 113.849 14.146C114.273 16.2798 115.321 18.2398 116.859 19.7782C118.398 21.3166 120.358 22.3642 122.491 22.7886C124.625 23.2131 126.837 22.9952 128.847 22.1627C130.857 21.3301 132.575 19.9202 133.784 18.1113C134.992 16.3023 135.637 14.1756 135.637 12C135.637 9.08262 134.478 6.28473 132.416 4.22183C130.353 2.15893 127.555 1 124.637 1ZM124.637 21C122.857 21 121.117 20.4722 119.637 19.4832C118.157 18.4943 117.004 17.0887 116.322 15.4442C115.641 13.7996 115.463 11.99 115.81 10.2442C116.158 8.49836 117.015 6.89471 118.273 5.63604C119.532 4.37737 121.136 3.5202 122.882 3.17293C124.627 2.82567 126.437 3.0039 128.082 3.68508C129.726 4.36627 131.132 5.51983 132.121 6.99987C133.11 8.47991 133.637 10.22 133.637 12C133.637 14.3869 132.689 16.6761 131.001 18.364C129.314 20.0518 127.024 21 124.637 21Z" fill="black"/>
<path d="M125.637 7C125.637 6.44772 125.19 6 124.637 6C124.085 6 123.637 6.44772 123.637 7V12C123.637 12.5523 124.085 13 124.637 13C125.19 13 125.637 12.5523 125.637 12V7Z" fill="black"/>
<path d="M125.637 12C125.637 11.4477 125.19 11 124.637 11C124.085 11 123.637 11.4477 123.637 12V19C123.637 19.5523 124.085 20 124.637 20C125.19 20 125.637 19.5523 125.637 19V12Z" fill="black"/>
<mask id="mask0_70_317" style="mask-type:luminance" maskUnits="userSpaceOnUse" x="0" y="0" width="113" height="37">
<path d="M112.637 0H0V36.9401H112.637V0Z" fill="white"/>
</mask>
<g mask="url(#mask0_70_317)">
<path d="M18.1825 36.4828C28.2245 36.4828 36.3651 28.3158 36.3651 18.2414C36.3651 8.16698 28.2245 0 18.1825 0C8.14063 0 0 8.16698 0 18.2414C0 28.3158 8.14063 36.4828 18.1825 36.4828Z" fill="#10162F" fill-opacity="0.63"/>
<path d="M30.3075 18.2401C30.2533 16.7711 29.0239 15.6239 27.5551 15.6738C26.9043 15.6964 26.285 15.964 25.8151 16.4129C23.7451 14.9981 21.3135 14.2228 18.8141 14.1684L19.9937 8.47784L23.8852 9.29857C23.9936 10.3006 24.8885 11.026 25.8873 10.9173C26.8862 10.8085 27.6094 9.91068 27.5009 8.90865C27.3925 7.90653 26.4976 7.18105 25.4987 7.28988C24.9247 7.34881 24.4094 7.68435 24.1247 8.1831L19.6683 7.28988C19.3655 7.22188 19.0627 7.41232 18.9948 7.72063C18.9948 7.72517 18.9948 7.72517 18.9948 7.72971L17.6526 14.0595C15.1215 14.1004 12.6584 14.8803 10.5612 16.304C9.49459 15.2974 7.81327 15.3473 6.80989 16.4219C5.80653 17.492 5.85625 19.1788 6.92743 20.1854C7.13532 20.3804 7.37483 20.5481 7.64153 20.666C7.62342 20.9335 7.62342 21.2011 7.64153 21.4686C7.64153 25.5539 12.3872 28.8776 18.2401 28.8776C24.0931 28.8776 28.8386 25.5585 28.8386 21.4686C28.8568 21.2011 28.8568 20.9335 28.8386 20.666C29.7516 20.208 30.3257 19.2649 30.3075 18.2401ZM12.1251 20.0674C12.1251 19.0609 12.9431 18.2401 13.9464 18.2401C14.9498 18.2401 15.7679 19.0609 15.7679 20.0674C15.7679 21.0741 14.9498 21.8948 13.9464 21.8948C12.9385 21.8857 12.1251 21.0741 12.1251 20.0674ZM22.6874 25.0824C21.3949 26.0573 19.813 26.5561 18.1949 26.488C16.5769 26.5561 14.995 26.0573 13.7023 25.0824C13.5306 24.8738 13.5622 24.561 13.7702 24.3886C13.951 24.2391 14.2086 24.2391 14.3939 24.3886C15.4876 25.1912 16.821 25.5992 18.1768 25.5358C19.5327 25.6084 20.8706 25.2184 21.9779 24.4249C22.1767 24.2299 22.5021 24.2345 22.6965 24.434C22.8909 24.6335 22.8863 24.96 22.6874 25.155V25.0824ZM22.362 21.9582C21.3586 21.9582 20.5406 21.1376 20.5406 20.1309C20.5406 19.1243 21.3586 18.3037 22.362 18.3037C23.3655 18.3037 24.1835 19.1243 24.1835 20.1309C24.2241 21.1376 23.4422 21.9854 22.4389 22.0263C22.4072 22.0263 22.3801 22.0263 22.3485 22.0263L22.362 21.9582Z" fill="white"/>
<path d="M101.443 12.6763C102.811 12.6763 103.92 11.5638 103.92 10.1915C103.92 8.81922 102.811 7.70679 101.443 7.70679C100.075 7.70679 98.9665 8.81922 98.9665 10.1915C98.9665 11.5638 100.075 12.6763 101.443 12.6763Z" fill="#10162F" fill-opacity="0.63"/>
<path d="M66.3444 20.7675C67.3024 20.8355 68.1345 20.1101 68.2066 19.1443C68.2108 19.0899 68.2108 19.0264 68.2108 18.9675C68.1975 18.6319 68.1569 18.2918 68.089 17.9608C67.5017 14.814 64.8214 12.497 61.6348 12.3701C58.0056 12.3701 54.973 15.7163 54.973 19.8244C54.973 23.9324 57.9559 27.2833 61.6306 27.2833C63.5782 27.3604 65.4676 26.5714 66.778 25.125C67.3164 24.5355 67.2709 23.6242 66.6835 23.0846C66.6381 23.0437 66.5976 23.0075 66.5521 22.9758C65.9648 22.6085 65.2011 22.6856 64.7039 23.1661C63.8858 23.9823 62.7873 24.4494 61.6306 24.4856C59.6327 24.327 58.0327 22.7581 57.8339 20.7494H66.2899L66.3444 20.7675ZM61.6168 15.1768C63.3753 15.2946 64.8528 16.5552 65.2459 18.2827H57.9966C58.3854 16.5507 59.8543 15.2901 61.6168 15.1768Z" fill="#10162F" fill-opacity="0.63"/>
<path d="M55.1155 13.8161C55.1155 13.1178 54.6004 12.5238 53.9088 12.4377C52.0421 12.1248 50.1439 12.8185 48.9191 14.2695V14.0882C48.9191 13.3128 48.2954 12.6871 47.5226 12.6871C46.7497 12.6871 46.126 13.3128 46.126 14.0882V25.5598C46.1079 26.3125 46.6819 26.9519 47.4321 27.0154C48.196 27.0698 48.8649 26.4893 48.9147 25.7231C48.9191 25.6687 48.9191 25.6142 48.9147 25.5598V19.6744C48.7925 17.3257 50.5869 15.3261 52.928 15.199C53.136 15.1854 53.3484 15.19 53.5563 15.2127H53.8364C54.5596 15.1491 55.1155 14.5461 55.1155 13.8161Z" fill="#10162F" fill-opacity="0.63"/>
<path d="M102.835 15.321C102.835 14.5456 102.212 13.9199 101.438 13.9199C100.666 13.9199 100.042 14.5456 100.042 15.321V25.5549C100.042 26.3302 100.666 26.956 101.438 26.956C102.212 26.956 102.835 26.3302 102.835 25.5549V15.321Z" fill="#10162F" fill-opacity="0.63"/>
<path d="M82.2265 7.54477C82.2265 6.77394 81.6029 6.14819 80.835 6.14819C80.0665 6.14819 79.4428 6.77394 79.4428 7.54477V13.8021C78.5029 12.8499 77.21 12.3329 75.8765 12.3693C72.2474 12.3693 69.2146 15.7155 69.2146 19.8236C69.2146 23.9317 72.2025 27.2825 75.8765 27.2825C77.2324 27.3233 78.5435 26.8019 79.5057 25.836C79.7232 26.5751 80.4959 26.9967 81.2323 26.7791C81.7882 26.6159 82.186 26.1262 82.2224 25.5413L82.2265 7.54477ZM75.8674 24.521C73.7298 24.521 71.9899 22.4354 71.9899 19.8553C71.9899 17.2752 73.7164 15.1896 75.8674 15.1896C78.0191 15.1896 79.7455 17.2752 79.7455 19.8553C79.7455 22.4354 78.0191 24.4984 75.8765 24.4984L75.8674 24.521Z" fill="#10162F" fill-opacity="0.63"/>
<path d="M96.7881 7.54502C96.7881 6.77418 96.1643 6.14844 95.3958 6.14844C94.6274 6.14844 94.0036 6.77418 94.0036 7.54502V13.8023C93.0638 12.8501 91.7708 12.3332 90.4373 12.3695C86.8082 12.3695 83.7755 15.7158 83.7755 19.8238C83.7755 23.9319 86.7633 27.2827 90.4373 27.2827C91.7933 27.3236 93.1043 26.8021 94.0672 25.8363C94.284 26.5754 95.0567 26.9971 95.7937 26.7794C96.3496 26.6161 96.7469 26.1265 96.7833 25.5415L96.7881 7.54502ZM90.4332 24.5213C88.2954 24.5213 86.555 22.4356 86.555 19.8556C86.555 17.2755 88.2816 15.1898 90.4332 15.1898C92.5847 15.1898 94.3113 17.2755 94.3113 19.8556C94.3113 22.4356 92.5847 24.4986 90.4423 24.4986L90.4332 24.5213Z" fill="#10162F" fill-opacity="0.63"/>
<path d="M110.07 25.5515V15.1771H111.278C111.947 15.2179 112.516 14.7055 112.557 14.0389C112.557 14.0162 112.561 13.989 112.561 13.9619C112.62 13.2953 112.128 12.7059 111.467 12.6469C111.432 12.6424 111.391 12.6424 111.354 12.6424H110.076V10.7153C110.084 9.96719 109.515 9.33692 108.769 9.26892C108.005 9.21447 107.341 9.79486 107.287 10.5612C107.281 10.5929 107.282 10.6291 107.282 10.661V12.6742H106.071C105.402 12.6333 104.832 13.1456 104.792 13.8122C104.792 13.8349 104.788 13.8621 104.788 13.8893C104.729 14.5559 105.221 15.1453 105.881 15.2043C105.917 15.2088 105.958 15.2088 105.994 15.2088H107.201V25.556C107.201 26.3268 107.825 26.9525 108.594 26.9525C109.361 27.0024 110.016 26.413 110.066 25.6422C110.07 25.615 110.07 25.5833 110.07 25.5515Z" fill="#10162F" fill-opacity="0.63"/>
</g>
</svg>
