<svg width="118" height="36" viewBox="0 0 118 36" fill="none" xmlns="http://www.w3.org/2000/svg">
<mask id="mask0_70_303" style="mask-type:luminance" maskUnits="userSpaceOnUse" x="0" y="0" width="118" height="36">
<path d="M117.48 0H0V35.3019H117.48V0Z" fill="white"/>
</mask>
<g mask="url(#mask0_70_303)">
<path d="M114.747 14.3247H115.673C115.925 14.3247 116.136 14.3878 116.262 14.5351C116.367 14.6402 116.43 14.8085 116.43 14.9978C116.43 15.3344 116.262 15.5237 115.989 15.629L116.494 16.3651H115.967L115.525 15.713H115.189V16.3651H114.747V14.3247ZM115.652 15.3134C115.863 15.3134 115.989 15.1872 115.989 15.0189C115.989 14.8296 115.863 14.7244 115.631 14.7244H115.189V15.3134H115.652Z" fill="#10162F" fill-opacity="0.63"/>
<path d="M115.546 17.3119C114.494 17.3119 113.631 16.4494 113.631 15.3976C113.631 14.3459 114.494 13.4834 115.546 13.4834C116.597 13.4834 117.46 14.3459 117.46 15.3976C117.46 16.4494 116.618 17.3119 115.546 17.3119ZM115.546 13.6728C114.599 13.6728 113.842 14.4301 113.842 15.3766C113.842 16.3233 114.62 17.0805 115.546 17.0805C116.471 17.0805 117.25 16.3022 117.25 15.3766C117.25 14.4511 116.493 13.6728 115.546 13.6728Z" fill="#10162F" fill-opacity="0.63"/>
<path d="M17.6063 35.2126C27.33 35.2126 35.2127 27.33 35.2127 17.6062C35.2127 7.88263 27.33 0 17.6063 0C7.88263 0 0 7.88263 0 17.6062C0 27.33 7.88263 35.2126 17.6063 35.2126Z" fill="#10162F" fill-opacity="0.63"/>
<path d="M46.7612 9.40153C47.3081 9.40153 49.643 9.23324 52.5037 11.3788C52.6299 11.484 52.651 11.6523 52.5668 11.7995L51.1996 13.7137C51.0943 13.861 50.905 13.882 50.7788 13.7768C50.5265 13.5875 50.1057 13.272 49.5798 13.0196C48.7595 12.5988 47.6867 12.2623 46.7612 12.2623C45.8356 12.2623 44.3421 12.5568 44.3421 14.0292C44.3421 15.2072 45.3939 15.6489 48.6122 16.4482C50.7158 16.9951 53.1559 18.0048 53.1559 21.2021C53.1559 24.1471 50.6947 26.0192 47.3081 26.0192C45.2677 26.0192 42.47 25.2409 40.7031 23.453C40.5979 23.3477 40.5978 23.1795 40.682 23.0533L42.2176 21.2443C42.3228 21.1181 42.5331 21.097 42.6383 21.2232C43.2273 21.7701 44.9311 23.1584 47.287 23.1584C50.0637 23.1584 49.9585 21.4756 49.9585 21.2232C49.9585 20.6974 49.5798 19.9401 48.1916 19.5614C46.8242 19.1829 43.3745 18.5307 42.0703 17.0162C41.271 16.0696 41.1658 15.039 41.1658 14.2395C41.1658 12.4726 42.3228 9.40153 46.7612 9.40153Z" fill="#10162F" fill-opacity="0.63"/>
<path d="M61.1279 13.2527C58.6457 13.2527 57.2993 15.0828 57.2993 15.0828V13.8206C57.2993 13.6524 57.1731 13.5262 57.0049 13.5262H54.4596C54.2913 13.5262 54.1651 13.6524 54.1651 13.8206V29.1342C54.1651 29.3025 54.2913 29.4287 54.4596 29.4287H57.0049C57.1731 29.4287 57.2993 29.3025 57.2993 29.1342V24.3593C57.2993 24.3593 58.5404 26.021 61.254 26.021C63.3994 26.021 66.8491 24.2962 66.8491 19.6895C66.8705 15.0618 63.61 13.2527 61.1279 13.2527ZM60.4757 23.2865C58.7504 23.2865 57.2783 21.7719 57.2783 19.6263C57.2783 18.3222 58.0988 16.0083 60.4548 16.0083C62.8108 16.0083 63.6939 17.9014 63.6939 19.6263C63.6731 21.3513 62.7263 23.2865 60.4757 23.2865Z" fill="#10162F" fill-opacity="0.63"/>
<path d="M74.2325 13.2527C70.2151 13.2527 67.733 16.5342 67.733 19.6474C67.733 23.0551 70.3835 26.042 74.2539 26.042C78.1453 26.042 80.7744 22.9709 80.7744 19.6474C80.7744 16.3239 78.2506 13.2527 74.2325 13.2527ZM74.2539 23.2865C72.6128 23.2865 70.825 21.9192 70.825 19.6474C70.825 17.3756 72.4449 16.0293 74.2539 16.0293C75.6417 16.0293 77.6192 17.1863 77.6192 19.6474C77.6192 22.1084 75.8947 23.2865 74.2539 23.2865Z" fill="#10162F" fill-opacity="0.63"/>
<path d="M88.8099 15.9441V13.7776C88.8099 13.6092 88.6837 13.483 88.5152 13.483H85.6123V10.5381C85.6123 10.3699 85.4862 10.2437 85.3178 10.2437H82.8148C82.6465 10.2437 82.5203 10.3699 82.5203 10.5381V13.483H81.3003C81.1319 13.483 81.0057 13.6092 81.0057 13.7776V15.9441C81.0057 16.1125 81.1319 16.2387 81.3003 16.2387H82.5203C82.5203 16.2387 82.5203 21.0135 82.5203 22.3809C82.5203 23.7481 83.1516 25.9568 85.9069 25.9568C87.1691 25.9568 88.2629 25.5151 88.6628 25.3258C88.7675 25.2837 88.8306 25.1785 88.8306 25.0524V22.9278C88.8306 22.7384 88.6205 22.6123 88.4522 22.7384C88.1576 22.9278 87.6952 23.1382 87.0008 23.1382C85.6968 23.1382 85.6123 22.2547 85.6123 21.6236C85.6123 20.9926 85.6123 16.2387 85.6123 16.2387H88.5152C88.6837 16.2387 88.8099 16.1125 88.8099 15.9441Z" fill="#10162F" fill-opacity="0.63"/>
<path d="M91.671 11.9903C92.7399 11.9903 93.6062 11.1239 93.6062 10.0551C93.6062 8.98628 92.7399 8.11987 91.671 8.11987C90.6022 8.11987 89.7358 8.98628 89.7358 10.0551C89.7358 11.1239 90.6022 11.9903 91.671 11.9903Z" fill="#10162F" fill-opacity="0.63"/>
<path d="M92.9127 25.7679H90.4098C90.2415 25.7679 90.1152 25.6417 90.1152 25.4735V13.778C90.1152 13.6096 90.2415 13.4834 90.4098 13.4834H92.9127C93.0812 13.4834 93.2073 13.6096 93.2073 13.778V25.4735C93.2073 25.6206 93.0812 25.7679 92.9127 25.7679Z" fill="#10162F" fill-opacity="0.63"/>
<path d="M95.9824 16.2378H94.7839C94.6154 16.2378 94.4893 16.1116 94.4893 15.9432V13.7767C94.4893 13.6084 94.6154 13.4822 94.7839 13.4822H95.9824C95.9824 13.4822 95.9824 13.2087 95.9824 12.6829C95.9824 12.157 96.0669 8.85449 99.7898 8.85449C101.641 8.85449 102.23 9.27521 102.23 9.27521C102.23 9.27521 102.23 11.2946 102.23 11.5049C102.23 11.7153 102.146 11.9046 101.914 11.8204C101.683 11.7363 100.989 11.547 100.421 11.547C99.8529 11.547 99.0751 11.8835 99.0751 12.8722C99.0751 13.2298 99.0751 13.4822 99.0751 13.4822H103.639C103.766 13.4822 103.87 13.5664 103.913 13.6715L107.089 21.9172L109.95 13.7136C109.992 13.5874 110.098 13.5032 110.223 13.5032H113.021C113.147 13.5032 113.253 13.6294 113.189 13.7557C112.538 15.4596 108.814 25.0935 108.33 26.3136C107.805 27.6598 106.921 29.4899 104.355 29.4899C102.861 29.4899 101.914 28.985 101.515 28.7326C101.389 28.6484 101.347 28.5012 101.41 28.354L102.314 26.3977C102.357 26.3136 102.461 26.2926 102.525 26.3346C102.777 26.5029 103.387 26.7974 104.081 26.7974C105.09 26.7974 105.554 25.5984 105.554 25.5984L101.641 16.2589H99.0751V25.4932C99.0751 25.6615 98.9483 25.7877 98.7805 25.7877H96.2562C96.0877 25.7877 95.9615 25.6615 95.9615 25.4932L95.9824 16.2378Z" fill="#10162F" fill-opacity="0.63"/>
<path d="M24.6746 25.9994C24.4642 25.9994 24.2748 25.9363 24.0855 25.8311C17.1439 21.6661 8.91931 24.0642 8.83517 24.1062C8.22514 24.2955 7.57304 23.938 7.38373 23.328C7.19444 22.718 7.55203 22.0659 8.16206 21.8765C8.54066 21.7713 17.4385 19.121 25.2636 23.8328C25.8105 24.1694 25.9787 24.8635 25.6632 25.4104C25.4528 25.7891 25.0742 25.9994 24.6746 25.9994Z" fill="white"/>
<path d="M26.6727 21.2452C26.4414 21.2452 26.21 21.182 25.9997 21.0558C17.2912 16.0495 8.49851 18.9523 8.41437 18.9944C7.69918 19.2469 6.92086 18.8682 6.66848 18.153C6.41604 17.4378 6.7947 16.6596 7.50988 16.407C7.90954 16.2599 17.5646 13.0625 27.3459 18.6789C27.998 19.0575 28.2294 19.8989 27.8508 20.551C27.6193 20.9928 27.1565 21.2452 26.6727 21.2452Z" fill="white"/>
<path d="M28.8391 15.8609C28.5656 15.8609 28.3132 15.7978 28.0608 15.6716C18.0271 10.3917 7.69887 13.5471 7.59367 13.5891C6.71025 13.8625 5.76365 13.3787 5.49019 12.4952C5.21674 11.6118 5.70055 10.6652 6.58403 10.3917C7.06784 10.2445 18.3426 6.79474 29.6174 12.7056C30.4377 13.1474 30.7532 14.1569 30.3326 14.9774C30.0381 15.5243 29.4491 15.8609 28.8391 15.8609Z" fill="white"/>
</g>
</svg>
