<svg width="107" height="123" viewBox="0 0 107 123" fill="none" xmlns="http://www.w3.org/2000/svg">
<g clip-path="url(#clip0_8_4)">
<path fill-rule="evenodd" clip-rule="evenodd" d="M2.43182 118.145C3.07678 118.145 3.69532 118.401 4.15137 118.856C4.60743 119.311 4.86364 119.929 4.86364 120.572C4.86364 121.216 4.60743 121.834 4.15137 122.289C3.69532 122.744 3.07678 123 2.43182 123C1.78686 123 1.16832 122.744 0.712263 122.289C0.256209 121.834 0 121.216 0 120.572C0 119.929 0.256209 119.311 0.712263 118.856C1.16832 118.401 1.78686 118.145 2.43182 118.145ZM21.8864 118.145C22.5313 118.145 23.1499 118.401 23.6059 118.856C24.062 119.311 24.3182 119.929 24.3182 120.572C24.3182 121.216 24.062 121.834 23.6059 122.289C23.1499 122.744 22.5313 123 21.8864 123C21.2414 123 20.6229 122.744 20.1668 122.289C19.7108 121.834 19.4545 121.216 19.4545 120.572C19.4545 119.929 19.7108 119.311 20.1668 118.856C20.6229 118.401 21.2414 118.145 21.8864 118.145ZM42.9621 118.145C43.6071 118.145 44.2256 118.401 44.6817 118.856C45.1377 119.311 45.3939 119.929 45.3939 120.572C45.3939 121.216 45.1377 121.834 44.6817 122.289C44.2256 122.744 43.6071 123 42.9621 123C42.3172 123 41.6986 122.744 41.2426 122.289C40.7865 121.834 40.5303 121.216 40.5303 120.572C40.5303 119.929 40.7865 119.311 41.2426 118.856C41.6986 118.401 42.3172 118.145 42.9621 118.145ZM64.0379 118.145C64.6828 118.145 65.3014 118.401 65.7574 118.856C66.2135 119.311 66.4697 119.929 66.4697 120.572C66.4697 121.216 66.2135 121.834 65.7574 122.289C65.3014 122.744 64.6828 123 64.0379 123C63.3929 123 62.7744 122.744 62.3183 122.289C61.8623 121.834 61.6061 121.216 61.6061 120.572C61.6061 119.929 61.8623 119.311 62.3183 118.856C62.7744 118.401 63.3929 118.145 64.0379 118.145ZM85.1136 118.145C85.7586 118.145 86.3771 118.401 86.8332 118.856C87.2892 119.311 87.5455 119.929 87.5455 120.572C87.5455 121.216 87.2892 121.834 86.8332 122.289C86.3771 122.744 85.7586 123 85.1136 123C84.4687 123 83.8501 122.744 83.3941 122.289C82.938 121.834 82.6818 121.216 82.6818 120.572C82.6818 119.929 82.938 119.311 83.3941 118.856C83.8501 118.401 84.4687 118.145 85.1136 118.145ZM104.568 118.145C105.213 118.145 105.832 118.401 106.288 118.856C106.744 119.311 107 119.929 107 120.572C107 121.216 106.744 121.834 106.288 122.289C105.832 122.744 105.213 123 104.568 123C103.923 123 103.305 122.744 102.849 122.289C102.393 121.834 102.136 121.216 102.136 120.572C102.136 119.929 102.393 119.311 102.849 118.856C103.305 118.401 103.923 118.145 104.568 118.145ZM2.43182 101.961C3.07678 101.961 3.69532 102.216 4.15137 102.672C4.60743 103.127 4.86364 103.744 4.86364 104.388C4.86364 105.032 4.60743 105.649 4.15137 106.105C3.69532 106.56 3.07678 106.816 2.43182 106.816C1.78686 106.816 1.16832 106.56 0.712263 106.105C0.256209 105.649 0 105.032 0 104.388C0 103.744 0.256209 103.127 0.712263 102.672C1.16832 102.216 1.78686 101.961 2.43182 101.961ZM21.8864 101.961C22.5313 101.961 23.1499 102.216 23.6059 102.672C24.062 103.127 24.3182 103.744 24.3182 104.388C24.3182 105.032 24.062 105.649 23.6059 106.105C23.1499 106.56 22.5313 106.816 21.8864 106.816C21.2414 106.816 20.6229 106.56 20.1668 106.105C19.7108 105.649 19.4545 105.032 19.4545 104.388C19.4545 103.744 19.7108 103.127 20.1668 102.672C20.6229 102.216 21.2414 101.961 21.8864 101.961ZM42.9621 101.961C43.6071 101.961 44.2256 102.216 44.6817 102.672C45.1377 103.127 45.3939 103.744 45.3939 104.388C45.3939 105.032 45.1377 105.649 44.6817 106.105C44.2256 106.56 43.6071 106.816 42.9621 106.816C42.3172 106.816 41.6986 106.56 41.2426 106.105C40.7865 105.649 40.5303 105.032 40.5303 104.388C40.5303 103.744 40.7865 103.127 41.2426 102.672C41.6986 102.216 42.3172 101.961 42.9621 101.961ZM64.0379 101.961C64.6828 101.961 65.3014 102.216 65.7574 102.672C66.2135 103.127 66.4697 103.744 66.4697 104.388C66.4697 105.032 66.2135 105.649 65.7574 106.105C65.3014 106.56 64.6828 106.816 64.0379 106.816C63.3929 106.816 62.7744 106.56 62.3183 106.105C61.8623 105.649 61.6061 105.032 61.6061 104.388C61.6061 103.744 61.8623 103.127 62.3183 102.672C62.7744 102.216 63.3929 101.961 64.0379 101.961ZM85.1136 101.961C85.7586 101.961 86.3771 102.216 86.8332 102.672C87.2892 103.127 87.5455 103.744 87.5455 104.388C87.5455 105.032 87.2892 105.649 86.8332 106.105C86.3771 106.56 85.7586 106.816 85.1136 106.816C84.4687 106.816 83.8501 106.56 83.3941 106.105C82.938 105.649 82.6818 105.032 82.6818 104.388C82.6818 103.744 82.938 103.127 83.3941 102.672C83.8501 102.216 84.4687 101.961 85.1136 101.961ZM104.568 101.961C105.213 101.961 105.832 102.216 106.288 102.672C106.744 103.127 107 103.744 107 104.388C107 105.032 106.744 105.649 106.288 106.105C105.832 106.56 105.213 106.816 104.568 106.816C103.923 106.816 103.305 106.56 102.849 106.105C102.393 105.649 102.136 105.032 102.136 104.388C102.136 103.744 102.393 103.127 102.849 102.672C103.305 102.216 103.923 101.961 104.568 101.961ZM2.43182 84.1579C3.07678 84.1579 3.69532 84.4137 4.15137 84.8689C4.60743 85.3242 4.86364 85.9417 4.86364 86.5855C4.86364 87.2294 4.60743 87.8469 4.15137 88.3021C3.69532 88.7574 3.07678 89.0132 2.43182 89.0132C1.78686 89.0132 1.16832 88.7574 0.712263 88.3021C0.256209 87.8469 0 87.2294 0 86.5855C0 85.9417 0.256209 85.3242 0.712263 84.8689C1.16832 84.4137 1.78686 84.1579 2.43182 84.1579ZM21.8864 84.1579C22.5313 84.1579 23.1499 84.4137 23.6059 84.8689C24.062 85.3242 24.3182 85.9417 24.3182 86.5855C24.3182 87.2294 24.062 87.8469 23.6059 88.3021C23.1499 88.7574 22.5313 89.0132 21.8864 89.0132C21.2414 89.0132 20.6229 88.7574 20.1668 88.3021C19.7108 87.8469 19.4545 87.2294 19.4545 86.5855C19.4545 85.9417 19.7108 85.3242 20.1668 84.8689C20.6229 84.4137 21.2414 84.1579 21.8864 84.1579ZM42.9621 84.1579C43.6071 84.1579 44.2256 84.4137 44.6817 84.8689C45.1377 85.3242 45.3939 85.9417 45.3939 86.5855C45.3939 87.2294 45.1377 87.8469 44.6817 88.3021C44.2256 88.7574 43.6071 89.0132 42.9621 89.0132C42.3172 89.0132 41.6986 88.7574 41.2426 88.3021C40.7865 87.8469 40.5303 87.2294 40.5303 86.5855C40.5303 85.9417 40.7865 85.3242 41.2426 84.8689C41.6986 84.4137 42.3172 84.1579 42.9621 84.1579ZM64.0379 84.1579C64.6828 84.1579 65.3014 84.4137 65.7574 84.8689C66.2135 85.3242 66.4697 85.9417 66.4697 86.5855C66.4697 87.2294 66.2135 87.8469 65.7574 88.3021C65.3014 88.7574 64.6828 89.0132 64.0379 89.0132C63.3929 89.0132 62.7744 88.7574 62.3183 88.3021C61.8623 87.8469 61.6061 87.2294 61.6061 86.5855C61.6061 85.9417 61.8623 85.3242 62.3183 84.8689C62.7744 84.4137 63.3929 84.1579 64.0379 84.1579ZM85.1136 84.1579C85.7586 84.1579 86.3771 84.4137 86.8332 84.8689C87.2892 85.3242 87.5455 85.9417 87.5455 86.5855C87.5455 87.2294 87.2892 87.8469 86.8332 88.3021C86.3771 88.7574 85.7586 89.0132 85.1136 89.0132C84.4687 89.0132 83.8501 88.7574 83.3941 88.3021C82.938 87.8469 82.6818 87.2294 82.6818 86.5855C82.6818 85.9417 82.938 85.3242 83.3941 84.8689C83.8501 84.4137 84.4687 84.1579 85.1136 84.1579ZM104.568 84.1579C105.213 84.1579 105.832 84.4137 106.288 84.8689C106.744 85.3242 107 85.9417 107 86.5855C107 87.2294 106.744 87.8469 106.288 88.3021C105.832 88.7574 105.213 89.0132 104.568 89.0132C103.923 89.0132 103.305 88.7574 102.849 88.3021C102.393 87.8469 102.136 87.2294 102.136 86.5855C102.136 85.9417 102.393 85.3242 102.849 84.8689C103.305 84.4137 103.923 84.1579 104.568 84.1579ZM2.43182 67.9737C3.07678 67.9737 3.69532 68.2295 4.15137 68.6847C4.60743 69.14 4.86364 69.7575 4.86364 70.4013C4.86364 71.0452 4.60743 71.6626 4.15137 72.1179C3.69532 72.5732 3.07678 72.8289 2.43182 72.8289C1.78686 72.8289 1.16832 72.5732 0.712263 72.1179C0.256209 71.6626 0 71.0452 0 70.4013C0 69.7575 0.256209 69.14 0.712263 68.6847C1.16832 68.2295 1.78686 67.9737 2.43182 67.9737ZM21.8864 67.9737C22.5313 67.9737 23.1499 68.2295 23.6059 68.6847C24.062 69.14 24.3182 69.7575 24.3182 70.4013C24.3182 71.0452 24.062 71.6626 23.6059 72.1179C23.1499 72.5732 22.5313 72.8289 21.8864 72.8289C21.2414 72.8289 20.6229 72.5732 20.1668 72.1179C19.7108 71.6626 19.4545 71.0452 19.4545 70.4013C19.4545 69.7575 19.7108 69.14 20.1668 68.6847C20.6229 68.2295 21.2414 67.9737 21.8864 67.9737ZM42.9621 67.9737C43.6071 67.9737 44.2256 68.2295 44.6817 68.6847C45.1377 69.14 45.3939 69.7575 45.3939 70.4013C45.3939 71.0452 45.1377 71.6626 44.6817 72.1179C44.2256 72.5732 43.6071 72.8289 42.9621 72.8289C42.3172 72.8289 41.6986 72.5732 41.2426 72.1179C40.7865 71.6626 40.5303 71.0452 40.5303 70.4013C40.5303 69.7575 40.7865 69.14 41.2426 68.6847C41.6986 68.2295 42.3172 67.9737 42.9621 67.9737ZM64.0379 67.9737C64.6828 67.9737 65.3014 68.2295 65.7574 68.6847C66.2135 69.14 66.4697 69.7575 66.4697 70.4013C66.4697 71.0452 66.2135 71.6626 65.7574 72.1179C65.3014 72.5732 64.6828 72.8289 64.0379 72.8289C63.3929 72.8289 62.7744 72.5732 62.3183 72.1179C61.8623 71.6626 61.6061 71.0452 61.6061 70.4013C61.6061 69.7575 61.8623 69.14 62.3183 68.6847C62.7744 68.2295 63.3929 67.9737 64.0379 67.9737ZM85.1136 67.9737C85.7586 67.9737 86.3771 68.2295 86.8332 68.6847C87.2892 69.14 87.5455 69.7575 87.5455 70.4013C87.5455 71.0452 87.2892 71.6626 86.8332 72.1179C86.3771 72.5732 85.7586 72.8289 85.1136 72.8289C84.4687 72.8289 83.8501 72.5732 83.3941 72.1179C82.938 71.6626 82.6818 71.0452 82.6818 70.4013C82.6818 69.7575 82.938 69.14 83.3941 68.6847C83.8501 68.2295 84.4687 67.9737 85.1136 67.9737ZM104.568 67.9737C105.213 67.9737 105.832 68.2295 106.288 68.6847C106.744 69.14 107 69.7575 107 70.4013C107 71.0452 106.744 71.6626 106.288 72.1179C105.832 72.5732 105.213 72.8289 104.568 72.8289C103.923 72.8289 103.305 72.5732 102.849 72.1179C102.393 71.6626 102.136 71.0452 102.136 70.4013C102.136 69.7575 102.393 69.14 102.849 68.6847C103.305 68.2295 103.923 67.9737 104.568 67.9737ZM42.9621 50.1711C43.6071 50.1711 44.2256 50.4268 44.6817 50.8821C45.1377 51.3374 45.3939 51.9548 45.3939 52.5987C45.3939 53.2425 45.1377 53.86 44.6817 54.3153C44.2256 54.7705 43.6071 55.0263 42.9621 55.0263C42.3172 55.0263 41.6986 54.7705 41.2426 54.3153C40.7865 53.86 40.5303 53.2425 40.5303 52.5987C40.5303 51.9548 40.7865 51.3374 41.2426 50.8821C41.6986 50.4268 42.3172 50.1711 42.9621 50.1711ZM21.8864 50.1711C22.5313 50.1711 23.1499 50.4268 23.6059 50.8821C24.062 51.3374 24.3182 51.9548 24.3182 52.5987C24.3182 53.2425 24.062 53.86 23.6059 54.3153C23.1499 54.7705 22.5313 55.0263 21.8864 55.0263C21.2414 55.0263 20.6229 54.7705 20.1668 54.3153C19.7108 53.86 19.4545 53.2425 19.4545 52.5987C19.4545 51.9548 19.7108 51.3374 20.1668 50.8821C20.6229 50.4268 21.2414 50.1711 21.8864 50.1711ZM2.43182 50.1711C3.07678 50.1711 3.69532 50.4268 4.15137 50.8821C4.60743 51.3374 4.86364 51.9548 4.86364 52.5987C4.86364 53.2425 4.60743 53.86 4.15137 54.3153C3.69532 54.7705 3.07678 55.0263 2.43182 55.0263C1.78686 55.0263 1.16832 54.7705 0.712263 54.3153C0.256209 53.86 0 53.2425 0 52.5987C0 51.9548 0.256209 51.3374 0.712263 50.8821C1.16832 50.4268 1.78686 50.1711 2.43182 50.1711ZM104.568 50.1711C105.213 50.1711 105.832 50.4268 106.288 50.8821C106.744 51.3374 107 51.9548 107 52.5987C107 53.2425 106.744 53.86 106.288 54.3153C105.832 54.7705 105.213 55.0263 104.568 55.0263C103.923 55.0263 103.305 54.7705 102.849 54.3153C102.393 53.86 102.136 53.2425 102.136 52.5987C102.136 51.9548 102.393 51.3374 102.849 50.8821C103.305 50.4268 103.923 50.1711 104.568 50.1711ZM85.1136 50.1711C85.7586 50.1711 86.3771 50.4268 86.8332 50.8821C87.2892 51.3374 87.5455 51.9548 87.5455 52.5987C87.5455 53.2425 87.2892 53.86 86.8332 54.3153C86.3771 54.7705 85.7586 55.0263 85.1136 55.0263C84.4687 55.0263 83.8501 54.7705 83.3941 54.3153C82.938 53.86 82.6818 53.2425 82.6818 52.5987C82.6818 51.9548 82.938 51.3374 83.3941 50.8821C83.8501 50.4268 84.4687 50.1711 85.1136 50.1711ZM64.0379 50.1711C64.6828 50.1711 65.3014 50.4268 65.7574 50.8821C66.2135 51.3374 66.4697 51.9548 66.4697 52.5987C66.4697 53.2425 66.2135 53.86 65.7574 54.3153C65.3014 54.7705 64.6828 55.0263 64.0379 55.0263C63.3929 55.0263 62.7744 54.7705 62.3183 54.3153C61.8623 53.86 61.6061 53.2425 61.6061 52.5987C61.6061 51.9548 61.8623 51.3374 62.3183 50.8821C62.7744 50.4268 63.3929 50.1711 64.0379 50.1711ZM42.9621 33.9868C43.6071 33.9868 44.2256 34.2426 44.6817 34.6979C45.1377 35.1531 45.3939 35.7706 45.3939 36.4145C45.3939 37.0583 45.1377 37.6758 44.6817 38.1311C44.2256 38.5863 43.6071 38.8421 42.9621 38.8421C42.3172 38.8421 41.6986 38.5863 41.2426 38.1311C40.7865 37.6758 40.5303 37.0583 40.5303 36.4145C40.5303 35.7706 40.7865 35.1531 41.2426 34.6979C41.6986 34.2426 42.3172 33.9868 42.9621 33.9868ZM85.1136 33.9868C85.7586 33.9868 86.3771 34.2426 86.8332 34.6979C87.2892 35.1531 87.5455 35.7706 87.5455 36.4145C87.5455 37.0583 87.2892 37.6758 86.8332 38.1311C86.3771 38.5863 85.7586 38.8421 85.1136 38.8421C84.4687 38.8421 83.8501 38.5863 83.3941 38.1311C82.938 37.6758 82.6818 37.0583 82.6818 36.4145C82.6818 35.7706 82.938 35.1531 83.3941 34.6979C83.8501 34.2426 84.4687 33.9868 85.1136 33.9868ZM104.568 33.9868C105.213 33.9868 105.832 34.2426 106.288 34.6979C106.744 35.1531 107 35.7706 107 36.4145C107 37.0583 106.744 37.6758 106.288 38.1311C105.832 38.5863 105.213 38.8421 104.568 38.8421C103.923 38.8421 103.305 38.5863 102.849 38.1311C102.393 37.6758 102.136 37.0583 102.136 36.4145C102.136 35.7706 102.393 35.1531 102.849 34.6979C103.305 34.2426 103.923 33.9868 104.568 33.9868ZM21.8864 33.9868C22.5313 33.9868 23.1499 34.2426 23.6059 34.6979C24.062 35.1531 24.3182 35.7706 24.3182 36.4145C24.3182 37.0583 24.062 37.6758 23.6059 38.1311C23.1499 38.5863 22.5313 38.8421 21.8864 38.8421C21.2414 38.8421 20.6229 38.5863 20.1668 38.1311C19.7108 37.6758 19.4545 37.0583 19.4545 36.4145C19.4545 35.7706 19.7108 35.1531 20.1668 34.6979C20.6229 34.2426 21.2414 33.9868 21.8864 33.9868ZM64.0379 33.9868C64.6828 33.9868 65.3014 34.2426 65.7574 34.6979C66.2135 35.1531 66.4697 35.7706 66.4697 36.4145C66.4697 37.0583 66.2135 37.6758 65.7574 38.1311C65.3014 38.5863 64.6828 38.8421 64.0379 38.8421C63.3929 38.8421 62.7744 38.5863 62.3183 38.1311C61.8623 37.6758 61.6061 37.0583 61.6061 36.4145C61.6061 35.7706 61.8623 35.1531 62.3183 34.6979C62.7744 34.2426 63.3929 33.9868 64.0379 33.9868ZM2.43182 33.9868C3.07678 33.9868 3.69532 34.2426 4.15137 34.6979C4.60743 35.1531 4.86364 35.7706 4.86364 36.4145C4.86364 37.0583 4.60743 37.6758 4.15137 38.1311C3.69532 38.5863 3.07678 38.8421 2.43182 38.8421C1.78686 38.8421 1.16832 38.5863 0.712263 38.1311C0.256209 37.6758 0 37.0583 0 36.4145C0 35.7706 0.256209 35.1531 0.712263 34.6979C1.16832 34.2426 1.78686 33.9868 2.43182 33.9868ZM2.43182 16.1842C3.07678 16.1842 3.69532 16.44 4.15137 16.8952C4.60743 17.3505 4.86364 17.968 4.86364 18.6118C4.86364 19.2557 4.60743 19.8732 4.15137 20.3284C3.69532 20.7837 3.07678 21.0395 2.43182 21.0395C1.78686 21.0395 1.16832 20.7837 0.712263 20.3284C0.256209 19.8732 0 19.2557 0 18.6118C0 17.968 0.256209 17.3505 0.712263 16.8952C1.16832 16.44 1.78686 16.1842 2.43182 16.1842ZM21.8864 16.1842C22.5313 16.1842 23.1499 16.44 23.6059 16.8952C24.062 17.3505 24.3182 17.968 24.3182 18.6118C24.3182 19.2557 24.062 19.8732 23.6059 20.3284C23.1499 20.7837 22.5313 21.0395 21.8864 21.0395C21.2414 21.0395 20.6229 20.7837 20.1668 20.3284C19.7108 19.8732 19.4545 19.2557 19.4545 18.6118C19.4545 17.968 19.7108 17.3505 20.1668 16.8952C20.6229 16.44 21.2414 16.1842 21.8864 16.1842ZM42.9621 16.1842C43.6071 16.1842 44.2256 16.44 44.6817 16.8952C45.1377 17.3505 45.3939 17.968 45.3939 18.6118C45.3939 19.2557 45.1377 19.8732 44.6817 20.3284C44.2256 20.7837 43.6071 21.0395 42.9621 21.0395C42.3172 21.0395 41.6986 20.7837 41.2426 20.3284C40.7865 19.8732 40.5303 19.2557 40.5303 18.6118C40.5303 17.968 40.7865 17.3505 41.2426 16.8952C41.6986 16.44 42.3172 16.1842 42.9621 16.1842ZM64.0379 16.1842C64.6828 16.1842 65.3014 16.44 65.7574 16.8952C66.2135 17.3505 66.4697 17.968 66.4697 18.6118C66.4697 19.2557 66.2135 19.8732 65.7574 20.3284C65.3014 20.7837 64.6828 21.0395 64.0379 21.0395C63.3929 21.0395 62.7744 20.7837 62.3183 20.3284C61.8623 19.8732 61.6061 19.2557 61.6061 18.6118C61.6061 17.968 61.8623 17.3505 62.3183 16.8952C62.7744 16.44 63.3929 16.1842 64.0379 16.1842ZM85.1136 16.1842C85.7586 16.1842 86.3771 16.44 86.8332 16.8952C87.2892 17.3505 87.5455 17.968 87.5455 18.6118C87.5455 19.2557 87.2892 19.8732 86.8332 20.3284C86.3771 20.7837 85.7586 21.0395 85.1136 21.0395C84.4687 21.0395 83.8501 20.7837 83.3941 20.3284C82.938 19.8732 82.6818 19.2557 82.6818 18.6118C82.6818 17.968 82.938 17.3505 83.3941 16.8952C83.8501 16.44 84.4687 16.1842 85.1136 16.1842ZM104.568 16.1842C105.213 16.1842 105.832 16.44 106.288 16.8952C106.744 17.3505 107 17.968 107 18.6118C107 19.2557 106.744 19.8732 106.288 20.3284C105.832 20.7837 105.213 21.0395 104.568 21.0395C103.923 21.0395 103.305 20.7837 102.849 20.3284C102.393 19.8732 102.136 19.2557 102.136 18.6118C102.136 17.968 102.393 17.3505 102.849 16.8952C103.305 16.44 103.923 16.1842 104.568 16.1842ZM2.43182 0C3.07678 0 3.69532 0.255768 4.15137 0.711037C4.60743 1.16631 4.86364 1.78378 4.86364 2.42763C4.86364 3.07148 4.60743 3.68896 4.15137 4.14423C3.69532 4.5995 3.07678 4.85526 2.43182 4.85526C1.78686 4.85526 1.16832 4.5995 0.712263 4.14423C0.256209 3.68896 0 3.07148 0 2.42763C0 1.78378 0.256209 1.16631 0.712263 0.711037C1.16832 0.255768 1.78686 0 2.43182 0ZM21.8864 0C22.5313 0 23.1499 0.255768 23.6059 0.711037C24.062 1.16631 24.3182 1.78378 24.3182 2.42763C24.3182 3.07148 24.062 3.68896 23.6059 4.14423C23.1499 4.5995 22.5313 4.85526 21.8864 4.85526C21.2414 4.85526 20.6229 4.5995 20.1668 4.14423C19.7108 3.68896 19.4545 3.07148 19.4545 2.42763C19.4545 1.78378 19.7108 1.16631 20.1668 0.711037C20.6229 0.255768 21.2414 0 21.8864 0ZM42.9621 0C43.6071 0 44.2256 0.255768 44.6817 0.711037C45.1377 1.16631 45.3939 1.78378 45.3939 2.42763C45.3939 3.07148 45.1377 3.68896 44.6817 4.14423C44.2256 4.5995 43.6071 4.85526 42.9621 4.85526C42.3172 4.85526 41.6986 4.5995 41.2426 4.14423C40.7865 3.68896 40.5303 3.07148 40.5303 2.42763C40.5303 1.78378 40.7865 1.16631 41.2426 0.711037C41.6986 0.255768 42.3172 0 42.9621 0ZM64.0379 0C64.6828 0 65.3014 0.255768 65.7574 0.711037C66.2135 1.16631 66.4697 1.78378 66.4697 2.42763C66.4697 3.07148 66.2135 3.68896 65.7574 4.14423C65.3014 4.5995 64.6828 4.85526 64.0379 4.85526C63.3929 4.85526 62.7744 4.5995 62.3183 4.14423C61.8623 3.68896 61.6061 3.07148 61.6061 2.42763C61.6061 1.78378 61.8623 1.16631 62.3183 0.711037C62.7744 0.255768 63.3929 0 64.0379 0ZM85.1136 0C85.7586 0 86.3771 0.255768 86.8332 0.711037C87.2892 1.16631 87.5455 1.78378 87.5455 2.42763C87.5455 3.07148 87.2892 3.68896 86.8332 4.14423C86.3771 4.5995 85.7586 4.85526 85.1136 4.85526C84.4687 4.85526 83.8501 4.5995 83.3941 4.14423C82.938 3.68896 82.6818 3.07148 82.6818 2.42763C82.6818 1.78378 82.938 1.16631 83.3941 0.711037C83.8501 0.255768 84.4687 0 85.1136 0ZM104.568 0C105.213 0 105.832 0.255768 106.288 0.711037C106.744 1.16631 107 1.78378 107 2.42763C107 3.07148 106.744 3.68896 106.288 4.14423C105.832 4.5995 105.213 4.85526 104.568 4.85526C103.923 4.85526 103.305 4.5995 102.849 4.14423C102.393 3.68896 102.136 3.07148 102.136 2.42763C102.136 1.78378 102.393 1.16631 102.849 0.711037C103.305 0.255768 103.923 0 104.568 0Z" fill="#7E6FFF"/>
</g>
<defs>
<clipPath id="clip0_8_4">
<rect width="107" height="123" fill="white"/>
</clipPath>
</defs>
</svg>
