<svg width="13" height="11" viewBox="0 0 13 11" fill="none" xmlns="http://www.w3.org/2000/svg">
<path d="M13 1.3048C12.5219 1.5253 12.0084 1.67428 11.4685 1.74162C12.0255 1.39466 12.4423 0.848596 12.641 0.205309C12.1176 0.528893 11.5448 0.756661 10.9475 0.878711C10.5458 0.432278 10.0137 0.136375 9.43386 0.0369432C8.85403 -0.0624891 8.25889 0.040112 7.74082 0.328817C7.22276 0.617523 6.81076 1.07618 6.56879 1.63358C6.32683 2.19098 6.26843 2.81593 6.40267 3.41142C5.34215 3.35599 4.30468 3.06908 3.35759 2.56931C2.4105 2.06954 1.57496 1.36807 0.905179 0.510426C0.676165 0.921618 0.544482 1.39836 0.544482 1.9061C0.544226 2.36317 0.652366 2.81325 0.859307 3.21639C1.06625 3.61953 1.36559 3.96327 1.73078 4.21711C1.30726 4.20309 0.893083 4.08397 0.522725 3.86969V3.90544C0.522683 4.54651 0.735727 5.16785 1.12571 5.66403C1.51569 6.16021 2.05859 6.50068 2.66229 6.62765C2.26941 6.73833 1.8575 6.75463 1.45768 6.67533C1.628 7.22693 1.95979 7.70928 2.40658 8.05486C2.85337 8.40044 3.3928 8.59195 3.94935 8.60257C3.00457 9.37454 1.83778 9.79329 0.63666 9.79145C0.423895 9.79151 0.211309 9.77857 0 9.75271C1.2192 10.5686 2.63844 11.0017 4.08791 11C8.99454 11 11.6769 6.77008 11.6769 3.10153C11.6769 2.98235 11.674 2.86197 11.6689 2.74278C12.1906 2.35005 12.641 1.86372 12.9989 1.30659L13 1.3048Z" fill="#EB5757"/>
</svg>
