<svg width="24" height="24" viewBox="0 0 24 24" fill="none" xmlns="http://www.w3.org/2000/svg">
<g clip-path="url(#clip0_98_14)">
<path d="M23.297 5.05873C22.4919 5.41546 21.6271 5.6565 20.7179 5.76544C21.656 5.20412 22.3579 4.32066 22.6925 3.27991C21.8111 3.80343 20.8465 4.17192 19.8406 4.36938C19.1641 3.64712 18.2682 3.16839 17.2917 3.00752C16.3153 2.84666 15.3131 3.01265 14.4407 3.47973C13.5683 3.94682 12.8745 4.68886 12.4671 5.59065C12.0596 6.49244 11.9613 7.50353 12.1873 8.46693C10.4015 8.37727 8.65439 7.91309 7.05953 7.10453C5.46466 6.29596 4.05763 5.16109 2.92975 3.77355C2.54409 4.4388 2.32234 5.2101 2.32234 6.03154C2.32191 6.77102 2.50402 7.49918 2.8525 8.15141C3.20098 8.80363 3.70506 9.35976 4.32002 9.77044C3.60683 9.74775 2.90938 9.55504 2.28571 9.20835V9.2662C2.28564 10.3034 2.6444 11.3086 3.30111 12.1113C3.95783 12.9141 4.87206 13.4649 5.88866 13.6703C5.22706 13.8494 4.53342 13.8758 3.86013 13.7475C4.14696 14.6399 4.70567 15.4203 5.45805 15.9794C6.21043 16.5385 7.11881 16.8483 8.05603 16.8655C6.46505 18.1144 4.50021 18.7919 2.47757 18.7889C2.11928 18.789 1.76129 18.7681 1.40546 18.7262C3.45855 20.0463 5.8485 20.7469 8.28935 20.7442C16.5519 20.7442 21.0689 13.9008 21.0689 7.96559C21.0689 7.77276 21.0641 7.57801 21.0554 7.38518C21.934 6.74979 22.6924 5.96299 23.2951 5.06163L23.297 5.05873Z" fill="#7B8290"/>
</g>
<defs>
<clipPath id="clip0_98_14">
<rect width="23.1391" height="23.1391" fill="white" transform="translate(0.502075 0.298828)"/>
</clipPath>
</defs>
</svg>
