<svg width="96" height="35" viewBox="0 0 96 35" fill="none" xmlns="http://www.w3.org/2000/svg">
<mask id="mask0_70_276" style="mask-type:luminance" maskUnits="userSpaceOnUse" x="0" y="0" width="96" height="35">
<path d="M95.5299 0H0V34.3478H95.5299V0Z" fill="white"/>
</mask>
<g mask="url(#mask0_70_276)">
<path d="M5.44779 24.1055C5.84641 25.1747 6.39834 26.0897 7.11381 26.8505C7.81905 27.6112 8.65718 28.187 9.62816 28.5879C10.5992 28.9889 11.6519 29.1945 12.7967 29.1945C13.9006 29.1945 14.9431 28.9889 15.9141 28.5673C16.8851 28.1458 17.7334 27.5598 18.4591 26.799C19.1848 26.0383 19.7469 25.1335 20.1456 24.0849C20.5442 23.0363 20.7486 21.8541 20.7486 20.5587V0.480469H25.6036V33.0086H20.7997V29.9861C19.7265 31.1272 18.4489 32.0114 16.9873 32.6385C15.5257 33.2553 13.9414 33.5637 12.2549 33.5637C10.5276 33.5637 8.92293 33.2656 7.43066 32.6591C5.9384 32.0525 4.64033 31.1992 3.54669 30.0786C2.45304 28.9579 1.57403 27.6215 0.950557 26.0588C0.316851 24.4962 0 22.7484 0 20.826V0.480469H4.85498V20.5484C4.85498 21.8541 5.04917 23.0363 5.44779 24.1055Z" fill="#10162F" fill-opacity="0.63"/>
<path d="M33.9538 0.480469V12.3238C35.0269 11.2444 36.2739 10.3808 37.6946 9.74338C39.1153 9.10597 40.6485 8.78726 42.3145 8.78726C44.0418 8.78726 45.6567 9.11624 47.1694 9.76388C48.6822 10.4116 49.9905 11.2957 51.0944 12.4164C52.1982 13.537 53.0772 14.8529 53.7314 16.3642C54.3752 17.8857 54.7024 19.4895 54.7024 21.1961C54.7024 22.9027 54.3752 24.5065 53.7314 26.0075C53.0875 27.5084 52.2084 28.8141 51.0944 29.9346C49.9905 31.045 48.6719 31.9291 47.1694 32.587C45.6567 33.2347 44.0418 33.5637 42.3145 33.5637C40.6485 33.5637 39.1051 33.245 37.6742 32.6076C36.2432 31.9702 34.9861 31.1169 33.9128 30.0272V32.9983H29.293V0.480469H33.9538ZM34.4852 24.4036C34.9043 25.3906 35.4767 26.2644 36.2126 27.0047C36.9485 27.7448 37.8173 28.3412 38.7985 28.7729C39.7797 29.2047 40.8427 29.4206 41.9875 29.4206C43.0913 29.4206 44.144 29.2047 45.1253 28.7729C46.1065 28.3412 46.965 27.7551 47.6908 27.0047C48.4164 26.2644 48.9888 25.3906 49.4181 24.4036C49.8474 23.4167 50.062 22.3475 50.062 21.1961C50.062 20.0446 49.8474 18.9754 49.4181 17.9679C48.9888 16.9604 48.4062 16.0866 47.6908 15.3464C46.965 14.6061 46.1167 14.0202 45.1253 13.6089C44.1338 13.1977 43.0913 12.9818 41.9875 12.9818C40.8836 12.9818 39.8308 13.1874 38.8496 13.6089C37.8684 14.0305 36.9996 14.6061 36.2637 15.3464C35.5277 16.0866 34.9349 16.9604 34.5057 17.9679C34.0764 18.9754 33.8618 20.0549 33.8618 21.1961C33.8618 22.3475 34.0662 23.4167 34.4852 24.4036Z" fill="#10162F" fill-opacity="0.63"/>
<path d="M57.3192 16.4148C57.9325 14.9241 58.7808 13.6184 59.8643 12.4875C60.9477 11.3567 62.2151 10.4622 63.6971 9.81448C65.1792 9.16687 66.7737 8.83789 68.501 8.83789C70.1977 8.83789 71.7615 9.14631 73.2129 9.76318C74.6643 10.38 75.9112 11.2436 76.9537 12.3437C77.9963 13.4436 78.814 14.7493 79.4068 16.2503C79.9894 17.7513 80.2858 19.3859 80.2858 21.1542V22.686H61.1112C61.2646 23.6421 61.5712 24.5365 62.0311 25.359C62.4911 26.1815 63.0737 26.8908 63.7585 27.4974C64.4535 28.1039 65.2405 28.5768 66.1093 28.9161C66.9883 29.2553 67.9184 29.4301 68.8996 29.4301C71.7002 29.4301 73.9693 28.2684 75.6864 25.9449L79.0592 28.4534C77.8941 30.0367 76.4427 31.2703 74.7154 32.1751C72.988 33.0695 71.046 33.5218 68.8996 33.5218C67.1416 33.5218 65.5062 33.2134 63.9833 32.5965C62.4604 31.9798 61.1316 31.1058 60.0073 29.9956C58.883 28.8852 57.9938 27.5693 57.3499 26.0683C56.706 24.5674 56.3789 22.9327 56.3789 21.1645C56.3993 19.4784 56.706 17.9055 57.3192 16.4148ZM63.8095 14.5848C62.5013 15.6849 61.6325 17.1447 61.2032 18.9746H75.574C75.1753 17.1447 74.3167 15.6849 73.0085 14.5848C71.7002 13.4847 70.1671 12.9399 68.409 12.9399C66.651 12.9296 65.1178 13.4847 63.8095 14.5848Z" fill="#10162F" fill-opacity="0.63"/>
<path d="M89.0139 15.1201C88.0326 16.1996 87.5318 17.68 87.5318 19.5305V33.0085H82.8711V9.31158H87.491V12.2415C88.0735 11.2854 88.8401 10.5247 89.7805 9.96948C90.7208 9.41428 91.8349 9.13672 93.1329 9.13672H94.7482V13.5061H92.8059C91.2625 13.4855 89.9951 14.0304 89.0139 15.1201Z" fill="#10162F" fill-opacity="0.63"/>
</g>
</svg>
