<svg width="138" height="33" viewBox="0 0 138 33" fill="none" xmlns="http://www.w3.org/2000/svg">
<mask id="mask0_70_267" style="mask-type:luminance" maskUnits="userSpaceOnUse" x="0" y="0" width="138" height="33">
<path d="M138 0H0V32.0357H138V0Z" fill="white"/>
</mask>
<g mask="url(#mask0_70_267)">
<path d="M42.8989 5.34719C42.3938 3.47104 40.9145 1.99177 39.0384 1.48665C35.6108 0.548584 21.9004 0.548584 21.9004 0.548584C21.9004 0.548584 8.19012 0.548584 4.76254 1.45057C2.92247 1.95569 1.40711 3.47104 0.901996 5.34719C0 8.77482 0 15.8825 0 15.8825C0 15.8825 0 23.0263 0.901996 26.4179C1.40711 28.294 2.88639 29.7732 4.76254 30.2783C8.22619 31.2164 21.9004 31.2164 21.9004 31.2164C21.9004 31.2164 35.6108 31.2164 39.0384 30.3144C40.9145 29.8093 42.3938 28.33 42.8989 26.4539C43.8009 23.0263 43.8009 15.9185 43.8009 15.9185C43.8009 15.9185 43.8369 8.77482 42.8989 5.34719Z" fill="#10162F" fill-opacity="0.63"/>
<path d="M17.5334 22.4491L28.9345 15.8826L17.5334 9.31616V22.4491Z" fill="white"/>
<path d="M63.6088 28.474C62.7429 27.8967 62.1295 26.9948 61.7688 25.732C61.4079 24.5053 61.2275 22.8456 61.2275 20.8251V18.047C61.2275 15.9904 61.444 14.3307 61.8409 13.068C62.2738 11.8052 62.9233 10.9032 63.7892 10.3259C64.6912 9.74863 65.8457 9.45996 67.289 9.45996C68.6961 9.45996 69.8506 9.74863 70.7166 10.3259C71.5824 10.9032 72.1958 11.8413 72.5927 13.068C72.9895 14.2947 73.206 15.9543 73.206 18.047V20.8251C73.206 22.8817 73.0256 24.5053 72.6288 25.768C72.2318 26.9948 71.6186 27.9329 70.7526 28.51C69.8867 29.0874 68.6961 29.376 67.2168 29.376C65.7014 29.3399 64.4747 29.0513 63.6088 28.474ZM68.4795 25.4434C68.7321 24.83 68.8404 23.7837 68.8404 22.3765V16.3873C68.8404 15.0162 68.7321 14.0061 68.4795 13.3566C68.2271 12.7071 67.8301 12.4185 67.2168 12.4185C66.6394 12.4185 66.2066 12.7433 65.99 13.3566C65.7375 14.0061 65.6292 15.0162 65.6292 16.3873V22.3765C65.6292 23.7837 65.7375 24.83 65.99 25.4434C66.2066 26.0567 66.6394 26.3815 67.2529 26.3815C67.8301 26.3815 68.2271 26.0928 68.4795 25.4434Z" fill="#10162F" fill-opacity="0.63"/>
<path d="M130.213 20.8605V21.8346C130.213 23.0614 130.248 23.9995 130.321 24.6128C130.393 25.2261 130.536 25.6952 130.79 25.9478C131.006 26.2363 131.367 26.3807 131.872 26.3807C132.521 26.3807 132.954 26.1281 133.208 25.623C133.459 25.118 133.568 24.2881 133.604 23.0975L137.32 23.3139C137.356 23.4943 137.356 23.7108 137.356 23.9995C137.356 25.7673 136.887 27.1023 135.913 27.9681C134.939 28.8341 133.568 29.2671 131.8 29.2671C129.671 29.2671 128.192 28.5816 127.326 27.2466C126.46 25.9117 126.027 23.8551 126.027 21.0409V17.6855C126.027 14.799 126.46 12.7064 127.362 11.3715C128.264 10.0365 129.779 9.38721 131.908 9.38721C133.388 9.38721 134.542 9.67569 135.336 10.217C136.13 10.7582 136.671 11.6241 136.995 12.7425C137.32 13.8971 137.464 15.4846 137.464 17.5051V20.7883H130.213V20.8605ZM130.754 12.7786C130.536 13.0672 130.393 13.5003 130.321 14.1136C130.248 14.7269 130.213 15.665 130.213 16.9278V18.2988H133.388V16.9278C133.388 15.7011 133.352 14.763 133.279 14.1136C133.208 13.4642 133.027 13.0312 132.81 12.7786C132.594 12.5261 132.233 12.3818 131.8 12.3818C131.295 12.3818 130.97 12.4901 130.754 12.7786Z" fill="#10162F" fill-opacity="0.63"/>
<path d="M53.0731 20.5L48.1663 2.71265H52.4598L54.1916 10.7584C54.6245 12.7428 54.9492 14.4386 55.1657 15.8457H55.274C55.4183 14.8354 55.743 13.1758 56.2481 10.7945L58.0521 2.71265H62.3456L57.3665 20.5V29.0148H53.1091V20.5H53.0731Z" fill="#10162F" fill-opacity="0.63"/>
<path d="M87.1696 9.82056V29.0511H83.7779L83.4173 26.7059H83.3089C82.407 28.4739 80.9998 29.3758 79.1597 29.3758C77.897 29.3758 76.9589 28.9429 76.3455 28.113C75.7321 27.2832 75.4435 25.9844 75.4435 24.1804V9.82056H79.7731V23.9278C79.7731 24.7937 79.8813 25.407 80.0617 25.7679C80.2421 26.1287 80.5669 26.3091 80.9998 26.3091C81.3607 26.3091 81.7214 26.2008 82.0822 25.9483C82.4432 25.7318 82.6953 25.4431 82.8399 25.0824V9.82056H87.1696Z" fill="#10162F" fill-opacity="0.63"/>
<path d="M109.358 9.82056V29.0511H105.967L105.605 26.7059H105.498C104.596 28.4739 103.188 29.3758 101.348 29.3758C100.085 29.3758 99.1469 28.9429 98.5341 28.113C97.9204 27.2832 97.6313 25.9844 97.6313 24.1804V9.82056H101.961V23.9278C101.961 24.7937 102.069 25.407 102.25 25.7679C102.43 26.1287 102.755 26.3091 103.188 26.3091C103.549 26.3091 103.909 26.2008 104.27 25.9483C104.631 25.7318 104.884 25.4431 105.028 25.0824V9.82056H109.358Z" fill="#10162F" fill-opacity="0.63"/>
<path d="M98.9306 6.2124H94.6374V29.0148H90.4158V6.2124H86.1222V2.71265H98.9306V6.2124Z" fill="#10162F" fill-opacity="0.63"/>
<path d="M123.683 12.8885C123.43 11.6617 122.997 10.7958 122.42 10.2546C121.843 9.71332 121.013 9.42475 120.003 9.42475C119.209 9.42475 118.451 9.64122 117.766 10.1103C117.08 10.5432 116.539 11.1567 116.178 11.8782H116.142V1.73975H111.956V29.0161H115.529L115.961 27.2121H116.07C116.395 27.8615 116.9 28.3666 117.585 28.7635C118.271 29.1244 118.993 29.3408 119.822 29.3408C121.301 29.3408 122.347 28.6553 123.033 27.3204C123.718 25.9853 124.079 23.8567 124.079 21.0064V17.9757C124.043 15.7747 123.935 14.079 123.683 12.8885ZM119.714 20.7177C119.714 22.1248 119.642 23.2072 119.534 24.001C119.425 24.7947 119.209 25.372 118.956 25.6967C118.668 26.0215 118.306 26.2019 117.873 26.2019C117.513 26.2019 117.189 26.1297 116.9 25.9493C116.611 25.7689 116.359 25.5164 116.178 25.1916V14.2955C116.322 13.7905 116.575 13.3574 116.935 12.9967C117.297 12.6719 117.693 12.4915 118.091 12.4915C118.523 12.4915 118.883 12.6719 119.101 12.9967C119.353 13.3574 119.497 13.9347 119.606 14.7285C119.714 15.5583 119.75 16.7128 119.75 18.1922V20.7177H119.714Z" fill="#10162F" fill-opacity="0.63"/>
</g>
</svg>
